<?xml version="1.0" encoding="UTF-8" standalone="no"?>
<!-- Created with Inkscape (http://www.inkscape.org/) -->

<svg
   width="220mm"
   height="220mm"
   viewBox="0 0 220 220"
   version="1.1"
   id="svg1"
   xml:space="preserve"
   sodipodi:docname="logo_badminton_motus_v20_primary.svg"
   inkscape:version="1.4.2 (f4327f4, 2025-05-13)"
   inkscape:export-filename="logo_badminton_motus_v20_primary.png"
   inkscape:export-xdpi="96"
   inkscape:export-ydpi="96"
   xmlns:inkscape="http://www.inkscape.org/namespaces/inkscape"
   xmlns:sodipodi="http://sodipodi.sourceforge.net/DTD/sodipodi-0.dtd"
   xmlns="http://www.w3.org/2000/svg"
   xmlns:svg="http://www.w3.org/2000/svg"><sodipodi:namedview
     id="namedview1"
     pagecolor="#ffffff"
     bordercolor="#999999"
     borderopacity="1"
     inkscape:showpageshadow="2"
     inkscape:pageopacity="0"
     inkscape:pagecheckerboard="0"
     inkscape:deskcolor="#d1d1d1"
     inkscape:document-units="mm"
     inkscape:zoom="0.55861436"
     inkscape:cx="281.94764"
     inkscape:cy="324.91109"
     inkscape:window-width="1680"
     inkscape:window-height="979"
     inkscape:window-x="-8"
     inkscape:window-y="-8"
     inkscape:window-maximized="1"
     inkscape:current-layer="layer1"
     inkscape:export-bgcolor="#ffffffff" /><defs
     id="defs1"><rect
       x="71.666667"
       y="48.333333"
       width="83.333333"
       height="76.666667"
       id="rect2" /><rect
       x="48.333333"
       y="20"
       width="573.33333"
       height="131.66667"
       id="rect1" /><rect
       x="71.666664"
       y="48.333332"
       width="83.333336"
       height="76.666664"
       id="rect2-4" /></defs><g
     inkscape:label="Livello 1"
     inkscape:groupmode="layer"
     id="layer1"><path
       style="display:inline;fill:#418c37"
       d="m 106.74768,160.35606 c -2.83213,-0.2411 -6.908558,-0.98063 -9.447554,-1.71393 -2.212737,-0.63908 -7.604742,-2.68187 -8.155056,-3.08959 -0.240328,-0.17805 -0.03617,-0.39533 1.31212,-1.39645 7.872267,-5.84526 15.07368,-12.88044 21.09157,-20.60473 6.92159,-8.88425 11.38816,-17.4659 13.1967,-25.35491 0.64365,-2.80762 0.81502,-7.45206 0.36952,-10.014326 -0.41256,-2.372855 -1.28534,-4.639135 -2.43916,-6.33363 -0.54145,-0.795175 -0.91748,-1.501859 -0.83563,-1.570411 0.0819,-0.06855 0.97022,-0.603523 1.97414,-1.188827 8.72595,-5.087382 15.71537,-12.351801 19.41228,-20.176054 1.10636,-2.34154 1.74341,-4.233443 2.03578,-6.045801 0.33676,-2.087599 0.24241,-2.149984 -1.00457,-0.664203 -8.28867,9.875982 -18.40174,17.409919 -29.08113,21.664571 -4.59847,1.832025 -10.01825,3.314584 -14.8176,4.053295 -3.598249,0.553838 -10.284998,0.600324 -13.050976,0.09073 -3.489168,-0.642831 -6.362776,-1.771308 -7.27688,-2.857659 -0.586945,-0.697544 -0.624402,-1.528657 -0.133235,-2.956257 0.624405,-1.814865 2.545491,-6.005733 4.374399,-9.54279 1.633599,-3.159337 1.832303,-3.462924 2.23195,-3.410056 0.241287,0.03192 1.264066,0.07299 2.272842,0.09126 1.79286,0.03248 1.866804,0.01718 3.28556,-0.679811 1.80269,-0.88561 4.040009,-3.037569 5.14159,-4.945421 1.545992,-2.677537 2.274942,-5.788527 1.890907,-8.069944 -1.041917,-6.189657 -7.213691,-7.410696 -12.260446,-2.425636 -1.617541,1.597767 -2.729944,3.381286 -3.50679,5.62245 -0.47537,1.37142 -0.552532,1.86094 -0.566734,3.595412 -0.01868,2.280926 0.241225,3.223064 1.303069,4.723601 l 0.630119,0.890448 -1.966375,3.216502 c -5.890143,9.634814 -6.954028,11.588868 -7.488294,13.753861 -0.531234,2.152709 0.253993,3.469316 3.244157,5.439549 4.510253,2.971827 11.669548,4.940981 19.867292,5.464472 1.556078,0.09937 3.307945,0.306277 3.893025,0.459798 3.61405,0.948291 5.78811,3.307079 6.90003,7.486327 0.46196,1.7363 0.55121,5.93911 0.18025,8.4877 -1.92235,13.20699 -10.268027,28.01283 -22.076314,39.16498 l -1.702658,1.60805 -1.126574,-0.61428 C 72.580371,146.05916 62.052436,134.67148 56.559051,122.37929 51.559338,111.19175 50.019779,98.91678 52.096759,86.801249 54.2061,74.496952 60.360084,62.808804 69.354512,54.02392 80.366155,43.268816 94.825428,37.33526 110.1245,37.293409 c 10.51976,-0.02878 20.22315,2.621263 29.34531,8.014334 4.56958,2.701563 11.09193,7.881754 10.81909,8.592761 -0.0553,0.144225 0.056,0.616394 0.24752,1.049265 l 0.34815,0.787036 -0.54607,0.51904 c -0.76996,0.731839 -1.06108,1.375042 -1.06108,2.34435 0,0.995178 0.3291,1.700276 1.09401,2.343899 1.03703,0.872607 2.67227,0.813837 3.77619,-0.135715 0.49051,-0.421917 0.49909,-0.422614 1.0521,-0.08538 0.30695,0.187179 0.89855,0.340312 1.31619,0.340687 0.69674,6.27e-4 0.80882,0.07143 1.37366,0.867705 3.68755,5.19849 6.79356,11.637987 8.61628,17.863562 1.92435,6.572728 2.60213,11.914969 2.42882,19.143955 -0.1443,6.018722 -0.73952,10.002882 -2.34141,15.672472 -6.23672,22.07369 -24.56109,40.10447 -45.44791,44.71977 -4.30361,0.95096 -10.27397,1.37596 -14.39767,1.02491 z m 7.71479,-81.309223 c 1.29631,-0.642386 2.73966,-2.134123 3.34568,-3.45785 1.97596,-4.316064 -0.55494,-9.298034 -5.14649,-10.13064 -2.88629,-0.523385 -6.0531,1.173526 -7.30882,3.916373 -1.84966,4.040181 -0.0623,8.556682 3.96471,10.018309 0.57736,0.209556 1.27436,0.276166 2.44973,0.23411 1.36662,-0.0489 1.8197,-0.146451 2.69519,-0.580302 z"
       id="path34" /><path
       style="display:inline;fill:#01214e"
       d="m 155.04239,52.036617 -0.53235,-0.434788 1.34369,-3.345733 c 0.78593,-1.956919 2.07506,-3.530546 2.32221,-3.756429 1.23873,-1.132161 3.57522,0.246229 2.90492,1.811913 -0.23302,0.5443 -5.04457,6.026858 -5.37201,6.121192 -0.0738,0.02125 -0.37366,-0.157021 -0.66646,-0.396155 z"
       id="path18"
       sodipodi:nodetypes="scsssss" /><path
       style="display:inline;fill:#01214e"
       d="m 156.88241,54.393944 -0.30427,-0.464363 1.78916,-1.690535 c 3.70847,-3.504068 3.95307,-3.681748 4.80939,-3.493668 1.15161,0.252935 1.63472,1.675454 0.85854,2.527986 -0.38763,0.425772 -5.7276,4.11411 -6.13096,4.11411 -0.10364,0 -0.85452,-0.73813 -1.02186,-0.99353 z"
       id="path17"
       sodipodi:nodetypes="scsssss" /><path
       style="display:inline;fill:#01214e"
       d="m 159.15196,57.203974 c -0.11021,-0.316157 -0.20039,-0.593679 -0.20039,-0.616714 0,-0.02304 0.26695,-0.148153 0.59323,-0.278039 0.32627,-0.129886 1.75354,-0.714824 3.1717,-1.299862 1.41816,-0.585039 2.75923,-1.063707 2.98017,-1.063707 0.55991,0 1.99797,0.956513 1.99797,1.54577 0,1.002448 -1.10299,1.799875 -4.37958,2.329237 -3.89687,0.629574 -3.91324,0.100063 -4.1631,-0.616687 z"
       id="path16"
       sodipodi:nodetypes="sssssssss" /><path
       style="display:inline;fill:#01214e"
       d="m 153.56399,57.742941 c -2.34151,-2.657503 -2.21284,-2.286219 -1.25054,-3.608709 l 0.83014,-1.140851 0.64346,0.613034 c 0.3539,0.337168 1.29107,1.378422 2.0826,2.313898 1.83193,2.165086 1.88326,2.534536 0.44652,3.214219 -0.54594,0.258271 -1.01955,0.469584 -1.05246,0.469584 -0.0329,0 -0.79779,-0.837529 -1.69972,-1.861175 z"
       id="path15" /><path
       style="display:inline;fill:#01214e"
       d="m 87.855707,67.464805 c -1.487619,-0.362159 -2.570768,-1.448535 -3.010643,-3.019614 -0.343685,-1.227523 -0.147183,-3.731004 0.412099,-5.250228 1.697618,-4.611384 5.824683,-7.770078 9.024466,-6.906972 4.145701,1.118258 3.840991,8.359625 -0.538212,12.790455 -1.220544,1.234934 -2.373343,1.957121 -3.679096,2.304822 -1.015045,0.270291 -1.378209,0.283698 -2.208614,0.08154 z"
       id="path14" /><path
       style="display:inline;fill:#01214e"
       d="m 103.91844,115.07943 c -9.150579,-0.60095 -17.87472,-2.04651 -26.467005,-4.38548 -7.726626,-2.10332 -16.878625,-5.56019 -23.729043,-8.96287 l -2.372904,-1.17865 -0.05647,-2.357944 c -0.153638,-6.415114 1.089355,-14.21918 3.282826,-20.611057 3.392094,-9.884723 9.421531,-18.949974 17.013949,-25.580456 9.678881,-8.452595 21.120858,-13.322425 34.059917,-14.49627 2.92868,-0.265693 9.0347,-0.130104 11.8673,0.263522 11.94458,1.659855 22.3413,6.488868 31.44098,14.603528 0.95856,0.854794 1.23209,1.210648 1.23209,1.60291 0,0.277308 0.13471,0.786694 0.29936,1.13197 l 0.29937,0.627773 -0.66513,0.684856 c -2.62527,2.703157 0.58938,6.665827 3.77081,4.648229 l 0.85538,-0.542467 0.64354,0.379699 c 0.46925,0.276864 0.80927,0.348608 1.25546,0.264901 l 0.61192,-0.114797 1.65153,2.513571 c 5.21402,7.935575 8.55056,17.196321 9.61932,26.698942 0.3597,3.198254 0.5274,7.182692 0.37786,8.977887 -0.11732,1.408413 -0.16289,1.539313 -0.61593,1.769373 -13.40169,6.80545 -27.3342,11.21672 -41.55874,13.15822 -3.81589,0.52083 -3.74189,0.51523 -3.74189,0.28321 0,-0.11398 0.25274,-0.89974 0.56163,-1.74613 2.97165,-8.14251 2.5246,-16.728489 -1.11045,-21.327165 -0.41827,-0.529158 -0.73285,-0.983754 -0.69906,-1.010215 0.0338,-0.02646 0.88282,-0.526004 1.88674,-1.110097 7.14435,-4.15666 12.8055,-9.360054 16.97829,-15.605413 2.87857,-4.308323 4.9792,-9.583366 4.80045,-12.054781 l -0.0575,-0.795549 -1.53359,1.816255 c -2.09227,2.477915 -7.7081,8.052158 -10.11606,10.041152 -10.20821,8.432068 -22.08873,13.711967 -34.530713,15.346016 -3.160755,0.415113 -9.004607,0.420696 -11.410364,0.0109 -3.794333,-0.646322 -7.154543,-1.970301 -7.862497,-3.097955 -0.525199,-0.836554 -0.364927,-1.706338 0.860771,-4.671333 0.938597,-2.27049 4.317807,-9.175977 5.156734,-10.537892 l 0.348872,-0.566361 1.142795,0.279183 c 3.815027,0.932005 8.699527,-2.474415 10.816369,-7.543269 1.677059,-4.015778 1.26469,-8.149837 -1.023312,-10.258844 -1.382386,-1.274239 -1.795963,-1.42277 -3.961628,-1.42277 -1.850408,0 -1.964045,0.0237 -3.291478,0.686617 -3.094097,1.545172 -5.357295,4.191103 -6.631874,7.7534 -0.525421,1.46849 -0.572186,1.785675 -0.572186,3.880832 0,2.118364 0.03666,2.360011 0.51228,3.376826 0.281754,0.602352 0.71818,1.310452 0.969835,1.573554 l 0.457555,0.478368 -1.771717,2.898458 c -4.679913,7.656149 -5.424275,8.919134 -6.346923,10.769057 -1.621708,3.251548 -1.890105,4.604166 -1.197493,6.034911 0.66473,1.37315 3.13037,3.18234 6.179416,4.534214 5.08877,2.25624 10.47323,3.455603 17.168518,3.824206 2.38786,0.131462 3.89896,0.434064 5.3156,1.064461 2.76753,1.231537 4.60897,4.036364 5.28899,8.056034 0.27083,1.6009 0.11455,6.36686 -0.27869,8.49862 -0.1574,0.85333 -0.2863,1.57205 -0.28644,1.59715 -4.3e-4,0.0786 -2.554,-10e-4 -4.83733,-0.15104 z m 10.45452,-35.941952 c 2.95154,-1.379263 4.74699,-4.894754 4.08244,-7.993415 -0.48455,-2.259394 -1.97676,-4.193479 -4.00624,-5.19259 -1.09948,-0.541271 -1.36923,-0.597628 -2.86057,-0.597628 -1.47055,0 -1.77718,0.06185 -2.86761,0.578446 -1.50301,0.71205 -2.7008,1.921144 -3.48872,3.521644 -0.54445,1.105931 -0.58369,1.314737 -0.58369,3.106051 0,1.776224 0.0428,2.009497 0.57054,3.106866 0.3138,0.652549 0.862,1.520771 1.21821,1.929383 0.69646,0.798897 2.37819,1.789433 3.52614,2.076892 1.19507,0.299257 3.12438,0.06489 4.4095,-0.535649 z"
       id="path13" /><path
       style="display:inline;fill:#01214e"
       d="M 75.885469,156.47168 C 66.433558,150.36318 58.841668,142.50957 53.006864,132.80437 44.25529,118.24763 41.10137,100.69261 44.332063,84.519611 46.67774,72.777043 51.663574,62.280261 59.191701,53.235303 c 8.838566,-10.619434 21.60256,-18.613499 35.14386,-22.010531 13.086429,-3.28292 26.873739,-2.428761 39.244189,2.431279 6.50411,2.555304 14.84163,7.541383 18.73483,11.203968 l 0.57298,0.539044 -0.82287,1.787591 -0.82287,1.787591 -2.21428,-1.817184 C 140.22454,39.932753 129.9728,35.396 118.53854,33.664605 115.37291,33.18526 108.96291,33.00993 105.44558,33.306477 87.324042,34.834311 70.928258,44.001607 59.817819,58.818107 53.048942,67.84485 48.921116,78.354626 47.393322,90.451871 c -0.374071,2.961939 -0.32061,11.705369 0.0901,14.736399 1.438056,10.61272 5.098177,20.16032 11.144536,29.07107 5.113937,7.5366 12.983795,15.07773 20.775707,19.9079 0.833721,0.51682 1.711005,1.06276 1.949521,1.21321 0.426325,0.26891 0.401613,0.29008 -1.460249,1.251 -1.041652,0.5376 -1.976052,0.97583 -2.076444,0.97385 -0.100392,-0.002 -0.969355,-0.51212 -1.931028,-1.13362 z"
       id="path12" /><path
       style="display:inline;fill:#01214e"
       d="m 134.5927,158.82391 c 20.62353,-10.35441 34.79452,-30.08146 37.96991,-52.8569 0.38919,-2.79146 0.55355,-11.213333 0.27785,-14.237421 -0.92453,-10.141054 -3.93255,-19.472927 -9.02499,-27.998511 -0.77298,-1.29409 -1.38272,-2.369606 -1.35498,-2.390036 0.13776,-0.10146 4.03418,-0.44409 4.16074,-0.365873 0.2614,0.161554 2.32589,3.957819 3.52519,6.482268 4.67266,9.835586 6.73582,18.970059 6.7603,29.930616 0.0134,6.014347 -0.35299,9.430977 -1.62479,15.150077 -3.39268,15.25634 -9.90489,25.34408 -19.28739,34.76213 -3.27526,3.28767 -3.34882,3.2785 -8.22072,6.32218 -6.65661,4.15867 -9.1352,4.59768 -13.07477,5.12616 -0.55208,0.0741 -0.46228,0.19893 -0.10635,0.0753 z"
       id="path11"
       sodipodi:nodetypes="cssssssssssscc" /><g
       id="g1"
       transform="matrix(0.92403836,0,0,0.92403836,8.3096834,13.792978)"><text
         xml:space="preserve"
         transform="matrix(1.5325841,0,0,1.5325841,-63.322152,93.679587)"
         id="text2"
         style="font-style:normal;font-variant:normal;font-weight:normal;font-stretch:normal;font-size:12px;line-height:0.67;font-family:'Russo One';-inkscape-font-specification:'Russo One, Normal';font-variant-ligatures:normal;font-variant-caps:normal;font-variant-numeric:normal;font-variant-east-asian:normal;text-align:start;text-decoration-color:#000000;letter-spacing:0.9595px;writing-mode:lr-tb;direction:ltr;white-space:pre;shape-inside:url(#rect2);display:inline;fill:#01214e;fill-opacity:1;stroke:none;stroke-opacity:1;-inkscape-stroke:none"
         inkscape:label="Badminton"><tspan
           x="71.666016"
           y="55.575561"
           id="tspan3">BADMINTON</tspan></text><g
         id="g49"
         transform="matrix(0.9001394,0,0,0.9001394,-4.6240205,15.756651)"
         style="display:inline"><text
           xml:space="preserve"
           transform="matrix(1.0221977,0,0,1.0221977,15.571025,137.46102)"
           id="text2-2"
           style="font-style:normal;font-variant:normal;font-weight:normal;font-stretch:normal;font-size:12px;line-height:0.67;font-family:'Russo One';-inkscape-font-specification:'Russo One, Normal';font-variant-ligatures:normal;font-variant-caps:normal;font-variant-numeric:normal;font-variant-east-asian:normal;text-align:start;text-decoration-color:#000000;letter-spacing:7.76513px;writing-mode:lr-tb;direction:ltr;white-space:pre;shape-inside:url(#rect2-4);display:inline;fill:#418c37;fill-opacity:1;stroke:none;stroke-opacity:1;-inkscape-stroke:none"
           inkscape:label="Motus"><tspan
             x="71.666016"
             y="55.575561"
             id="tspan4">MOTUS</tspan></text><path
           style="fill:#418c37;fill-opacity:1;stroke:none;stroke-width:0.125041;stroke-opacity:1;-inkscape-stroke:none"
           d="M 82.282488,190.79024 56.71022,189.97699 82.282488,189.16375 Z"
           id="path43-2"
           inkscape:label="Arrow left" /><path
           style="fill:#418c37;fill-opacity:1;stroke:none;stroke-width:0.125041;stroke-opacity:1;-inkscape-stroke:none"
           d="m 172.50881,190.79024 25.57241,-0.81325 -25.57241,-0.81324 z"
           id="path43-2-5"
           inkscape:label="Arrow right" /></g></g></g></svg>
