<?xml version="1.0" encoding="UTF-8" standalone="no"?>
<!-- Created with Inkscape (http://www.inkscape.org/) -->

<svg
   width="150mm"
   height="150mm"
   viewBox="0 0 150 150"
   version="1.1"
   id="svg1"
   xml:space="preserve"
   inkscape:version="1.4.2 (f4327f4, 2025-05-13)"
   sodipodi:docname="logo_badminton_motus_v20_icon.svg"
   inkscape:export-filename="logo_badminton_motus_v20_icon.png"
   inkscape:export-xdpi="96"
   inkscape:export-ydpi="96"
   xmlns:inkscape="http://www.inkscape.org/namespaces/inkscape"
   xmlns:sodipodi="http://sodipodi.sourceforge.net/DTD/sodipodi-0.dtd"
   xmlns="http://www.w3.org/2000/svg"
   xmlns:svg="http://www.w3.org/2000/svg"><sodipodi:namedview
     id="namedview1"
     pagecolor="#ffffff"
     bordercolor="#999999"
     borderopacity="1"
     inkscape:showpageshadow="2"
     inkscape:pageopacity="0"
     inkscape:pagecheckerboard="0"
     inkscape:deskcolor="#d1d1d1"
     inkscape:document-units="mm"
     inkscape:zoom="0.52203984"
     inkscape:cx="397.47924"
     inkscape:cy="448.24165"
     inkscape:window-width="1440"
     inkscape:window-height="830"
     inkscape:window-x="-6"
     inkscape:window-y="-6"
     inkscape:window-maximized="1"
     inkscape:current-layer="layer1"
     inkscape:export-bgcolor="#ffffffff" /><defs
     id="defs1" /><g
     inkscape:label="Livello 1"
     inkscape:groupmode="layer"
     id="layer1"><g
       id="g1"><path
         style="fill:#458537"
         d="m 71.611188,128.56635 c -3.618278,-0.32308 -8.185488,-1.41596 -11.536374,-2.76054 -1.759492,-0.70602 -3.596001,-1.57033 -3.593939,-1.69142 9.4e-4,-0.0552 0.462307,-0.39718 1.02526,-0.76001 6.593834,-4.24975 13.496737,-10.56598 18.330551,-16.77266 5.01395,-6.43797 8.371183,-13.273449 9.371187,-19.080157 0.377319,-2.190973 0.29415,-4.957926 -0.206741,-6.878041 -0.541275,-2.074927 -1.422532,-3.752105 -2.680738,-5.101888 l -0.561945,-0.602845 0.887182,-0.435892 c 8.842586,-4.344559 16.106366,-12.635148 18.221349,-20.797114 0.22362,-0.863 0.46288,-3.090044 0.31444,-2.926934 -0.049,0.05386 -0.49234,0.633703 -0.98517,1.288547 -2.358067,3.133242 -6.227684,7.169346 -9.179722,9.574669 -3.725444,3.035496 -7.985462,5.718267 -11.84934,7.462192 -4.092867,1.847277 -10.725752,3.732093 -15.213542,4.323115 -4.822714,0.635131 -10.366116,0.289472 -13.803383,-0.860709 -2.015984,-0.674591 -2.72452,-1.112526 -3.010195,-1.860556 -0.225128,-0.589489 -0.222905,-0.626888 0.117047,-1.969376 0.478887,-1.891145 1.348983,-4.068876 2.764794,-6.919904 0.959211,-1.931568 1.245565,-2.404262 1.415536,-2.336672 1.735964,0.690312 4.181513,0.113057 6.129401,-1.446803 2.816439,-2.255392 4.757073,-6.802698 4.225668,-9.901613 -0.430391,-2.50985 -1.906016,-4.01097 -4.096945,-4.16773 -4.242878,-0.303576 -8.937964,4.717911 -9.365016,10.016071 -0.129853,1.610997 0.352995,3.241032 1.269143,4.284466 l 0.394946,0.44982 -1.012025,1.83589 c -1.936549,3.513048 -4.229769,8.187887 -4.663754,9.507285 -0.765287,2.326623 -0.509322,3.151743 1.388959,4.477393 3.789725,2.646524 9.987887,4.357856 17.107586,4.723455 3.101399,0.159258 4.106258,0.351818 5.549638,1.063472 5.227365,2.577336 5.54968,10.000806 0.893063,20.568779 -2.340306,5.31121 -6.205156,11.28665 -10.384179,16.05496 -1.353515,1.54438 -3.517208,3.76529 -4.537543,4.65754 l -0.753717,0.65911 -2.288991,-1.47386 C 47.057503,118.04077 44.390017,115.9454 41.531505,113.1 35.698268,107.29352 31.359999,99.918459 28.970568,91.746414 27.754362,87.58689 27.236016,84.094155 27.14533,79.447538 27.023451,73.202626 27.72052,68.411893 29.553738,62.895313 34.124036,49.142222 44.111504,38.452811 57.283861,33.216248 c 5.940422,-2.361566 11.302163,-3.387647 17.649993,-3.377696 4.424082,0.0069 8.015934,0.464684 12.255316,1.561826 6.634717,1.717048 13.43213,5.237016 18.53557,9.598448 l 1.55443,1.328423 0.006,0.825177 c 0.003,0.453848 0.0832,1.003772 0.17762,1.222053 0.1651,0.381734 0.14821,0.422676 -0.44259,1.073181 -1.21974,1.343002 -1.24797,3.046599 -0.07,4.226327 1.04449,1.04607 2.59993,1.128886 3.90638,0.207986 0.71429,-0.5035 0.74309,-0.511475 1.12448,-0.311377 0.36238,0.190128 1.18614,0.263001 1.64417,0.145449 0.35747,-0.09174 2.60896,3.489607 4.21018,6.696976 4.70909,9.432654 6.2537,20.389983 4.31715,30.625521 -0.93978,4.967166 -2.26208,8.888997 -4.50319,13.356108 -3.46597,6.90856 -8.46617,12.94422 -15.10533,18.23342 -9.109456,7.25721 -20.385486,10.88004 -30.932782,9.93828 z m 2.934567,-61.913063 c 2.221966,-0.409394 4.036483,-2.152403 4.547278,-4.368074 0.80464,-3.490284 -1.823364,-6.86438 -5.346503,-6.86438 -2.29592,0 -4.144754,1.180861 -5.140911,3.283531 -0.394836,0.833411 -0.41864,0.970553 -0.41864,2.411872 0,1.501358 0.0088,1.545991 0.499892,2.539679 0.763371,1.544576 2.106023,2.590849 3.799587,2.96086 0.943841,0.206211 1.121195,0.209356 2.059297,0.03651 z M 95.644604,128.0051 c 0.04029,-0.0443 0.427241,-0.26942 0.859896,-0.5002 3.84932,-2.05331 10.15178,-7.13298 14.94185,-12.04289 8.19584,-8.40086 13.3735,-18.965786 14.80503,-30.209405 0.87048,-6.836875 0.48924,-13.643443 -1.11937,-19.985441 -1.28276,-5.057319 -3.22332,-9.681594 -5.99176,-14.278102 l -1.1155,-1.852083 0.41497,-0.03524 c 0.55532,-0.04715 2.95356,-0.412429 3.33287,-0.507633 0.26748,-0.06713 0.39465,0.08019 1.11518,1.291881 1.8396,3.093593 3.85417,7.622604 5.02175,11.289529 3.73367,11.726038 3.44905,24.889935 -0.78621,36.362847 -2.05125,5.556642 -4.53186,10.141842 -7.98948,14.767882 -3.26833,4.37277 -8.44972,9.39752 -12.31658,11.94423 -2.24259,1.47697 -5.51407,2.89025 -8.014209,3.46215 -0.919566,0.21035 -3.282686,0.42917 -3.158437,0.29247 z m -51.455135,-3.05615 c -5.851036,-3.88478 -11.356748,-9.47211 -15.393225,-15.62142 -4.884191,-7.44074 -7.800046,-15.424167 -8.913882,-24.405655 -0.29846,-2.406653 -0.346055,-10.328412 -0.07591,-12.633854 1.222622,-10.433792 4.809949,-19.574552 10.85094,-27.648959 3.378507,-4.515723 8.082777,-9.093 12.658749,-12.317022 7.612281,-5.363269 16.351178,-8.703966 25.73073,-9.836316 5.981154,-0.722078 12.940559,-0.239906 19.125263,1.325066 8.037531,2.033808 15.006722,5.541618 21.716902,10.930796 0.16871,0.135499 0.12377,0.341264 -0.33227,1.521355 -0.29005,0.750564 -0.59855,1.588462 -0.68555,1.861995 l -0.15818,0.497333 -0.36374,-0.298895 C 104.35817,35.043758 101.89673,33.418377 97.858323,31.395804 93.572521,29.249327 89.691736,27.920902 84.988021,26.990194 73.759557,24.768455 62.339863,26.281318 52.245833,31.327828 39.90471,37.497771 30.522131,48.247623 26.136439,61.242006 23.970251,67.660211 23.129511,73.70762 23.419891,80.78201 c 0.165421,4.030077 0.528979,6.583413 1.465351,10.291428 1.561947,6.185286 3.767249,11.160312 7.330182,16.536462 4.183183,6.31204 9.123705,11.13431 15.995513,15.61264 1.091406,0.71127 2.032864,1.33598 2.092128,1.38825 0.137676,0.12142 -3.002403,1.41747 -3.690386,1.52319 -0.486877,0.0748 -0.634267,0.003 -2.42321,-1.18503 z m 7.758439,-66.798412 c -0.807754,-0.301335 -1.377356,-0.826598 -1.775401,-1.6372 -0.475701,-0.968742 -0.583988,-2.701239 -0.251163,-4.018352 0.916969,-3.628783 4.047383,-6.900465 6.788151,-7.094483 1.618522,-0.114574 2.629781,0.418655 3.265225,1.721728 1.214062,2.489616 0.146482,6.340895 -2.503366,9.030856 -1.384381,1.405338 -2.635235,2.061636 -4.067388,2.134077 -0.611589,0.03093 -1.139739,-0.01862 -1.456058,-0.136626 z M 111.70944,48.111649 c -0.1956,-0.236433 -1.00454,-1.090136 -1.79764,-1.897117 -0.79311,-0.806981 -1.44201,-1.542706 -1.44201,-1.634944 0,-0.229908 1.20788,-1.857954 1.38151,-1.862071 0.0769,-0.0018 0.95991,0.846497 1.96221,1.885157 1.38206,1.432189 1.85562,2.011562 1.96,2.397919 0.0757,0.280196 0.11883,0.52312 0.0959,0.539831 -0.023,0.01671 -0.43834,0.248795 -0.92303,0.515743 l -0.88127,0.485361 z m 3.9041,-1.195656 c 0,-0.09376 -0.11816,-0.402235 -0.26258,-0.685508 -0.14442,-0.283272 -0.24721,-0.530412 -0.22843,-0.549198 0.0188,-0.01879 1.51968,-0.752105 3.33531,-1.629597 3.87025,-1.870482 4.19542,-1.934776 5.19242,-1.026682 0.59826,0.544908 0.26137,1.814209 -0.65835,2.480448 -0.591,0.428117 -1.32098,0.611486 -4.68669,1.177285 -2.76085,0.464119 -2.69168,0.458124 -2.69168,0.233252 z m -1.83657,-2.922383 c -0.22681,-0.234012 -0.41239,-0.477667 -0.41239,-0.541455 0,-0.250085 5.86759,-6.261597 6.25572,-6.409165 0.8526,-0.324159 2.14517,0.554274 2.48511,1.688884 0.29563,0.986715 0.2961,0.986285 -3.34543,3.055214 -1.83968,1.045211 -3.62067,2.064997 -3.95775,2.266191 l -0.61287,0.365808 z m -2.42983,-2.244978 c -0.34562,-0.309908 -0.62839,-0.611886 -0.62839,-0.671063 0,-0.187722 1.83761,-4.53534 2.5279,-5.980783 0.80427,-1.684108 1.35364,-2.334277 2.16413,-2.561199 0.54193,-0.151731 0.6442,-0.139352 1.22369,0.14812 0.81654,0.405066 1.22803,1.017671 1.22803,1.828212 0,0.584463 -0.07,0.701885 -1.38755,2.328613 -0.76316,0.942212 -2.05796,2.556721 -2.87735,3.587797 -0.81938,1.031076 -1.51955,1.876729 -1.55593,1.879228 -0.0364,0.0025 -0.34892,-0.249017 -0.69453,-0.558925 z"
         id="path2" /><path
         style="fill:#022454"
         d="m 96.770573,127.40322 c 3.056265,-1.61625 6.663887,-4.40062 12.086017,-9.32803 8.02156,-7.28965 13.60652,-16.40419 16.21254,-26.458513 1.08373,-4.181182 1.50991,-7.381409 1.61601,-12.135061 0.13974,-6.26004 -0.52404,-11.262456 -2.23594,-16.850887 -1.14999,-3.754081 -3.09048,-8.07119 -5.18574,-11.536983 -0.62501,-1.033831 -1.13638,-1.911917 -1.13638,-1.951302 0,-0.03939 0.28986,-0.07161 0.64413,-0.07161 0.60984,0 2.68434,-0.311776 3.07695,-0.462431 0.34393,-0.131981 2.78152,4.33029 4.19835,7.685552 2.46168,5.82961 3.80583,11.402052 4.26936,17.699459 0.18515,2.51553 0.0675,8.561945 -0.21009,10.796171 -1.25807,10.125914 -4.95993,19.414406 -10.88326,27.307666 -2.81099,3.74583 -6.9141,7.94841 -10.36588,10.61716 -3.96951,3.06904 -8.38909,4.93704 -12.416796,5.24814 l -0.851303,0.0658 z m -52.607347,-2.55386 c -3.050483,-2.0364 -5.053867,-3.70163 -7.997355,-6.64748 -4.661013,-4.66475 -7.865734,-9.08851 -10.694142,-14.76208 -1.245906,-2.49919 -1.715463,-3.58771 -2.607398,-6.044416 -4.357015,-12.000768 -4.369277,-26.131532 -0.03308,-38.117658 4.172028,-11.53232 11.843927,-21.252438 22.074547,-27.96794 7.474408,-4.906292 15.361041,-7.727672 24.753451,-8.855349 0.90224,-0.108325 2.941691,-0.170615 5.47304,-0.167161 4.238185,0.0058 6.138957,0.172695 9.855729,0.865463 8.575518,1.598388 17.030629,5.441803 23.902439,10.865262 l 1.14827,0.906253 -0.36612,0.888654 c -0.20136,0.48876 -0.4997,1.29049 -0.66296,1.781623 -0.16327,0.491133 -0.3253,0.892969 -0.36008,0.892969 -0.0348,0 -0.55082,-0.406036 -1.14676,-0.902302 -7.48863,-6.236072 -16.661549,-10.100923 -26.94656,-11.353463 -2.377648,-0.289557 -8.418401,-0.326798 -10.715625,-0.06606 -12.542457,1.42358 -23.449545,6.802965 -32.147449,15.855149 -5.335443,5.552764 -9.485429,12.556557 -11.898523,20.08074 -2.364794,7.37358 -3.072091,15.456488 -2.047973,23.404003 0.800986,6.215937 3.151946,13.223571 6.262324,18.666454 2.323396,4.06573 5.122133,7.79387 8.27902,11.02832 3.169571,3.24744 5.820924,5.41422 9.850919,8.05052 1.058242,0.69226 1.971547,1.30181 2.029566,1.35455 0.09903,0.09 -2.879795,1.345 -3.620918,1.5255 -0.280292,0.0683 -0.701489,-0.15812 -2.384365,-1.28155 z M 67.327083,95.034374 C 56.258612,94.224508 46.138167,92.112775 35.62475,88.41936 33.47632,87.664606 27.79454,85.491318 27.654586,85.370762 27.511004,85.247082 27.23587,82.014863 27.160305,79.564063 26.868331,70.094384 29.415654,60.650442 34.49319,52.378125 c 3.397853,-5.535778 8.26934,-10.607351 13.737325,-14.301557 3.728123,-2.518743 8.057501,-4.622973 12.349693,-6.002386 8.116131,-2.608339 17.17293,-2.910351 25.664584,-0.855822 7.561395,1.829455 15.523588,5.989313 20.340378,10.626857 0.62502,0.601756 0.68708,0.711814 0.61576,1.091984 -0.0453,0.241424 0.0144,0.745071 0.1391,1.17411 l 0.21842,0.75133 -0.47148,0.457897 c -0.70797,0.687566 -0.99843,1.355253 -0.99843,2.295087 0,2.664187 3.10395,3.930296 5.11713,2.087293 0.28049,-0.256777 0.30525,-0.257698 0.89299,-0.03324 0.41119,0.157036 0.78743,0.205787 1.17657,0.15245 l 0.57206,-0.07841 0.71033,1.085691 c 4.42104,6.757309 7.04572,13.827064 8.03244,21.635968 0.30873,2.443226 0.31095,9.297634 0.004,11.523315 -0.14562,1.054985 -0.27356,1.56142 -0.42186,1.669861 -0.11707,0.08561 -1.14947,0.528755 -2.29422,0.984778 -11.73889,4.676312 -21.893784,7.13731 -34.116277,8.267945 -2.77894,0.257064 -2.877899,0.255825 -2.751214,-0.03445 0.482463,-1.105497 1.447541,-3.825811 1.718699,-4.844586 1.052441,-3.954159 1.089107,-7.063907 0.119526,-10.137446 -0.497335,-1.576537 -1.111418,-2.732846 -2.089479,-3.93446 l -0.841738,-1.03413 1.39208,-0.723778 c 1.651589,-0.858704 4.360441,-2.616446 6.110475,-3.965017 1.848918,-1.42477 5.024397,-4.670621 6.471084,-6.61449 2.777425,-3.731941 4.581244,-7.528286 5.235154,-11.018002 0.1188,-0.63397 0.19751,-1.366578 0.17493,-1.628018 l -0.0411,-0.475345 -0.55854,0.794278 c -1.928659,2.742697 -6.184361,7.348391 -8.834172,9.560703 -5.633341,4.703244 -11.088763,7.842162 -17.204764,9.899207 -8.193694,2.755853 -15.751399,3.578243 -21.937397,2.387112 -2.706926,-0.521226 -5.091687,-1.502833 -5.471254,-2.25206 -0.53426,-1.054571 0.432014,-4.220548 2.696758,-8.835878 1.232262,-2.511231 1.263059,-2.558452 1.61043,-2.469298 0.194778,0.04999 0.809324,0.121654 1.365657,0.159251 1.982694,0.13399 3.517576,-0.576855 5.472584,-2.534502 1.500205,-1.502229 2.403992,-2.970213 3.056494,-4.964532 0.326768,-0.998739 0.368546,-1.324183 0.373619,-2.910417 0.0051,-1.584903 -0.03001,-1.874909 -0.311598,-2.576345 -0.35868,-0.893464 -1.388448,-2.073379 -2.147499,-2.460617 -0.70028,-0.357256 -1.884647,-0.510519 -2.868858,-0.371243 -2.629065,0.37204 -5.394774,2.673125 -6.960312,5.791019 -0.821575,1.636232 -1.141677,2.765613 -1.227085,4.329382 -0.08784,1.608287 0.209898,2.804791 0.954983,3.837741 0.255624,0.354384 0.496098,0.707056 0.534386,0.783715 0.03829,0.07666 -0.414368,1.029159 -1.005904,2.116667 -2.989086,5.495274 -4.381159,8.434947 -4.811521,10.160603 -0.415907,1.667694 0.02659,2.519003 1.980945,3.811131 3.947732,2.610052 10.029799,4.206743 17.523773,4.60042 1.383009,0.07265 2.788403,0.219283 3.23149,0.337153 1.816757,0.483297 3.410935,1.58559 4.392395,3.037117 0.248554,0.367599 0.636968,1.233909 0.863142,1.925133 0.751784,2.297573 0.66594,5.358501 -0.254144,9.061979 l -0.361529,1.455209 -0.79375,0.01948 c -0.436562,0.01072 -1.895078,-0.0611 -3.241146,-0.159589 z m 7.892641,-28.477591 c 1.572846,-0.490981 2.723515,-1.507317 3.471425,-3.066158 0.461409,-0.961696 0.476039,-1.038942 0.476039,-2.513542 0,-1.469441 -0.01546,-1.551967 -0.453019,-2.418495 -1.140842,-2.259278 -3.546573,-3.560025 -5.839681,-3.157439 -2.488179,0.436834 -4.399122,2.391774 -4.786915,4.897128 -0.624976,4.037686 3.277203,7.461872 7.132151,6.258506 z M 52.244976,58.215856 c -1.032217,-0.339549 -1.686043,-0.932198 -2.125956,-1.92703 -1.040211,-2.352369 0.137172,-6.137429 2.722125,-8.751108 1.170973,-1.183986 2.225558,-1.796145 3.545369,-2.057995 2.759368,-0.547457 4.543593,1.845507 3.917102,5.253532 -0.573636,3.120507 -2.953896,6.241129 -5.530888,7.251231 -0.674115,0.264232 -2.046094,0.389813 -2.527752,0.23137 z m 58.026544,-11.729539 -1.8305,-1.923057 0.33237,-0.491266 c 0.1828,-0.270196 0.50402,-0.692257 0.71382,-0.937915 l 0.38146,-0.446649 1.46848,1.504983 c 1.99957,2.04926 2.29513,2.412472 2.37579,2.919591 0.0668,0.419982 0.0381,0.454667 -0.71841,0.867423 -0.4334,0.236471 -0.81151,0.429948 -0.84025,0.429948 -0.0288,0 -0.87599,-0.865376 -1.88276,-1.923058 z m 5.39042,0.358362 c -0.0372,-0.121683 -0.15522,-0.422089 -0.26216,-0.667568 -0.10695,-0.24548 -0.17563,-0.465149 -0.15263,-0.488154 0.22091,-0.220907 6.7263,-3.231992 6.97792,-3.229802 0.52997,0.0046 1.44404,0.482588 1.60704,0.840336 0.31996,0.702248 -0.29518,1.932433 -1.19367,2.387165 -0.43811,0.221728 -1.78779,0.51037 -4.37906,0.936508 -1.12779,0.185466 -2.15835,0.360959 -2.29013,0.389984 -0.14178,0.03123 -0.26724,-0.03755 -0.30731,-0.168469 z m -1.94647,-2.984696 -0.34197,-0.448351 1.53552,-1.635243 c 0.84454,-0.899384 2.22664,-2.339135 3.07133,-3.199447 l 1.5358,-1.564204 0.62281,0.05597 c 1.15043,0.103381 2.01469,1.105838 1.93128,2.240098 l -0.0405,0.551372 -1.98438,1.141797 c -2.92651,1.683896 -5.82824,3.306361 -5.91332,3.306361 -0.041,0 -0.22843,-0.201758 -0.41652,-0.44835 z m -2.35689,-2.206524 -0.61695,-0.528346 0.3005,-0.756567 c 1.22245,-3.077793 2.58724,-6.073161 3.11986,-6.847296 0.92111,-1.338795 2.67284,-1.301114 3.39956,0.07313 0.48587,0.9188 0.41228,1.296221 -0.46873,2.403987 -1.88037,2.364351 -4.96054,6.129674 -5.03525,6.155299 -0.0451,0.01548 -0.35967,-0.209613 -0.69899,-0.500204 z"
         id="path1" /></g></g></svg>
