<?xml version="1.0" encoding="UTF-8" standalone="no"?>
<!-- Created with Inkscape (http://www.inkscape.org/) -->

<svg
   width="200mm"
   height="200mm"
   viewBox="0 0 200 200"
   version="1.1"
   id="svg1"
   xml:space="preserve"
   sodipodi:docname="logo_badminton_motus.svg"
   inkscape:version="1.4.2 (f4327f4, 2025-05-13)"
   xmlns:inkscape="http://www.inkscape.org/namespaces/inkscape"
   xmlns:sodipodi="http://sodipodi.sourceforge.net/DTD/sodipodi-0.dtd"
   xmlns="http://www.w3.org/2000/svg"
   xmlns:svg="http://www.w3.org/2000/svg"><sodipodi:namedview
     id="namedview1"
     pagecolor="#ffffff"
     bordercolor="#999999"
     borderopacity="1"
     inkscape:showpageshadow="2"
     inkscape:pageopacity="0"
     inkscape:pagecheckerboard="0"
     inkscape:deskcolor="#d1d1d1"
     inkscape:document-units="mm"
     inkscape:zoom="0.52203984"
     inkscape:cx="397.47924"
     inkscape:cy="561.25984"
     inkscape:window-width="1440"
     inkscape:window-height="830"
     inkscape:window-x="-6"
     inkscape:window-y="-6"
     inkscape:window-maximized="1"
     inkscape:current-layer="layer1" /><defs
     id="defs1" /><g
     inkscape:label="Livello 1"
     inkscape:groupmode="layer"
     id="layer1"><g
       id="g8"><path
         style="fill:#3c723d"
         d="m 64.973788,57.345367 c -1.729279,-0.531292 -2.814095,-2.372056 -2.809634,-4.767514 0.0031,-1.644777 0.330454,-2.951398 1.199409,-4.786849 1.84738,-3.902133 5.403835,-6.913595 8.553558,-7.242806 2.70429,-0.282654 4.410522,1.027067 4.899021,3.760541 0.5405,3.024456 -1.164038,7.370014 -3.965018,10.108437 -1.236402,1.208788 -1.846449,1.667698 -2.998396,2.255556 -1.758454,0.897368 -3.407492,1.124713 -4.87894,0.672635 z"
         id="path42" /><path
         style="fill:#3c723d"
         d="M 57.207914,140.94167 C 53.292699,138.39546 48.158384,133.55104 44.396409,128.85355 36.195855,118.6137 31.163346,106.34119 29.465413,92.442107 29.118742,89.604299 28.986107,81.823459 29.234289,78.8836 c 0.797549,-9.44739 3.110469,-17.93457 7.083281,-25.991855 1.718032,-3.484351 2.748467,-5.277934 4.778865,-8.318132 6.731077,-10.078711 16.237168,-18.378819 27.146514,-23.702589 20.041935,-9.780482 43.415971,-9.724284 62.935301,0.151315 3.80052,1.922833 8.22175,4.70603 11.17501,7.034747 l 0.34574,0.272629 -0.79402,2.589607 c -0.43672,1.424283 -0.82059,2.617788 -0.85306,2.652232 -0.0325,0.03444 -0.43105,-0.233463 -0.88575,-0.595349 C 130.0265,24.906327 119.10239,20.366661 106.06691,18.80579 103.76139,18.529727 95.391046,18.530269 92.883453,18.806643 79.824539,20.245932 68.325124,24.96162 58.11994,33.062489 55.374468,35.241843 50.188555,40.425433 48.016805,43.1611 c -4.982932,6.2768 -8.49793,12.702071 -11.032828,20.167546 -1.559545,4.592987 -2.775178,10.38497 -3.211659,15.302223 -0.245145,2.761717 -0.241813,8.772615 0.0064,11.45705 1.659788,17.954211 10.491867,34.764631 24.279861,46.212751 1.045227,0.86785 2.508109,2.00151 3.250848,2.51926 0.74274,0.51775 1.353036,0.98535 1.356213,1.03912 0.0063,0.10591 -2.050677,1.13131 -2.616045,1.30413 -0.190359,0.0582 -0.706709,0.1628 -1.147445,0.23247 -0.757054,0.11967 -0.850678,0.0946 -1.694188,-0.45398 z"
         id="path41" /><path
         style="fill:#3c723d"
         d="m 123.73282,148.04204 c 0.005,-0.0658 0.55258,-0.38095 1.21633,-0.70042 5.86117,-2.82101 13.39168,-8.31227 18.78871,-13.70076 11.67712,-11.65863 18.56892,-25.81835 20.58693,-42.297374 0.43301,-3.535928 0.38968,-11.724815 -0.0806,-15.223751 -0.63115,-4.696339 -1.3792,-8.173788 -2.60882,-12.127601 -2.13033,-6.850036 -5.75042,-13.892464 -10.0803,-19.609918 -0.64904,-0.857038 -1.14498,-1.593344 -1.10209,-1.636236 0.0752,-0.07517 4.61536,-1.782122 4.74014,-1.782122 0.12488,0 2.85044,4.054691 4.03739,6.006255 4.82529,7.933646 8.17654,17.310169 9.52081,26.638488 0.59608,4.13633 0.70405,5.710589 0.69428,10.12301 -0.0129,5.804946 -0.47555,10.028732 -1.70604,15.573724 -3.66979,16.537295 -13.10768,31.554255 -25.72343,40.929475 -4.44235,3.30128 -9.12865,5.81525 -12.84123,6.8887 -1.83494,0.53056 -5.45992,1.14239 -5.44213,0.91853 z"
         id="path40" /><path
         style="fill:#3c723d"
         d="m 95.865424,148.14018 c -5.647482,-0.42665 -12.464233,-2.10995 -17.789352,-4.39284 -1.856846,-0.79604 -5.361343,-2.58325 -6.794128,-3.46485 l -0.787198,-0.48437 2.483857,-1.28638 c 14.171916,-7.33962 25.042742,-16.52343 32.146367,-27.15765 5.53074,-8.2796 8.46349,-17.627909 7.60713,-24.248143 -0.48832,-3.774961 -2.19188,-7.237256 -4.38164,-8.905157 -0.42608,-0.324538 -0.77839,-0.625382 -0.78292,-0.668542 -0.005,-0.04316 0.72498,-0.450464 1.62113,-0.90512 5.14453,-2.610054 10.2473,-6.367762 14.14228,-10.414467 5.76852,-5.993219 9.18134,-12.969174 9.18134,-18.767092 V 46.1353 l -1.03752,1.534108 c -3.25974,4.819971 -8.48415,10.035985 -14.26965,14.246725 -11.30285,8.226312 -26.163876,13.35051 -40.686259,14.028936 -6.321088,0.295295 -11.956504,-0.431809 -15.838943,-2.043603 -1.559716,-0.647517 -2.08914,-1.151075 -2.08914,-1.987072 0,-2.164317 2.26879,-7.807831 4.760603,-11.841789 0.528393,-0.855406 0.714327,-1.042758 0.967921,-0.975298 0.814996,0.216801 2.651785,0.257907 3.562318,0.07972 3.608599,-0.706177 7.447279,-4.068633 9.393855,-8.228458 2.349366,-5.020587 1.591339,-9.902137 -1.813015,-11.675474 -1.142317,-0.595036 -3.359317,-0.683145 -4.974404,-0.197696 -4.005306,1.20388 -7.799538,5.104411 -9.35402,9.616082 -0.463382,1.344905 -0.567054,1.892025 -0.628335,3.315992 -0.108641,2.524453 0.348806,4.135907 1.568367,5.524909 0.466796,0.531652 0.486027,0.597574 0.274947,0.942472 -0.124825,0.203959 -0.803921,1.308874 -1.509101,2.455366 -3.616369,5.879543 -5.892045,11.591429 -5.37829,13.499367 0.674699,2.505642 7.697365,6.084412 14.701841,7.492099 3.215973,0.646312 5.660273,0.923226 9.771953,1.107059 6.95658,0.311028 8.210094,0.496003 10.331187,1.524526 1.784799,0.865453 3.687128,2.787635 4.54553,4.592969 2.000122,4.20652 1.864641,9.07251 -0.439158,15.77306 -3.434556,9.98934 -13.055147,22.04977 -23.88205,29.93869 -1.007938,0.73443 -2.261901,1.5961 -2.786584,1.91483 l -0.953968,0.5795 -1.767597,-1.25394 C 54.887835,128.937 47.234484,119.33998 42.68412,108.1367 39.514878,100.33382 38.011416,92.708374 38.011569,84.437867 c 1.32e-4,-7.147565 0.989408,-13.264193 3.214153,-19.872909 7.04788,-20.936081 25.203381,-36.667541 46.870881,-40.612893 4.597088,-0.837066 6.03471,-0.958119 11.378577,-0.958119 6.47502,0 9.23075,0.340119 15.23635,1.880508 7.82607,2.007323 15.8258,6.013759 22.19092,11.11368 1.6346,1.309686 1.64709,1.316132 2.27553,1.174931 0.34755,-0.07809 0.98249,-0.123374 1.41098,-0.100631 l 0.77907,0.04135 1.11475,-3.052995 c 2.00898,-5.502062 3.14656,-8.07914 4.43955,-10.057369 2.27753,-3.484528 5.07477,-4.723109 6.91027,-3.059786 1.5619,1.415386 1.33033,4.791636 -0.58265,8.494702 -0.31214,0.604241 -0.58697,1.137523 -0.61072,1.185071 -0.0238,0.04755 0.60568,-0.223314 1.39874,-0.601915 1.89579,-0.905037 3.89075,-1.546375 5.5185,-1.774086 5.39339,-0.754497 7.1739,3.324681 2.861,6.554581 -2.06642,1.547522 -6.56624,3.66164 -12.90857,6.064731 -2.28321,0.8651 -3.42181,1.37214 -3.42551,1.525443 -0.003,0.126296 -0.0627,0.599237 -0.13249,1.050981 -0.12569,0.813203 -0.12006,0.829555 0.56748,1.647932 4.54444,5.409286 8.36509,12.39158 10.70083,19.555974 1.96963,6.041416 2.86724,11.431281 3.02311,18.152887 0.18048,7.782826 -0.84685,14.581338 -3.32028,21.972425 -2.83125,8.46032 -7.11874,15.77188 -13.45032,22.93715 -4.58031,5.18341 -10.92245,10.30287 -16.87296,13.62011 -9.0928,5.06896 -20.47685,7.59539 -30.733336,6.82056 z M 99.10552,66.708613 c 2.42425,-0.749217 4.26246,-2.56337 5.09458,-5.027899 0.41491,-1.228886 0.37925,-3.519899 -0.0743,-4.77418 -1.91083,-5.284008 -8.384316,-6.830693 -12.431603,-2.970235 -3.442016,3.283127 -3.021194,9.069827 0.853651,11.738535 1.889783,1.301543 4.407193,1.698397 6.557702,1.033779 z m 42.77496,-21.120048 c 0.49851,-0.248419 0.96637,-0.640805 1.24715,-1.045966 0.39894,-0.575668 0.44934,-0.783241 0.44934,-1.850379 0,-1.049409 -0.0549,-1.285014 -0.43294,-1.856193 -0.65357,-0.987616 -1.52572,-1.49503 -2.69797,-1.569673 -0.75755,-0.04824 -1.11295,0.0085 -1.5904,0.254009 -1.25202,0.643731 -1.94889,1.771739 -1.94889,3.154642 0,0.978589 0.15871,1.397054 0.81211,2.141229 1.05326,1.199596 2.69338,1.503977 4.1616,0.772331 z m 6.90589,-6.653625 c 8.91551,-3.518338 12.93839,-5.635008 13.73856,-7.228661 0.23104,-0.46015 0.24022,-0.588027 0.0617,-0.859926 -0.49787,-0.75825 -1.96207,-0.838258 -4.33904,-0.237096 -3.69822,0.935318 -7.30466,3.259529 -11.28418,7.272199 -1.5435,1.556352 -1.76452,1.841788 -1.58948,2.052698 0.11182,0.134736 0.21599,0.244975 0.23148,0.244975 0.0155,0 1.44693,-0.559886 3.18097,-1.244189 z m -1.2893,-4.911443 c 1.56272,-1.812791 2.88483,-3.70557 3.84573,-5.50567 1.27915,-2.396288 1.80385,-5.214398 1.10161,-5.916637 -0.42501,-0.425011 -0.75119,-0.395716 -1.60205,0.14388 -1.46654,0.930051 -3.12495,3.692736 -4.95404,8.252725 -1.42263,3.546699 -2.43055,6.494631 -2.3195,6.784032 0.12331,0.321342 1.76709,-1.251337 3.92825,-3.75833 z"
         id="path39" /><path
         style="fill:#3c723d"
         d="m 158.5653,165.57889 v -6.90562 h 1.55733 1.55732 l 0.69149,0.82396 c 0.38032,0.45319 1.92189,2.33452 3.42571,4.18075 l 2.73422,3.35678 0.0418,-4.18603 0.0418,-4.18603 1.68459,0.0445 1.6846,0.0445 v 6.82715 6.82714 l -1.64283,0.0451 c -1.46782,0.0403 -1.66846,0.0128 -1.88335,-0.2584 -0.13229,-0.16693 -1.65304,-2.02304 -3.37944,-4.12469 l -3.13892,-3.82119 -0.0418,4.11882 -0.0418,4.11883 h -1.64533 -1.64533 z"
         id="path38" /><path
         style="fill:#3c723d"
         d="m 129.53032,167.0743 v -5.4102 l -2.15801,-0.0437 -2.15801,-0.0437 v -1.41252 -1.41251 h 6.04242 6.04242 v 1.41251 1.41252 l -2.15801,0.0437 -2.158,0.0437 v 5.4102 5.41021 h -1.72641 -1.7264 z"
         id="path37" /><path
         style="fill:#3c723d"
         d="m 108.02873,165.5842 v -6.91093 h 1.61061 1.61061 l 3.41166,4.16918 3.41166,4.16919 v -4.16919 -4.16918 h 1.7264 1.72641 v 6.90562 6.90562 h -1.62978 -1.62977 l -2.8095,-3.41358 c -1.54522,-1.87746 -3.05419,-3.72113 -3.35326,-4.09704 l -0.54376,-0.68347 -0.0785,4.05781 -0.0785,4.0578 -1.68717,0.0446 -1.68717,0.0445 z"
         id="path36" /><path
         style="fill:#3c723d"
         d="m 99.944755,172.29366 c -0.04069,-0.11083 -0.05705,-3.20311 -0.03636,-6.87172 l 0.03762,-6.6702 1.767295,-0.0444 1.7673,-0.0444 -0.0409,6.87154 -0.0409,6.87153 -1.69005,0.0446 c -1.26558,0.0334 -1.70862,-0.006 -1.764027,-0.15695 z"
         id="path35" /><path
         style="fill:#3c723d"
         d="m 79.46458,165.5794 v -6.91609 l 1.829257,0.0442 1.829256,0.0442 2.133627,3.96269 c 1.378049,2.55938 2.178223,3.89328 2.259559,3.7667 0.06926,-0.10779 1.046808,-1.90866 2.172323,-4.00192 l 2.04639,-3.80594 h 1.790561 1.790561 v 6.91111 6.91111 l -1.608695,-0.0447 -1.608696,-0.0447 -0.07847,-4.09594 -0.07847,-4.09594 -1.796055,3.35045 -1.796055,3.35045 h -0.969929 -0.969929 l -1.785447,-3.29793 -1.785446,-3.29792 -0.07847,4.04342 -0.07847,4.04341 -1.608695,0.0447 -1.608695,0.0447 z"
         id="path34" /><path
         style="fill:#3c723d"
         d="m 61.101912,165.57846 v -6.90562 l 3.492046,0.001 c 1.920625,6.6e-4 3.951112,0.0728 4.512194,0.16027 2.324286,0.36244 4.589761,2.07093 5.345726,4.03142 0.51993,1.34838 0.59246,3.32317 0.172797,4.70482 -0.596707,1.96453 -1.698127,3.20936 -3.644079,4.11857 -1.364467,0.63752 -2.60964,0.7882 -6.543584,0.79187 l -3.3351,0.003 z m 8.16637,3.50683 c 1.335483,-0.60095 2.063571,-1.83247 2.0686,-3.49892 0.004,-1.32766 -0.357203,-2.20592 -1.219362,-2.96482 -0.903987,-0.79573 -1.565039,-0.96674 -3.736894,-0.96674 h -1.825905 v 3.94221 3.9422 l 2.00106,-0.0669 c 1.573761,-0.0526 2.152979,-0.13525 2.712501,-0.38703 z"
         id="path33" /><path
         style="fill:#3c723d"
         d="m 41.954514,172.41702 c 0,-0.0424 1.369883,-3.13448 3.044184,-6.87137 l 3.044184,-6.79434 1.78628,-0.0439 1.78628,-0.0439 3.010826,6.63564 c 1.655955,3.64961 3.057286,6.76155 3.114069,6.91544 0.09593,0.26 -0.02825,0.27666 -1.754335,0.23542 l -1.857576,-0.0444 -0.587204,-1.33404 -0.587204,-1.33404 -3.01652,-0.0427 c -1.837021,-0.026 -3.07715,0.0179 -3.171577,0.11233 -0.08528,0.0853 -0.38285,0.70483 -0.661264,1.37677 l -0.506207,1.2217 -1.821968,0.0442 c -1.002082,0.0243 -1.821968,0.01 -1.821968,-0.0328 z m 9.764824,-5.71125 c -0.06196,-0.15686 -0.501093,-1.18005 -0.975854,-2.27377 -0.771253,-1.77674 -1.098622,-2.32214 -1.098622,-1.83031 0,0.0892 -0.388441,1.08818 -0.863202,2.21999 -0.474761,1.13181 -0.863202,2.08291 -0.863202,2.11356 0,0.0307 0.880544,0.0557 1.956766,0.0557 1.827845,0 1.949344,-0.0188 1.844114,-0.2852 z"
         id="path32" /><path
         style="fill:#3c723d"
         d="m 26.494104,172.30202 c -0.04439,-0.11567 -0.06226,-3.2119 -0.03973,-6.88051 l 0.04097,-6.6702 h 4.394485 c 3.934451,0 4.475049,0.0311 5.164083,0.29684 0.923809,0.35633 1.945725,1.24035 2.236365,1.9346 0.271572,0.6487 0.271265,1.95144 -6.14e-4,2.60214 -0.2215,0.53012 -1.229729,1.51856 -1.559061,1.52846 -0.104897,0.003 0.18089,0.18551 0.635082,0.40525 1.004678,0.48605 1.537955,1.14992 1.785633,2.22292 0.43333,1.87729 -0.663125,3.75183 -2.552921,4.36457 -1.136949,0.36864 -9.972275,0.53996 -10.104292,0.19593 z m 8.397666,-2.91787 c 1.049278,-0.52434 1.170016,-1.62042 0.253924,-2.30516 -0.39255,-0.29341 -0.653887,-0.32344 -2.81513,-0.32344 h -2.38241 l -0.0503,0.78473 c -0.02766,0.4316 -0.0057,1.08489 0.04885,1.45175 l 0.09915,0.66702 2.14839,-2.4e-4 c 1.730998,-2e-4 2.255075,-0.0536 2.69752,-0.27466 z m -0.647711,-5.39166 c 0.587567,-0.20483 0.804837,-0.55115 0.804837,-1.28289 0,-0.98763 -0.34142,-1.1261 -2.919475,-1.18408 l -2.25974,-0.0508 v 1.24099 c 0,0.68254 0.04708,1.28807 0.104631,1.34561 0.174415,0.17442 3.736709,0.117 4.269747,-0.0688 z"
         id="path31" /><path
         style="fill:#3c723d"
         d="m 144.91101,172.34506 c -1.38003,-0.44617 -2.20015,-0.93726 -3.14234,-1.88163 -3.08471,-3.09183 -2.51742,-8.34029 1.15826,-10.716 1.35019,-0.87267 2.64348,-1.23154 4.43823,-1.23154 2.34192,0 4.09998,0.73154 5.57889,2.32141 1.47762,1.58847 1.91509,2.81198 1.82975,5.11742 -0.0525,1.41782 -0.11711,1.72094 -0.55748,2.6148 -0.90861,1.84431 -2.92089,3.44287 -4.91082,3.90117 -1.12125,0.25824 -3.40952,0.19282 -4.39449,-0.12563 z m 4.15907,-3.14204 c 1.87676,-0.83231 2.80344,-3.53421 1.85712,-5.41475 -1.75776,-3.49303 -7.08022,-2.68953 -7.53345,1.13727 -0.26322,2.22249 0.93898,4.0732 2.98188,4.59041 0.67533,0.17097 1.93255,0.025 2.69445,-0.31293 z"
         id="path30" /><path
         style="fill:#3c723d"
         d="m 147.42215,182.27912 v -0.73751 l 3.25662,0.0999 c 1.79115,0.0549 6.89385,0.17736 11.33934,0.27207 4.4455,0.0947 8.25928,0.22481 8.47508,0.2891 0.2158,0.0643 -1.40859,0.16487 -3.60975,0.22351 -2.20117,0.0586 -6.54465,0.17413 -9.65218,0.25665 -3.10752,0.0825 -6.58584,0.19139 -7.72958,0.24193 l -2.07953,0.0919 z"
         id="path29" /><path
         style="fill:#3c723d"
         d="m 46.035107,182.83915 c -1.855885,-0.0595 -6.793905,-0.20269 -10.973378,-0.31825 -4.179472,-0.11556 -7.428252,-0.25986 -7.21951,-0.32066 0.208742,-0.0608 4.087377,-0.18937 8.619189,-0.28568 4.531813,-0.0963 9.599203,-0.21944 11.260867,-0.27359 l 3.021209,-0.0985 v 0.72847 0.72848 l -0.66702,-0.0261 c -0.366861,-0.0143 -2.185472,-0.0747 -4.041357,-0.13422 z"
         id="path28" /><path
         style="fill:#3c723d"
         d="m 100.80922,183.39182 v -4.47296 h -1.804878 -1.804878 v -0.78473 -0.78473 h 4.551426 4.55144 v 0.77975 0.77975 l -1.84412,0.0442 -1.84411,0.0442 -0.0417,4.43372 -0.0417,4.43372 h -0.86076 -0.86076 z"
         id="path27" /><path
         style="fill:#3c723d"
         d="m 57.68285,182.64632 0.04472,-5.21845 1.020149,-0.0401 1.020148,-0.0401 1.941378,3.53592 1.941378,3.53592 1.440361,-2.55414 c 0.792198,-1.40478 1.682865,-2.99555 1.979259,-3.53505 l 0.538899,-0.98091 h 0.983921 0.983921 v 5.25769 5.25768 H 68.71668 67.85637 l -0.04213,-3.64899 -0.04213,-3.64899 -1.516284,2.66808 c -0.833955,1.46744 -1.604518,2.8623 -1.71236,3.09968 -0.167591,0.3689 -0.28932,0.43142 -0.837905,0.43035 l -0.641828,-10e-4 -1.764629,-3.09844 -1.764629,-3.09843 -10e-4,3.64899 -0.001,3.64899 h -0.947164 -0.947164 z"
         id="path26" /><path
         style="fill:#3c723d"
         d="m 81.776424,187.64189 c -2.398757,-0.98643 -3.519162,-2.75365 -3.377807,-5.32784 0.101423,-1.84699 0.795516,-3.11845 2.235166,-4.09443 2.930131,-1.98642 7.078668,-1.01184 8.559987,2.01093 0.670317,1.36784 0.767687,2.57069 0.325849,4.02534 -0.297075,0.97806 -0.478096,1.2694 -1.315351,2.11694 -1.258686,1.27415 -2.209073,1.65046 -4.154909,1.64516 -1.073903,-0.003 -1.561748,-0.0837 -2.272935,-0.3761 z m 3.37348,-1.35373 c 1.523453,-0.4231 2.645717,-1.93685 2.653572,-3.57923 0.01069,-2.23553 -1.520851,-3.82683 -3.688233,-3.83213 -1.253459,-0.003 -2.149809,0.37658 -2.899199,1.22793 -2.551243,2.89837 0.198655,7.22078 3.93386,6.18343 z"
         id="path25" /><path
         style="fill:#3c723d"
         d="m 135.86892,188.01754 c -1.11382,-0.15718 -2.25521,-0.55929 -2.77409,-0.97731 l -0.4376,-0.35255 0.33887,-0.70626 c 0.43111,-0.89848 0.40653,-0.87856 0.73156,-0.59279 0.69588,0.61184 1.69771,0.96139 2.94369,1.02709 1.12445,0.0593 1.31294,0.0273 1.80488,-0.3068 0.43406,-0.29475 0.55942,-0.49356 0.59749,-0.94757 0.0817,-0.97458 -0.18953,-1.13038 -3.618,-2.07797 -1.97014,-0.54454 -2.91779,-2.16717 -2.22885,-3.81644 0.55852,-1.33705 1.91865,-2.07449 3.8262,-2.07449 1.0771,0 2.81093,0.42404 3.35222,0.81984 0.26283,0.19219 0.26058,0.23556 -0.0451,0.86832 -0.17698,0.36632 -0.33779,0.666 -0.35736,0.66595 -0.0196,-4e-5 -0.39769,-0.13771 -0.84027,-0.30593 -2.54889,-0.96879 -4.82893,-0.16666 -4.19821,1.47695 0.14576,0.37987 1.06232,0.78198 2.68299,1.1771 2.41442,0.58862 3.34007,1.43557 3.34007,3.05612 0,0.97424 -0.31161,1.66124 -1.01733,2.24296 -0.87611,0.72217 -2.50401,1.04915 -4.10112,0.82378 z"
         id="path24" /><path
         style="fill:#3c723d"
         d="m 118.30869,188.02454 c -1.65972,-0.25099 -2.78488,-1.0453 -3.39213,-2.39467 -0.35078,-0.7795 -0.37426,-1.03117 -0.42463,-4.55258 l -0.0533,-3.72746 h 0.95413 0.95412 l 8.8e-4,3.25663 c 5.1e-4,1.8916 0.0735,3.51828 0.17418,3.88087 0.38652,1.39225 1.73141,2.13875 3.40188,1.88824 0.89615,-0.13438 1.7982,-0.96324 2.055,-1.88824 0.10067,-0.36259 0.17368,-1.98927 0.17418,-3.88087 l 8.8e-4,-3.25663 h 0.95393 0.95394 l -0.0519,3.80594 c -0.0517,3.79028 -0.0536,3.80926 -0.47769,4.61402 -0.91735,1.74083 -2.91624,2.60367 -5.22348,2.25475 z"
         id="path9" /><path
         style="fill:#0c2c52"
         d="m 64.767436,57.225146 c -3.839642,-1.740741 -3.250474,-8.370145 1.16684,-13.129461 3.829307,-4.125784 8.606146,-4.740406 10.312913,-1.326932 0.444681,0.889345 0.470838,1.046285 0.470838,2.825008 0,1.653462 -0.05545,2.052519 -0.454242,3.269247 -1.107704,3.379618 -3.607508,6.319919 -6.665198,7.83969 -1.226777,0.609748 -1.411172,0.65539 -2.825026,0.699263 -1.061387,0.03294 -1.659804,-0.01981 -2.006125,-0.176815 z"
         id="path23" /><path
         style="fill:#0c2c52"
         d="M 92.02025,100.34408 C 78.80387,99.456478 68.627145,97.895462 56.7859,94.939454 50.841827,93.455595 44.231506,91.473568 39.583842,89.781618 l -1.350524,-0.491649 -0.100285,-1.288193 c -0.14747,-1.894308 -0.119379,-5.881919 0.05662,-8.036867 0.910042,-11.142881 4.311335,-21.029891 10.331052,-30.030706 3.39633,-5.078267 8.67638,-10.633912 13.778891,-14.498085 9.061764,-6.862549 19.69247,-11.003896 31.36859,-12.22009 2.422256,-0.252305 9.204544,-0.255269 11.535514,-0.005 4.55895,0.489397 9.45556,1.549035 13.49735,2.920862 6.63693,2.252645 13.0067,5.745722 18.46818,10.127652 0.99918,0.801673 1.47211,1.087399 1.69893,1.026431 0.17288,-0.04647 0.81671,-0.08545 1.43073,-0.08663 l 1.1164,-0.0021 0.74964,-2.079533 c 1.14789,-3.184255 2.85454,-7.423151 3.58599,-8.906679 1.79061,-3.631732 4.18333,-5.957567 6.13387,-5.96241 0.96829,-0.0024 1.90756,0.539001 2.40596,1.386818 0.39253,0.667739 0.42873,0.865098 0.42183,2.299877 -0.007,1.349939 -0.0791,1.778002 -0.51902,3.060445 -0.2813,0.820042 -0.78701,2.003021 -1.1238,2.628843 -0.33679,0.625822 -0.57592,1.137858 -0.53139,1.137858 0.0445,0 0.7302,-0.307747 1.52372,-0.683882 2.80468,-1.329435 5.1331,-1.909545 7.20757,-1.795714 2.68985,0.147599 3.9613,1.536046 3.34571,3.653592 -0.7435,2.557561 -5.05837,5.074205 -15.34911,8.95236 -3.07739,1.159742 -3.25667,1.249569 -3.2575,1.632119 -4.8e-4,0.222657 -0.0742,0.669008 -0.16391,0.991891 -0.16207,0.583571 -0.15466,0.597784 1.24745,2.391538 7.35922,9.414823 11.60117,19.954822 12.82381,31.863387 0.28453,2.771419 0.38035,9.383739 0.16044,11.072283 -0.10325,0.792787 -0.15845,0.888161 -0.61615,1.064567 -13.347,5.144267 -28.3454,8.50618 -44.32519,9.935557 -2.17701,0.19474 -3.99699,0.31527 -4.0444,0.26787 -0.0474,-0.0474 0.16124,-0.945831 0.46365,-1.996489 1.7126,-5.950048 1.82944,-10.737214 0.36081,-14.783248 -0.65102,-1.793535 -1.50414,-3.126882 -2.89482,-4.524323 -0.72137,-0.724885 -1.29259,-1.33458 -1.26936,-1.354879 0.0232,-0.0203 0.54673,-0.289474 1.16336,-0.598167 2.74992,-1.376659 6.45125,-3.722402 9.09478,-5.763871 7.6114,-5.877926 12.87227,-13.449975 14.27719,-20.54941 0.29014,-1.466139 0.44526,-4.394485 0.23279,-4.394485 -0.0737,0 -0.31044,0.301001 -0.52604,0.668891 -1.41486,2.414273 -5.58577,7.270532 -8.52026,9.920275 -10.50215,9.483085 -22.54714,15.310268 -37.338126,18.063613 -4.224342,0.786362 -7.348406,1.06196 -12.163306,1.07302 -4.676634,0.01074 -6.53801,-0.155886 -9.495226,-0.850004 -2.507043,-0.588453 -5.347428,-1.7055 -5.672191,-2.23072 -0.400176,-0.647179 0.213633,-3.513882 1.350404,-6.306863 0.725485,-1.782473 2.536586,-5.303954 3.385022,-6.581791 0.532756,-0.802388 0.605577,-0.85583 0.97485,-0.715433 0.671677,0.255371 3.046011,0.203489 4.050443,-0.08851 1.930747,-0.561284 4.435857,-2.175096 5.891447,-3.79532 1.614379,-1.796971 2.964894,-4.114457 3.690052,-6.332135 0.39277,-1.201172 0.437157,-1.560698 0.44566,-3.609755 0.0093,-2.234396 5e-4,-2.29459 -0.483086,-3.315227 -0.606347,-1.279733 -1.374265,-2.150117 -2.363329,-2.678674 -2.01888,-1.078894 -4.364093,-0.961255 -6.966753,0.34946 -3.43773,1.73126 -6.36232,5.101337 -7.662498,8.829683 -1.235428,3.542675 -0.930849,6.816431 0.83463,8.970965 l 0.526575,0.642615 -1.085307,1.722538 c -3.354129,5.323485 -5.793169,10.771195 -6.048988,13.510695 -0.08074,0.864653 -0.04379,1.061463 0.313887,1.671792 1.169983,1.996427 6.050001,4.661039 11.307988,6.174446 3.944735,1.135414 7.962471,1.682492 14.304403,1.947768 5.871339,0.245591 6.973319,0.43816 9.259807,1.618129 2.444721,1.261626 4.103842,3.39105 5.039736,6.468323 0.394756,1.297979 0.4288,1.624955 0.440591,4.231696 0.0082,1.81248 -0.06391,3.20473 -0.201174,3.88441 l -0.213954,1.059385 -1.433978,-0.0274 c -0.788688,-0.0151 -1.751794,-0.0488 -2.140235,-0.0748 z m 6.12089,-33.337308 c 2.45039,-0.395553 4.51472,-1.978743 5.70108,-4.372322 0.65515,-1.321817 0.65523,-1.322203 0.65523,-3.138918 0,-2.104032 -0.19537,-2.781631 -1.27606,-4.425688 -1.65013,-2.510362 -4.740473,-3.820496 -7.624488,-3.232362 -1.6358,0.333588 -2.84945,0.965672 -3.983024,2.074411 -4.865759,4.759157 -1.740657,12.847077 5.114749,13.237226 0.2158,0.01228 0.851431,-0.05177 1.412513,-0.142347 z m 43.84093,-21.373667 c 1.93964,-1.072943 2.37589,-3.560075 0.90921,-5.183511 -1.96896,-2.17941 -5.24729,-1.43883 -5.99968,1.355341 -0.7724,2.86847 2.4477,5.290067 5.09047,3.82817 z m 7.34629,-6.849968 c 6.64393,-2.6436 10.05331,-4.264008 11.92572,-5.668048 1.62216,-1.21639 1.94714,-2.293648 0.83242,-2.759405 -2.30699,-0.963924 -8.00897,1.217274 -12.15322,4.649013 -1.41478,1.171543 -4.70838,4.403025 -4.70838,4.619583 0,0.196417 0.31386,0.554849 0.48585,0.554849 0.0601,0 1.68797,-0.628196 3.61761,-1.395992 z m -3.20434,-3.175347 c 3.93568,-4.179862 6.13964,-7.791491 6.63077,-10.865801 0.26256,-1.643608 -0.0758,-2.454691 -1.02398,-2.454691 -1.04735,0 -2.83574,2.069472 -4.27256,4.944097 -0.87831,1.757199 -2.5073,5.791437 -3.47599,8.608353 -0.99366,2.889531 -0.77508,2.865858 2.14176,-0.231958 z"
         id="path22" /><path
         style="fill:#0c2c52"
         d="m 55.677406,128.02953 -0.460965,-0.51008 0.510074,0.46097 c 0.475461,0.42968 0.582215,0.55918 0.460965,0.55918 -0.02701,0 -0.256544,-0.22953 -0.510074,-0.51007 z"
         id="path21" /><path
         style="fill:#0c2c52"
         d="m 57.555718,129.91288 -0.29898,-0.35313 0.353128,0.29898 c 0.331853,0.28097 0.424576,0.40727 0.29898,0.40727 -0.02978,0 -0.188689,-0.1589 -0.353128,-0.35312 z"
         id="path20" /><path
         style="fill:#0c2c52"
         d="M 56.550481,140.43993 C 46.379427,133.11496 37.975811,121.75035 33.493265,109.25861 27.86789,93.582094 27.64353,77.075411 32.844066,61.495472 39.760502,40.774984 55.922222,24.496668 76.47128,17.553519 c 11.881944,-4.014691 24.48933,-4.957755 36.17995,-2.706352 10.47156,2.016636 20.02471,6.135349 28.15826,12.140055 0.96104,0.709494 1.74733,1.360729 1.74733,1.447188 0,0.12944 -1.24817,4.282233 -1.49103,4.960813 -0.0463,0.129251 -0.47604,-0.127193 -1.21289,-0.723713 -2.91398,-2.359016 -6.46689,-4.690338 -10.40106,-6.824884 -9.69124,-5.258137 -21.97276,-7.977119 -33.172456,-7.343986 -9.286872,0.524999 -17.703986,2.669342 -25.525301,6.502824 -3.197352,1.567127 -4.564917,2.353498 -7.690348,4.422071 -4.765987,3.154379 -8.621675,6.424765 -12.251206,10.391446 -9.671624,10.570031 -15.463261,23.514082 -17.049838,38.105632 -0.313005,2.878665 -0.264093,10.737316 0.08449,13.575819 1.470696,11.975688 5.63907,22.743808 12.531349,32.372108 4.006377,5.59679 9.624302,11.22907 15.150404,15.1891 0.536986,0.38481 0.978396,0.75118 0.980912,0.81417 0.01306,0.32701 -3.184499,1.53548 -4.046135,1.52917 -0.455589,-0.003 -0.863889,-0.20927 -1.913234,-0.96499 z"
         id="path19" /><path
         style="fill:#0c2c52"
         d="m 124.74347,147.55273 c 0.51792,-0.24635 1.88188,-0.98933 3.03102,-1.65108 22.07674,-12.71309 35.91414,-34.81583 36.89395,-58.931407 0.47476,-11.685159 -1.86542,-22.688152 -6.96346,-32.740603 -1.76293,-3.47619 -3.64217,-6.55521 -5.70115,-9.341012 l -1.56511,-2.117586 2.21918,-0.822128 c 1.22055,-0.45217 2.30426,-0.823488 2.40825,-0.825149 0.23655,-0.0038 2.00168,2.459841 3.53996,4.940774 5.98073,9.645763 9.47334,20.052351 10.56102,31.467649 0.32051,3.363856 0.24033,10.857408 -0.14952,13.973488 -1.63827,13.094814 -6.11208,24.657294 -13.4587,34.783704 -5.69832,7.85443 -12.38665,13.86267 -20.1284,18.08168 -3.31087,1.80432 -6.49709,2.94397 -9.50995,3.40154 -2.09309,0.31788 -2.24715,0.2891 -1.17709,-0.21987 z"
         id="path18" /><path
         style="fill:#0c2c52"
         d="m 158.5653,165.57883 v -6.74868 h 1.61097 1.61097 l 3.37206,4.15109 3.37207,4.15108 0.0418,-4.15108 0.0418,-4.15109 h 1.64537 1.64536 v 6.75399 6.75398 l -1.68032,-0.0445 -1.68033,-0.0445 -3.3027,-4.04161 -3.30271,-4.04161 -0.0418,4.08085 -0.0418,4.08084 h -1.64533 -1.64533 z"
         id="path17" /><path
         style="fill:#0c2c52"
         d="m 129.68726,167.16112 c 0,-2.84151 -0.0429,-5.27809 -0.0953,-5.41463 -0.0803,-0.20928 -0.4253,-0.24826 -2.19724,-0.24826 h -2.10198 v -1.33404 -1.33404 h 5.96394 5.96394 v 1.33404 1.33404 h -2.11877 -2.11876 v 5.41464 5.41463 h -1.64794 -1.64793 z"
         id="path16" /><path
         style="fill:#0c2c52"
         d="m 108.14972,165.57888 0.0425,-6.74873 h 1.54941 1.54941 l 2.72408,3.33 c 1.49825,1.8315 3.00142,3.66777 3.34039,4.08059 0.33896,0.41283 0.67443,0.7506 0.74549,0.7506 0.0711,0 0.12919,-1.83627 0.12919,-4.08059 v -4.0806 h 1.6354 1.6354 l 0.0184,6.74868 0.0184,6.74867 h -1.64599 -1.646 l -1.85957,-2.23648 c -1.02276,-1.23006 -2.51679,-3.04867 -3.32005,-4.04135 -0.80327,-0.99269 -1.52374,-1.82842 -1.60105,-1.8572 -0.0805,-0.03 -0.14056,1.69614 -0.14056,4.04136 v 4.09367 l -1.60869,5e-5 -1.6087,5e-5 z"
         id="path15" /><path
         style="fill:#0c2c52"
         d="m 100.02449,165.57883 v -6.74868 h 1.64793 1.64793 v 6.74868 6.74867 h -1.64793 -1.64793 z"
         id="path14" /><path
         style="fill:#0c2c52"
         d="m 79.585579,165.57383 0.04252,-6.75383 1.745519,0.0443 1.745518,0.0444 2.077212,3.83879 c 1.142467,2.11133 2.144288,3.86114 2.226269,3.88847 0.08198,0.0273 0.236457,-0.14636 0.343282,-0.38598 0.106824,-0.23961 1.044156,-2.00708 2.08296,-3.92771 l 1.888734,-3.49205 h 1.789258 1.789258 v 6.74868 6.74867 H 93.74665 92.177191 v -4.15907 c 0,-2.28748 -0.05297,-4.15697 -0.117709,-4.15441 -0.06474,0.003 -0.924553,1.52101 -1.910694,3.37434 l -1.792984,3.36968 h -0.973 -0.973 l -1.784625,-3.29586 c -0.981543,-1.81273 -1.837963,-3.29587 -1.903155,-3.29587 -0.06519,0 -0.118532,1.83627 -0.118532,4.0806 v 4.08059 l -1.530222,5e-5 -1.530222,5e-5 z"
         id="path13" /><path
         style="fill:#0c2c52"
         d="m 61.101912,165.57889 v -6.74868 h 3.890673 c 4.312159,0 5.031587,0.10522 6.662285,0.97438 2.89901,1.54515 4.050276,5.49146 2.547988,8.734 -0.802774,1.7327 -2.723456,3.19447 -4.751303,3.61606 -0.471147,0.0979 -2.461235,0.17291 -4.590667,0.17291 h -3.758976 z m 8.26224,3.57156 c 1.627276,-0.87903 2.402965,-2.73717 1.943018,-4.65445 -0.275086,-1.14668 -0.914739,-1.94113 -1.984196,-2.46437 -0.809057,-0.39583 -1.108789,-0.4494 -2.836453,-0.50692 l -1.9318,-0.0643 v 4.03612 4.03612 l 2.158006,-0.0578 c 1.648221,-0.0442 2.274566,-0.12078 2.651425,-0.32436 z"
         id="path12" /><path
         style="fill:#0c2c52"
         d="m 42.11146,172.23507 c 0,-0.0565 0.737986,-1.73619 1.639969,-3.7326 0.901984,-1.99641 2.240664,-4.97173 2.974846,-6.61181 l 1.334876,-2.98197 1.773048,-0.0439 1.773048,-0.0439 1.758688,3.88905 c 0.967278,2.13898 2.326695,5.12072 3.020927,6.62609 0.694232,1.50537 1.26224,2.79429 1.26224,2.86426 0,0.07 -0.794538,0.12601 -1.765641,0.12451 l -1.765641,-0.003 -0.549311,-1.33413 -0.54931,-1.33413 -3.20846,0.042 -3.208461,0.0421 -0.502846,1.25557 -0.502847,1.25557 -1.742562,0.0444 c -0.95841,0.0244 -1.742563,-0.002 -1.742563,-0.0584 z m 9.730645,-5.25153 c 0,-0.26722 -1.922734,-4.70052 -2.038629,-4.70052 -0.05827,0 -0.182009,0.22954 -0.274971,0.51008 -0.09296,0.28054 -0.520172,1.33655 -0.949355,2.34668 -0.429182,1.01014 -0.741641,1.8753 -0.694354,1.92259 0.167203,0.1672 3.957309,0.0917 3.957309,-0.0788 z"
         id="path11" /><path
         style="fill:#0c2c52"
         d="m 26.573818,165.56826 v -6.75931 l 4.590667,0.0499 4.590667,0.0499 0.803522,0.42388 c 0.981551,0.5178 1.563596,1.18252 1.798135,2.05353 0.358107,1.32991 -0.230801,2.95037 -1.266948,3.48618 -0.259328,0.13411 -0.471507,0.27638 -0.471507,0.31617 0,0.0398 0.264846,0.18297 0.588547,0.31818 1.315229,0.54941 1.922587,1.5218 1.922587,3.07811 0,1.8031 -0.828144,2.86838 -2.677256,3.44389 -0.849491,0.26439 -1.475665,0.29893 -5.419439,0.29893 h -4.458975 z m 8.40099,3.90372 c 0.421624,-0.19211 0.858817,-0.85566 0.858817,-1.30349 0,-0.44782 -0.437193,-1.11138 -0.858817,-1.30348 -0.260439,-0.11866 -1.273101,-0.1875 -2.758323,-0.1875 h -2.346804 v 1.49098 1.49099 h 2.346804 c 1.485222,0 2.497884,-0.0688 2.758323,-0.1875 z m -0.227731,-5.76437 c 0.48756,-0.48756 0.562913,-0.86734 0.29065,-1.4649 -0.313258,-0.68752 -0.718779,-0.80514 -3.01004,-0.87304 l -2.158006,-0.0639 v 1.43032 1.43032 h 2.209316 2.209315 z"
         id="path10" /><path
         style="fill:#0c2c52"
         d="m 145.32442,172.40304 c -3.33932,-0.84664 -5.43568,-3.46559 -5.43568,-6.79072 0,-2.10564 0.72359,-3.77593 2.23694,-5.16359 2.89526,-2.65482 7.85173,-2.53616 10.64268,0.25479 3.07038,3.07038 2.53653,8.34325 -1.07966,10.66375 -1.7103,1.0975 -4.39652,1.53467 -6.36428,1.03577 z m 3.34774,-2.97702 c 2.31912,-0.81823 3.37165,-3.51312 2.24203,-5.7405 -1.28258,-2.529 -4.7278,-2.95366 -6.65126,-0.81985 -0.71195,0.78981 -0.99012,1.58366 -0.97824,2.79169 0.0109,1.10657 0.2894,1.83644 1.017,2.66513 1.04481,1.18997 2.84043,1.64336 4.37047,1.10353 z"
         id="path8" /></g></g></svg>
