<?xml version="1.0" encoding="UTF-8" standalone="no"?>
<!-- Created with Inkscape (http://www.inkscape.org/) -->

<svg
   width="200mm"
   height="200mm"
   viewBox="0 0 200 200"
   version="1.1"
   id="svg1"
   xml:space="preserve"
   sodipodi:docname="logo_badminton_motus_v20_primary.svg"
   inkscape:version="1.4.2 (f4327f4, 2025-05-13)"
   inkscape:export-filename="logo_badminton_motus_v20_primary_transparent.png"
   inkscape:export-xdpi="96"
   inkscape:export-ydpi="96"
   xmlns:inkscape="http://www.inkscape.org/namespaces/inkscape"
   xmlns:sodipodi="http://sodipodi.sourceforge.net/DTD/sodipodi-0.dtd"
   xmlns="http://www.w3.org/2000/svg"
   xmlns:svg="http://www.w3.org/2000/svg"><sodipodi:namedview
     id="namedview1"
     pagecolor="#ffffff"
     bordercolor="#999999"
     borderopacity="1"
     inkscape:showpageshadow="2"
     inkscape:pageopacity="0"
     inkscape:pagecheckerboard="0"
     inkscape:deskcolor="#d1d1d1"
     inkscape:document-units="mm"
     inkscape:zoom="0.52203984"
     inkscape:cx="397.47924"
     inkscape:cy="561.25985"
     inkscape:window-width="1440"
     inkscape:window-height="830"
     inkscape:window-x="-6"
     inkscape:window-y="-6"
     inkscape:window-maximized="1"
     inkscape:current-layer="layer1"
     inkscape:export-bgcolor="#ffffff00" /><defs
     id="defs1" /><g
     inkscape:label="Livello 1"
     inkscape:groupmode="layer"
     id="layer1"><g
       id="g3"
       transform="matrix(1.2895165,0,0,1.2895165,-29.977043,-28.466044)"><path
         style="fill:#438939"
         d="m 64.545833,162.17708 v -3.96875 h 1.324685 1.324686 l 1.264539,1.93899 1.264539,1.93898 1.280307,-1.93589 1.280306,-1.93589 1.289844,-0.003 1.289844,-0.003 v 3.96875 3.96875 h -1.295728 -1.295729 l 0.0059,-1.85201 c 0.0032,-1.01861 -0.02388,-1.84946 -0.06026,-1.84633 -0.03638,0.003 -0.477417,0.62817 -0.980083,1.38899 l -0.913938,1.38331 H 69.708288 69.091831 L 68.1981,163.89882 c -0.491552,-0.72665 -0.948851,-1.35524 -1.01622,-1.39687 -0.07291,-0.0451 -0.122489,0.67718 -0.122489,1.78418 v 1.85989 h -1.25677 -1.256771 z m 18.481095,3.29671 -0.754012,-0.67204 0.0031,-2.60217 0.0031,-2.60218 0.780343,-0.69453 0.780343,-0.69454 h 2.798276 2.798275 l 0.783929,0.74775 0.78393,0.74774 v 2.45649 2.4565 l -0.756536,0.76451 -0.756536,0.76451 H 86.636017 83.78094 Z m 5.089478,-1.66356 c 0.341372,-0.30894 0.359533,-2.87142 0.02299,-3.2433 -0.308117,-0.34047 -2.740339,-0.35844 -3.111007,-0.023 -0.341372,0.30894 -0.359533,2.87142 -0.02299,3.2433 0.308117,0.34047 2.740339,0.35844 3.111007,0.023 z m 12.677344,-0.57481 V 160.325 h -1.455208 -1.455209 v -1.05833 -1.05834 h 4.299477 4.29948 v 1.05834 1.05833 h -1.52135 -1.52136 v 2.91042 2.91041 h -1.32291 -1.32292 z m 13.25772,2.21172 -0.69001,-0.69869 v -3.27006 -3.27006 h 1.25677 1.25677 v 2.69148 c 0,3.27597 -0.0786,3.12936 1.67663,3.12936 1.70113,0 1.63066,0.13622 1.63066,-3.15235 v -2.66849 h 1.25677 1.25677 v 3.27874 3.27874 l -0.69869,0.69001 -0.69869,0.69001 h -2.77848 -2.77849 z m 14.78811,-0.35964 v -1.05833 h 2.64999 c 2.33136,0 2.65997,-0.026 2.73303,-0.21642 0.0457,-0.11903 0.0225,-0.31251 -0.0514,-0.42995 -0.11201,-0.17785 -0.46041,-0.21966 -2.0852,-0.25022 l -1.95071,-0.0367 -0.64783,-0.54626 -0.64784,-0.54626 v -1.20751 -1.20751 l 0.6987,-0.69001 0.69869,-0.69002 h 3.20391 3.20391 v 0.99219 0.99219 h -2.43794 c -2.07645,0 -2.4699,0.0319 -2.65345,0.21549 -0.11852,0.11853 -0.1823,0.30199 -0.14174,0.4077 0.0406,0.10571 0.0738,0.2171 0.0738,0.24753 0,0.0304 0.90785,0.0567 2.01745,0.0584 l 2.01744,0.003 0.62839,0.59953 0.62838,0.59952 v 1.28754 1.28754 l -0.63293,0.62341 -0.63293,0.62341 h -3.33582 -3.33582 z m -71.437497,-2.00379 c -1.200547,-0.0517 -5.459864,-0.24702 -9.465149,-0.43413 -4.005285,-0.18711 -7.423371,-0.3402 -7.595747,-0.3402 -0.172376,0 -0.277652,-0.0358 -0.233948,-0.0795 0.09504,-0.095 19.43386,-0.97362 19.576875,-0.88939 0.05457,0.0321 0.09922,0.43836 0.09922,0.90271 0,0.46435 -0.04465,0.86456 -0.09922,0.88935 -0.05457,0.0248 -1.081485,0.003 -2.282031,-0.0489 z m 84.394657,0.0525 c -0.004,-0.0182 -0.0104,-0.43491 -0.0142,-0.92604 l -0.007,-0.89297 0.90723,0.0345 c 1.0161,0.0387 7.80103,0.33231 14.3844,0.62253 2.39197,0.10544 4.37502,0.21769 4.40676,0.24944 0.0317,0.0317 -0.76446,0.096 -1.76935,0.14279 -5.79442,0.26982 -7.69804,0.35566 -11.94739,0.53874 -2.58299,0.11129 -4.97916,0.21623 -5.32482,0.2332 -0.34566,0.017 -0.63174,0.016 -0.63573,-0.002 z M 39.939582,148.36733 v -5.47538 l 0.473441,-0.0888 c 0.260393,-0.0489 2.358869,-0.0795 4.663281,-0.0681 l 4.189841,0.0207 0.892969,0.87667 0.892968,0.87667 v 1.41895 1.41895 l -0.46996,0.35846 -0.46996,0.35846 0.536106,0.54625 0.536106,0.54625 v 1.46662 1.46663 l -0.957282,0.87654 -0.957282,0.87655 h -4.665114 -4.665114 z m 7.699417,2.2289 c 0.103888,-0.22801 0.112635,-0.45131 0.02721,-0.69453 l -0.125913,-0.35847 -2.014417,-0.0365 -2.014418,-0.0365 v 0.73105 0.73105 h 1.987212 1.987211 z m -0.18525,-3.79144 c 0.204644,-0.20464 0.204644,-0.80077 0,-1.00541 -0.10867,-0.10867 -0.755532,-0.15875 -2.050521,-0.15875 h -1.891771 v 0.66145 0.66146 h 1.891771 c 1.294989,0 1.941851,-0.0501 2.050521,-0.15875 z m 5.847292,6.89705 c 0,-0.25178 4.22318,-9.61781 4.717333,-10.46195 l 0.259644,-0.44354 1.755134,-10e-4 c 1.061844,-7e-4 1.800507,0.0535 1.870001,0.13725 0.08596,0.10358 4.456395,9.78202 4.852004,10.74489 0.0524,0.12754 -0.345142,0.16537 -1.737683,0.16537 H 63.21185 l -0.377209,-0.84073 c -0.353778,-0.7885 -0.408903,-0.84523 -0.887436,-0.91327 -0.499192,-0.071 -4.419347,-0.0178 -4.468582,0.0606 -0.01371,0.0218 -0.173345,0.3969 -0.354735,0.83346 l -0.3298,0.79375 -1.746524,0.0369 c -1.2255,0.0259 -1.746523,-0.007 -1.746523,-0.11164 z m 7.899062,-4.52241 c -0.405327,-1.00421 -1.19832,-2.74302 -1.234479,-2.70686 -0.02551,0.0255 -0.312767,0.6822 -0.638345,1.4593 l -0.591961,1.41292 h 1.265765 c 0.960016,0 1.249643,-0.0399 1.19902,-0.16536 z m 8.10823,-0.80858 V 142.899 l 0.974869,-0.0883 c 0.536178,-0.0486 2.598393,-0.0829 4.5827,-0.0762 l 3.60783,0.0121 1.105842,1.01208 1.105842,1.01208 v 3.53245 3.53246 l -1.091406,1.00145 -1.091406,1.00146 -4.597136,0.002 -4.597135,0.002 z m 7.695573,2.21021 c 0.213933,-0.19361 0.241927,-0.44902 0.241927,-2.20736 0,-2.69423 0.08876,-2.60078 -2.470456,-2.60078 h -1.895169 v 2.51354 2.51354 h 1.940885 c 1.620366,0 1.980838,-0.0362 2.182813,-0.21894 z m 6.948569,3.17732 c -0.05063,-0.0506 -0.09206,-2.51647 -0.09206,-5.47963 v -5.38757 l 0.353232,-0.0887 c 0.194278,-0.0488 1.00369,-0.0747 1.798694,-0.0577 l 1.445461,0.0309 1.591059,2.42463 c 0.875082,1.33355 1.628366,2.42209 1.673963,2.41898 0.0456,-0.003 0.82137,-1.10444 1.723939,-2.44739 l 1.641036,-2.44174 h 1.699329 1.699329 v 5.55625 5.55625 h -1.719791 -1.719792 l -5.52e-4,-2.74505 -5.53e-4,-2.74505 -1.288971,1.93763 -1.28897,1.93764 -0.727925,0.0632 c -0.400359,0.0348 -0.773024,0.0371 -0.828144,0.005 -0.05512,-0.0319 -0.650433,-0.90116 -1.322917,-1.9317 l -1.222697,-1.87371 -0.06615,2.64281 -0.06615,2.64281 -1.594661,0.0369 c -0.877063,0.0203 -1.636086,-0.004 -1.686718,-0.0551 z m 16.841275,-5.40577 c 0,-4.3017 0.0358,-5.491 0.16536,-5.49422 0.091,-0.002 0.86486,-0.0328 1.7198,-0.0679 l 1.55442,-0.0637 v 5.55796 5.55796 h -1.71979 -1.71979 z m 6.83507,5.4019 c -0.0485,-0.0485 -0.0882,-2.51349 -0.0882,-5.47775 v -5.38957 l 1.22369,-0.0887 c 1.68235,-0.12191 2.2016,-0.0489 2.53651,0.35655 0.15108,0.18291 1.22719,1.45068 2.39136,2.81726 l 2.11666,2.4847 0.0661,-2.83034 0.0661,-2.83034 h 1.5875 1.5875 l 0.0345,5.52318 0.0345,5.52318 -1.62202,-2.1e-4 -1.62202,-2.2e-4 -1.86941,-2.14952 c -1.02818,-1.18224 -2.1295,-2.45852 -2.4474,-2.83617 l -0.57799,-0.68663 -0.0357,2.83637 -0.0357,2.83638 h -1.62902 c -0.89596,0 -1.6687,-0.0397 -1.71721,-0.0882 z m 18.30035,-3.9467 v -4.03489 h -1.91823 -1.91823 v -1.51392 -1.51392 l 5.62239,0.004 5.6224,0.004 v 1.51004 1.51005 h -1.91823 -1.91823 v 4.03489 4.0349 h -1.78594 -1.78593 z m 10.88099,2.9668 -1.09141,-1.06237 v -3.40922 -3.40921 l 1.11835,-1.09159 1.11835,-1.0916 3.50895,0.0429 3.50894,0.0429 1.06125,1.05523 1.06124,1.05523 v 3.4458 3.44579 l -1.02818,1.02215 -1.02819,1.02216 -3.56895,-0.003 -3.56895,-0.003 z m 6.60416,-2.19355 c 0.21458,-0.19419 0.24193,-0.45103 0.24193,-2.27161 0,-2.67033 0.11403,-2.53653 -2.16172,-2.53653 -2.40349,0 -2.3362,-0.0748 -2.3362,2.59524 0,2.54773 -0.10965,2.43184 2.30105,2.43184 1.40833,0 1.75605,-0.0389 1.95494,-0.21894 z m 6.72422,-2.26645 v -5.5281 l 0.29766,-0.0321 c 0.16371,-0.0176 0.90992,0.005 1.65824,0.051 l 1.36058,0.0831 2.37666,2.76462 2.37665,2.76463 v -2.77167 -2.77168 l 0.44013,-0.0826 c 0.24207,-0.0454 1.00109,-0.063 1.68672,-0.0391 l 1.24659,0.0435 0.0345,5.52318 0.0345,5.52318 -1.68817,-0.008 -1.68817,-0.008 -2.38125,-2.79084 -2.38125,-2.79084 -0.0357,2.79892 -0.0357,2.79892 h -1.65101 -1.65102 z M 97.364118,134.11645 c -2.866547,-0.25453 -6.233026,-1.01234 -9.130428,-2.05531 -1.668815,-0.60072 -5.828482,-2.524 -5.828482,-2.69488 0,-0.0503 0.550664,-0.4501 1.223698,-0.88848 13.94649,-9.08402 25.291114,-23.67094 27.240814,-35.026218 0.35626,-2.074949 0.287,-5.234253 -0.15082,-6.879166 -0.44859,-1.685377 -1.43064,-3.56777 -2.41302,-4.625285 l -0.8434,-0.907904 1.50886,-0.771974 c 1.65082,-0.84461 4.72271,-2.838346 6.16636,-4.00213 6.07939,-4.900827 10.39459,-11.910247 10.39459,-16.884524 v -0.943075 l -0.7695,1.036717 c -4.91087,6.616187 -12.0948,12.399683 -19.64643,15.816552 -4.45502,2.015753 -10.18255,3.627688 -15.236673,4.288152 -2.480241,0.324113 -8.044249,0.326397 -10.120312,0.0042 -2.877522,-0.446644 -5.221214,-1.166792 -6.198673,-1.90467 -0.564,-0.42576 -0.861098,-1.115546 -0.751075,-1.743805 0.305029,-1.741788 1.673239,-5.26184 3.156758,-8.121522 0.822292,-1.585081 0.982267,-1.815359 1.212575,-1.745466 0.617178,0.187299 1.969061,0.222667 2.742529,0.07175 1.329038,-0.259318 2.525671,-0.966426 3.809746,-2.251236 1.645044,-1.645984 2.698798,-3.564003 3.252271,-5.91971 0.29409,-1.251711 0.193446,-3.263208 -0.216931,-4.335674 -0.43789,-1.144366 -1.537413,-2.218449 -2.581797,-2.52206 -1.447388,-0.420767 -3.326379,-0.07135 -4.846924,0.901329 -3.136709,2.006528 -5.444107,6.231792 -5.222313,9.563 0.08541,1.282791 0.458163,2.341046 1.080829,3.068491 0.25408,0.296835 0.461963,0.563661 0.461963,0.592947 0,0.02929 -0.571006,1.091385 -1.268901,2.36022 -1.586369,2.884158 -3.512709,6.711521 -4.017391,7.981986 -0.499144,1.25652 -0.731479,2.405586 -0.613525,3.034331 0.359454,1.916055 5.474613,4.509446 11.389921,5.7747 2.254543,0.482235 4.912271,0.800915 7.777645,0.932593 3.224232,0.14817 4.271017,0.338198 5.737458,1.041551 1.39987,0.671422 2.476286,1.724126 3.142851,3.073618 0.681745,1.380225 0.87418,2.197535 0.961163,4.082257 0.308999,6.695245 -3.706134,16.426845 -10.261385,24.870835 -2.143492,2.76109 -5.066817,5.92644 -7.717713,8.35667 l -1.15373,1.05769 -1.161374,-0.75522 C 75.122437,124.86865 72.402335,122.66626 69.494301,119.7776 62.95682,113.28369 58.759539,106.33073 56.477068,98.214062 55.268299,93.91557 54.837876,90.65064 54.828962,85.7125 c -0.0083,-4.6062 0.309253,-7.333299 1.324243,-11.3719 3.269938,-13.010926 11.973569,-23.882038 23.870753,-29.81533 4.249528,-2.119299 8.018896,-3.365492 12.450242,-4.116183 6.01873,-1.019601 12.97417,-0.69143 18.57215,0.876272 6.40431,1.79351 12.0847,4.796548 17.16485,9.074501 1.00474,0.846084 1.15793,1.030339 1.16046,1.395734 0.002,0.231532 0.11755,0.673542 0.25768,0.982245 0.24245,0.534121 0.24345,0.567342 0.0206,0.686624 -0.33281,0.178112 -0.90212,1.057943 -1.00439,1.552227 -0.21105,1.01992 0.62321,2.366929 1.65792,2.676938 0.79478,0.238122 1.50922,0.07525 2.12998,-0.485562 l 0.5204,-0.470152 0.46091,0.219792 c 0.2535,0.120886 0.68214,0.221061 0.95252,0.222611 0.47411,0.0027 0.53147,0.05765 1.61185,1.543812 4.61371,6.346562 7.55621,13.881068 8.41148,21.538266 0.27122,2.428167 0.31511,7.668572 0.0831,9.921876 -0.49222,4.780508 -1.44682,8.852822 -3.0183,12.875929 -0.79612,2.03813 -2.71878,5.94755 -3.80906,7.74509 -5.96314,9.83142 -16.13344,18.29647 -25.91354,21.56862 -4.71609,1.57787 -9.70432,2.1967 -14.368672,1.78254 z m 3.799992,-61.172046 c 1.48475,-0.350042 2.52463,-1.07725 3.33639,-2.333191 1.82065,-2.81691 0.81279,-6.520982 -2.17342,-7.987712 -3.521429,-1.729612 -7.651483,0.709372 -7.857808,4.640393 -0.144496,2.753003 1.454166,4.961688 4.108682,5.676488 0.905509,0.243832 1.564616,0.244857 2.586156,0.004 z m 18.0185,59.880756 c 1.7e-4,-0.0456 0.31817,-0.24905 0.70666,-0.45203 1.77853,-0.92925 5.44937,-3.54255 8.28886,-5.9009 1.85544,-1.54104 5.22319,-4.87687 6.8323,-6.76752 6.97045,-8.19011 11.15283,-17.5387 12.56313,-28.08151 0.26802,-2.003615 0.38351,-7.640703 0.20294,-9.904944 -0.67852,-8.507829 -3.27816,-16.059726 -7.96028,-23.124427 l -1.28834,-1.943931 1.53893,-0.21939 c 0.8464,-0.120665 1.66406,-0.253721 1.81702,-0.295681 0.2398,-0.06579 0.43006,0.166508 1.38162,1.686888 6.38008,10.193966 9.0265,22.459704 7.45904,34.571514 -0.90379,6.983622 -3.40271,14.310051 -6.89235,20.207211 -2.43139,4.10883 -4.68541,7.02408 -8.08852,10.46136 -5.18692,5.23898 -10.38431,8.75617 -13.98164,9.46168 -1.51862,0.29783 -2.57983,0.42195 -2.57937,0.30168 z M 71.725244,129.77073 C 63.99801,124.54762 57.362032,116.787 53.395379,108.33438 50.867815,102.94834 49.372796,97.798716 48.594575,91.797917 48.308472,89.591791 48.199096,84.045254 48.395007,81.677604 48.957335,74.88169 50.631209,68.757139 53.581643,62.700182 57.750289,54.142354 63.842948,47.09664 71.689583,41.759673 82.789106,34.210222 96.431147,31.438625 109.525,34.072809 c 8.15467,1.640532 15.37992,5.09516 22.26492,10.645573 0.28458,0.229417 0.29474,0.190468 -0.8511,3.264709 -0.11029,0.29591 -0.13861,0.282816 -1.00982,-0.467016 C 121.31966,40.106242 109.76604,36.035332 98.4125,36.411258 88.727705,36.731929 80.011027,39.716647 72.152604,45.40303 61.689061,52.974485 54.49053,64.49296 52.252276,77.245833 c -1.710668,9.746852 -0.391236,20.014561 3.719866,28.947687 3.880178,8.43135 10.509681,16.28299 18.930836,22.42071 0.857862,0.62525 1.572237,1.18046 1.5875,1.2338 0.03367,0.1177 -0.42873,0.24936 -1.824333,0.51944 -0.582083,0.11264 -1.178714,0.2294 -1.325846,0.25946 -0.172936,0.0353 -0.743923,-0.26738 -1.615055,-0.8562 z m 5.931613,-65.02694 c -0.739376,-0.230552 -1.500822,-0.972198 -1.88645,-1.837396 -0.420012,-0.942338 -0.417252,-2.661127 0.0065,-4.049103 1.034193,-3.387441 3.590326,-6.057004 6.213038,-6.488744 2.6591,-0.43773 4.33977,1.964857 3.673754,5.251782 -0.694705,3.428508 -3.149135,6.42384 -5.832899,7.11834 -0.945232,0.244605 -1.402467,0.245682 -2.173942,0.0051 z M 131.78307,54.632958 c -0.81855,-0.866618 -1.48828,-1.655405 -1.48828,-1.752861 0,-0.09746 0.27153,-0.58194 0.60339,-1.07663 l 0.60338,-0.899436 0.36475,0.23939 c 0.20061,0.131665 1.00065,0.922977 1.77786,1.758472 1.18875,1.277885 1.41312,1.586702 1.41312,1.944965 0,0.381059 -0.0843,0.475283 -0.80084,0.895241 -0.44046,0.258147 -0.84229,0.468721 -0.89296,0.467943 -0.0507,-7.79e-4 -0.76186,-0.710467 -1.58042,-1.577084 z m 4.68779,-0.47651 c -0.12262,-0.25713 -0.22294,-0.52802 -0.22294,-0.601977 0,-0.07396 1.39172,-0.820139 3.09271,-1.658181 2.84845,-1.403369 3.13317,-1.516151 3.60495,-1.427985 0.60224,0.112546 1.37213,0.81255 1.37213,1.24757 0,0.531434 -0.89875,1.262291 -1.92116,1.56227 -0.88295,0.259062 -5.41167,1.345812 -5.60829,1.345812 -0.052,0 -0.19479,-0.210379 -0.3174,-0.467509 z m -1.4789,-2.177471 -0.37263,-0.388943 1.81989,-1.921867 c 1.00094,-1.057027 2.09966,-2.219864 2.44161,-2.58408 0.5723,-0.609577 0.67032,-0.662213 1.23321,-0.662213 0.73529,0 1.32797,0.427978 1.55802,1.125051 0.27064,0.820045 0.0514,1.037819 -2.72999,2.711407 -1.3906,0.836745 -2.76442,1.653707 -3.05292,1.815471 l -0.52456,0.294116 z m -1.95729,-1.796893 -0.50127,-0.465965 0.41336,-0.820299 c 1.50741,-2.991433 2.87694,-5.468957 3.20382,-5.795836 0.53691,-0.536909 1.28779,-0.535092 1.82731,0.0044 0.32229,0.322297 0.38669,0.494777 0.38669,1.03565 0,0.628959 -0.0459,0.705963 -1.48828,2.499456 -0.81855,1.017777 -1.87523,2.334382 -2.34817,2.925788 -0.47295,0.591406 -0.88967,1.076963 -0.92605,1.079016 -0.0364,0.0021 -0.29171,-0.205952 -0.56741,-0.462232 z"
         id="path4" /><path
         style="fill:#042654"
         d="m 83.992458,148.31953 2.5e-4,-5.45703 h 1.72368 1.723679 l 1.593831,2.41352 c 0.876608,1.32743 1.613347,2.43303 1.6372,2.45688 0.02385,0.0239 0.796696,-1.06223 1.71743,-2.41351 l 1.674062,-2.45689 h 1.711934 1.711934 v 5.42396 5.42396 h -1.639304 c -1.592225,0 -1.641204,-0.009 -1.705454,-0.29766 -0.03638,-0.16371 -0.04875,-1.35433 -0.02749,-2.64583 0.02126,-1.2915 -0.0058,-2.34818 -0.06006,-2.34818 -0.0543,0 -0.683668,0.8632 -1.398604,1.91823 l -1.299884,1.91823 -0.737988,-0.001 -0.737989,-0.001 -1.256057,-1.91687 c -0.690831,-1.05428 -1.301027,-1.91687 -1.35599,-1.91687 -0.05496,0 -0.09993,1.18713 -0.09993,2.63806 v 2.63805 l -1.58775,0.0409 -1.587751,0.0408 z m 18.488012,5.42433 -1.68672,-0.0414 v -5.42 -5.42001 h 1.71979 1.71979 v 5.49011 c 0,3.01955 -0.0149,5.47716 -0.0331,5.46135 -0.0182,-0.0158 -0.7921,-0.0474 -1.71979,-0.0701 z m 11.75604,-1.95167 c -0.95475,-1.09141 -2.05412,-2.35645 -2.44305,-2.8112 -0.38893,-0.45475 -0.76078,-0.82682 -0.82634,-0.82682 -0.067,0 -0.1192,1.21761 -0.1192,2.77812 v 2.77813 h -1.5875 -1.5875 v -5.42396 -5.42396 h 1.65325 1.65325 l 2.34857,2.76871 c 1.29171,1.5228 2.39322,2.77295 2.44779,2.77813 0.0546,0.005 0.0992,-1.24075 0.0992,-2.76871 v -2.77813 h 1.65365 1.65364 v 5.41618 5.41618 l -1.60493,0.0409 -1.60494,0.0408 z m -74.164636,-3.50573 v -5.42396 h 4.61613 4.616129 l 0.871622,0.89297 0.871623,0.89297 0.0024,1.25119 0.0024,1.25119 -0.489869,0.50168 -0.489869,0.50167 0.489869,0.50167 0.489869,0.50167 v 1.45345 1.45346 l -0.830382,0.823 -0.830382,0.823 H 44.731692 40.07197 Z m 7.507552,2.48022 c 0.210669,-0.16736 0.215086,-0.92237 0.0066,-1.13085 -0.109638,-0.10963 -0.784931,-0.15875 -2.182813,-0.15875 h -2.024062 v 0.71791 c 0,0.57505 0.04607,0.72859 0.23151,0.77164 0.436047,0.10121 3.803191,-0.0684 3.96875,-0.19995 z m -0.140818,-3.95849 c 0.365242,-0.34313 0.390374,-0.65647 0.07467,-0.931 -0.275518,-0.23958 -2.339887,-0.41101 -3.420293,-0.28403 l -0.713821,0.0839 v 0.6212 c 0,0.34166 0.03969,0.66088 0.08819,0.70939 0.04851,0.0485 0.89299,0.0882 1.87663,0.0882 1.654155,0 1.811424,-0.0216 2.094618,-0.28764 z m 6.048424,6.47228 c 1.26908,-2.87872 3.885084,-8.6348 4.389019,-9.65729 l 0.374899,-0.76068 h 1.802181 1.802182 l 2.34736,5.24053 c 1.291048,2.8823 2.379034,5.32308 2.417747,5.42396 0.05781,0.15064 -0.240511,0.18343 -1.669092,0.18343 H 63.21185 l -0.385809,-0.8599 -0.385809,-0.85989 h -2.461226 -2.461225 l -0.389896,0.85989 -0.389895,0.8599 h -1.72025 -1.72025 z m 7.762354,-3.98394 c 0.02178,-0.23267 -1.1496,-2.85118 -1.260268,-2.81721 -0.06872,0.0211 -0.387912,0.65195 -0.709316,1.40189 -0.471216,1.09951 -0.549489,1.38686 -0.404223,1.48396 0.203615,0.1361 2.36048,0.0737 2.373807,-0.0686 z m 8.058947,-1.01007 v -5.42396 h 4.666385 4.666385 l 1.022156,1.02819 1.022157,1.02819 v 3.37361 3.37361 l -1.028187,1.02216 -1.028187,1.02216 h -4.660355 -4.660354 z m 7.735173,2.25326 c 0.197324,-0.21805 0.24432,-0.57552 0.289563,-2.2026 0.07399,-2.66107 0.170619,-2.5642 -2.557692,-2.5642 h -2.027461 v 2.51354 2.51354 h 2.030017 c 1.850834,0 2.050809,-0.023 2.265573,-0.26028 z m 49.017954,-0.79805 v -3.96875 h -1.98438 -1.98437 v -1.45521 -1.45521 h 5.62239 5.6224 v 1.45521 1.45521 h -1.91823 -1.91823 v 3.96875 3.96875 h -1.71979 -1.71979 z m 10.74539,3.00652 -0.95581,-0.96222 v -3.52168 -3.52167 l 1.04279,-0.94006 1.04278,-0.94006 h 3.55746 3.55745 l 1.02216,1.02819 1.02215,1.02819 v 3.37361 3.37361 l -1.02818,1.02216 -1.02819,1.02216 h -3.63841 -3.6384 z m 6.67551,-2.23583 c 0.29277,-0.27504 0.30618,-0.37175 0.30618,-2.20736 0,-2.60026 0.0636,-2.53208 -2.36082,-2.53208 -2.3966,0 -2.26939,-0.13961 -2.26939,2.49055 0,2.67804 -0.12429,2.53653 2.22787,2.53653 1.65574,0 1.81294,-0.0216 2.09616,-0.28764 z m 6.65618,-2.2259 v -5.42396 h 1.62904 1.62905 l 2.37278,2.77779 c 1.30503,1.52778 2.41743,2.77794 2.472,2.77813 0.0546,1.8e-4 0.0992,-1.24983 0.0992,-2.77779 v -2.77813 h 1.65364 1.65365 v 5.42396 5.42396 h -1.69684 -1.69683 l -2.37113,-2.76807 -2.37114,-2.76807 -0.0357,2.76807 -0.0357,2.76807 h -1.65101 -1.65102 z M 120.37686,132.1366 c 7.89464,-4.79498 15.04786,-11.76007 19.59508,-19.07972 6.26869,-10.09068 8.85862,-21.111055 7.70848,-32.800239 -0.7783,-7.910006 -3.63594,-15.672645 -8.2064,-22.292256 -0.46467,-0.673 -0.84485,-1.25343 -0.84485,-1.289844 0,-0.03641 0.22324,-0.06629 0.49609,-0.06639 0.27285,-10e-5 1.00211,-0.08931 1.62057,-0.198257 0.61847,-0.108942 1.19464,-0.198157 1.28038,-0.198257 0.23123,-2.68e-4 2.03958,2.921067 3.22379,5.20796 2.76152,5.332895 4.52124,10.853936 5.40268,16.950714 0.51657,3.572985 0.5285,10.340089 0.0247,14.022917 -1.04667,7.651582 -3.71754,15.154112 -7.60589,21.365102 -2.3149,3.69768 -4.49637,6.41493 -7.81037,9.72868 -3.45216,3.45188 -6.778,5.99308 -10.05958,7.68627 -1.71084,0.88274 -2.4332,1.13165 -4.17236,1.43771 -1.83121,0.32227 -1.89163,0.27833 -0.65234,-0.47439 z M 71.557291,129.6133 C 61.173996,122.55934 53.193193,111.205 50.057432,99.02532 c -1.27555,-4.95439 -1.705337,-8.326226 -1.705337,-13.378966 0,-3.851973 0.18385,-6.004554 0.796575,-9.326563 2.331121,-12.638625 9.184975,-24.067886 19.246123,-32.094201 7.460628,-5.951741 16.242178,-9.616882 25.850519,-10.789188 2.28208,-0.278435 9.192498,-0.240224 11.443228,0.06327 9.29329,1.253151 17.03074,4.406944 24.40781,9.948661 2.11205,1.58658 1.9937,1.309113 1.31646,3.086541 -0.31478,0.826138 -0.5948,1.524537 -0.62226,1.552 -0.0275,0.02746 -0.40325,-0.250998 -0.83508,-0.618802 -2.87022,-2.444632 -7.01698,-5.119106 -10.46799,-6.751383 -8.48955,-4.015438 -18.35721,-5.313329 -27.950612,-3.676337 -11.407441,1.946535 -22.351795,8.712218 -29.727706,18.377351 -5.107963,6.693293 -8.319963,14.087798 -9.682754,22.291146 -0.483807,2.912292 -0.608774,4.566691 -0.604561,8.003646 0.0097,7.951929 1.56755,14.752135 4.954963,21.629685 4.052273,8.22743 10.503499,15.6628 18.628449,21.47026 l 1.497446,1.07033 -0.55469,0.14938 c -0.785812,0.21159 -2.476475,0.52744 -2.815643,0.52601 -0.15731,-6.6e-4 -0.911096,-0.42585 -1.675081,-0.94487 z M 93.555622,98.854654 C 83.654031,98.22526 73.878723,96.253944 65.057493,93.107642 62.519209,92.202303 58.166627,90.431306 56.19772,89.502741 l -1.270508,-0.59919 -0.07195,-1.76089 c -0.08471,-2.073189 0.07292,-5.352264 0.364466,-7.581724 1.898573,-14.518263 10.670786,-27.363739 23.41517,-34.287701 6.623645,-3.598594 13.414143,-5.357451 20.769792,-5.379738 3.24442,-0.0098 4.93856,0.126744 8.00364,0.645217 7.25849,1.227809 14.54339,4.656156 20.58752,9.688687 1.23842,1.031143 1.3729,1.186254 1.3729,1.583461 0,0.242189 0.0907,0.657399 0.20154,0.92269 0.198,0.473896 0.19465,0.489469 -0.19173,0.88872 -0.79328,0.819699 -0.99188,1.830972 -0.55047,2.802979 0.64528,1.420955 2.47125,1.821588 3.65166,0.801207 l 0.50375,-0.435457 0.47465,0.245244 c 0.31055,0.160452 0.6184,0.219201 0.89039,0.169921 0.39088,-0.07082 0.45897,-0.01779 1.13918,0.88712 5.13657,6.833421 8.26612,15.019702 8.95563,23.426158 0.14949,1.822511 0.18644,6.600254 0.0571,7.382199 -0.0789,0.477028 -0.0796,0.477433 -2.28057,1.413774 -9.27944,3.947589 -16.99572,6.187515 -26.01415,7.55153 -3.03028,0.458322 -6.53441,0.868263 -6.62735,0.775321 -0.0347,-0.03469 0.0541,-0.360294 0.19726,-0.723559 0.14318,-0.363264 0.41495,-1.228023 0.60393,-1.921686 1.58266,-5.809435 0.89871,-10.676314 -1.96918,-14.012294 -0.82641,-0.961298 -0.8572,-1.020625 -0.57386,-1.105905 0.53778,-0.161859 3.16345,-1.65144 4.59134,-2.604732 2.05012,-1.368709 3.45925,-2.50006 5.15182,-4.136245 4.76,-4.601443 7.71243,-9.955412 8.03713,-14.574644 0.0477,-0.679294 0.0539,-1.23508 0.0137,-1.23508 -0.0402,0 -0.39133,0.431529 -0.78021,0.958953 -2.84741,3.861855 -7.11083,8.044716 -11.19668,10.985118 -7.68642,5.531572 -17.209705,8.919711 -26.64199,9.47853 -2.457387,0.145589 -5.811617,0.0076 -7.898153,-0.324906 -2.729976,-0.43505 -5.36651,-1.378375 -5.959508,-2.132249 -0.551904,-0.701632 -0.236571,-2.345825 1.079859,-5.630553 0.915286,-2.283801 2.647056,-5.609278 2.890762,-5.55106 1.576198,0.376529 2.902089,0.241447 4.288453,-0.436908 4.322536,-2.11504 7.09299,-8.619769 5.267192,-12.366802 -1.935,-3.971145 -7.471603,-2.925021 -10.684297,2.018764 -2.215909,3.409904 -2.557753,7.084586 -0.866882,9.318613 l 0.503886,0.665749 -0.243259,0.400007 c -0.673904,1.108146 -3.07661,5.63406 -3.981347,7.499557 -1.639551,3.380629 -2.010785,4.867876 -1.489357,5.966705 0.610622,1.28679 3.789632,3.07605 7.705639,4.337008 3.39466,1.093084 7.108424,1.694335 11.924363,1.930531 2.829315,0.138763 3.655079,0.298745 5.12836,0.993559 3.472237,1.63754 4.737469,5.422831 3.759023,11.246156 l -0.222279,1.322916 h -1.124479 c -0.618463,0 -2.208746,-0.06892 -3.533961,-0.153158 z m 7.908648,-25.922736 c 2.06046,-0.610427 3.64569,-2.448961 3.94264,-4.572631 0.51402,-3.676079 -2.65547,-6.865382 -6.266806,-6.305986 -2.384497,0.369359 -4.313662,2.301609 -4.701338,4.708857 -0.32843,2.039359 0.598226,4.210433 2.296245,5.379903 1.358865,0.935886 3.19898,1.243213 4.729259,0.789857 z M 77.30262,64.56667 c -1.156349,-0.539497 -1.776579,-1.792444 -1.776579,-3.588929 0,-1.34404 0.261983,-2.307651 1.079673,-3.971184 0.586309,-1.192806 0.841745,-1.546297 1.818668,-2.516807 1.568997,-1.558697 2.534747,-2.036081 4.133766,-2.043379 1.065848,-0.0049 1.184798,0.0226 1.718133,0.396774 0.384279,0.269597 0.704267,0.658805 0.971539,1.181703 0.376651,0.736891 0.398239,0.863729 0.393162,2.30998 -0.0046,1.319848 -0.05544,1.673972 -0.369491,2.575268 -0.533502,1.531109 -1.322054,2.79092 -2.458229,3.927333 -1.362101,1.362386 -2.428156,1.892235 -3.910645,1.943666 -0.822473,0.02853 -1.182725,-0.01975 -1.599997,-0.214425 z m 54.54332,-9.889346 c -0.78397,-0.827202 -1.45857,-1.590423 -1.4991,-1.696048 -0.0689,-0.17961 0.8487,-1.683896 1.1352,-1.860961 0.24145,-0.149221 0.64054,0.189484 2.11076,1.791375 1.81817,1.981007 1.84385,2.099182 0.61046,2.808569 -0.46972,0.270159 -0.87156,0.484419 -0.89297,0.476134 -0.0214,-0.0083 -0.68037,-0.691867 -1.46435,-1.519069 z m 4.64585,-0.579407 c -0.16372,-0.38877 -0.18045,-0.552104 -0.0662,-0.645693 0.0842,-0.0689 1.42287,-0.756186 2.97493,-1.527294 2.96071,-1.470973 3.37364,-1.591287 4.12604,-1.202207 0.79573,0.411488 0.88658,1.207776 0.21055,1.845357 -0.48221,0.454786 -1.28261,0.70698 -4.84341,1.526094 -0.98226,0.225957 -1.87523,0.436329 -1.98437,0.467493 -0.13126,0.03748 -0.27264,-0.119527 -0.41759,-0.46375 z m -1.42733,-2.178308 -0.31086,-0.330897 0.86458,-0.962846 c 0.47553,-0.529565 1.57077,-1.693331 2.43388,-2.586146 1.38834,-1.436121 1.61963,-1.622986 2.00581,-1.620573 1.10139,0.0069 1.90441,1.076384 1.53364,2.042588 -0.0687,0.179007 -5.42673,3.485978 -6.0114,3.710226 -0.12257,0.04701 -0.32959,-0.0543 -0.51565,-0.252352 z m -2.02415,-1.823987 -0.47971,-0.432602 1.56299,-2.976563 c 1.65903,-3.159445 2.23762,-3.96875 2.83738,-3.96875 0.62299,0 1.11445,0.350267 1.28359,0.914828 0.21136,0.705446 0.0983,1.04173 -0.70042,2.083858 -1.09786,1.432388 -3.81216,4.737015 -3.9229,4.776104 -0.0557,0.01965 -0.31709,-0.158944 -0.58093,-0.396875 z"
         id="path3" /></g></g></svg>
