<?xml version="1.0" encoding="UTF-8" standalone="no"?>
<!-- Created with Inkscape (http://www.inkscape.org/) -->

<svg
   width="297mm"
   height="297mm"
   viewBox="0 0 297 297"
   version="1.1"
   id="svg1"
   xml:space="preserve"
   sodipodi:docname="logo_badminton_motus.svg"
   inkscape:version="1.4.2 (f4327f4, 2025-05-13)"
   xmlns:inkscape="http://www.inkscape.org/namespaces/inkscape"
   xmlns:sodipodi="http://sodipodi.sourceforge.net/DTD/sodipodi-0.dtd"
   xmlns="http://www.w3.org/2000/svg"
   xmlns:svg="http://www.w3.org/2000/svg"><sodipodi:namedview
     id="namedview1"
     pagecolor="#ffffff"
     bordercolor="#999999"
     borderopacity="1"
     inkscape:showpageshadow="2"
     inkscape:pageopacity="0"
     inkscape:pagecheckerboard="0"
     inkscape:deskcolor="#d1d1d1"
     inkscape:document-units="mm"
     inkscape:zoom="0.58"
     inkscape:cx="548.27586"
     inkscape:cy="590.51724"
     inkscape:window-width="1680"
     inkscape:window-height="979"
     inkscape:window-x="-8"
     inkscape:window-y="-8"
     inkscape:window-maximized="1"
     inkscape:current-layer="g31543" /><defs
     id="defs1" /><g
     inkscape:label="Livello 1"
     inkscape:groupmode="layer"
     id="layer1"><g
       id="g31543"><g
         id="g2"
         transform="translate(0,1.1404458)"><g
           id="g1"
           transform="translate(-0.00871214,-57.777766)"><path
             style="fill:#339a5d"
             d="m 149.95521,252.41277 c -1.45521,0.0714 -3.06255,0.0814 -3.57188,0.0221 -0.50932,-0.0593 -1.6895,-0.23224 -2.62261,-0.38435 -0.93311,-0.1521 -2.42139,-0.52444 -3.30729,-0.82742 -0.8859,-0.30297 -2.3251,-0.90727 -3.19822,-1.34287 -0.87313,-0.4356 -2.12328,-1.15495 -2.77813,-1.59857 -0.65484,-0.44361 -1.9478,-1.46579 -2.87324,-2.27152 -0.92544,-0.80573 -2.18571,-2.12359 -2.80061,-2.92857 -0.6149,-0.80499 -2.93966,-4.18002 -5.16613,-7.50008 -2.23862,-3.33817 -3.94346,-6.13155 -3.81397,-6.2492 0.12879,-0.11701 1.84151,-0.89238 3.80604,-1.72304 1.96453,-0.83067 4.70297,-2.1149 6.08541,-2.85385 1.38245,-0.73895 3.63677,-2.04931 5.00961,-2.91192 1.37283,-0.8626 3.69376,-2.48123 5.15761,-3.59694 1.46386,-1.11572 4.21016,-3.58197 6.1029,-5.48055 1.89274,-1.89859 4.24051,-4.57749 5.21726,-5.95313 0.97676,-1.37563 2.38188,-3.59089 3.1225,-4.92278 0.74062,-1.3319 1.76635,-3.4155 2.2794,-4.63021 0.51306,-1.21472 1.29893,-3.5778 1.74639,-5.25129 0.74395,-2.78233 0.81579,-3.41628 0.83947,-7.40833 0.0207,-3.49571 -0.073,-4.73468 -0.47049,-6.21771 -0.27301,-1.01864 -0.82472,-2.58218 -1.22603,-3.47452 -0.4013,-0.89235 -1.03892,-2.0776 -1.41693,-2.63389 -0.37801,-0.5563 -1.31458,-1.66082 -2.08126,-2.4545 -0.76668,-0.79367 -2.16787,-1.94612 -3.11376,-2.56099 -0.94589,-0.61487 -2.44412,-1.42256 -3.32942,-1.79487 -0.88529,-0.37231 -2.55217,-0.92653 -3.70416,-1.2316 -1.152,-0.30508 -3.29783,-0.66298 -4.76851,-0.79534 -1.87238,-0.16851 -4.24108,-0.13097 -7.90163,0.12521 -3.6867,0.25802 -6.29111,0.29822 -8.83541,0.13639 -1.98426,-0.12621 -4.39931,-0.35684 -5.36677,-0.51252 -0.96746,-0.15568 -2.76152,-0.57356 -3.9868,-0.92863 -1.22528,-0.35508 -2.87451,-0.89842 -3.66494,-1.20744 -0.79043,-0.30902 -2.33012,-1.04701 -3.42153,-1.63997 -1.0914,-0.59296 -2.43635,-1.43284 -2.98876,-1.86639 -0.55241,-0.43355 -1.0573,-0.73536 -1.12197,-0.67069 -0.0647,0.0647 0.18843,1.02775 0.56245,2.14017 0.37402,1.11242 1.16257,2.7705 1.75232,3.68463 0.58976,0.91412 1.86923,2.43594 2.84326,3.38183 0.97403,0.94588 2.81499,2.36607 4.09101,3.15597 1.45868,0.90296 3.41586,1.80591 5.27159,2.43204 1.62336,0.54772 3.90406,1.19215 5.06823,1.43206 1.21626,0.25065 4.48023,0.5337 7.67292,0.6654 3.05593,0.12606 6.12062,0.34958 6.8104,0.49671 0.68979,0.14714 1.88041,0.53127 2.64583,0.85362 0.76543,0.32235 1.88707,0.91989 2.49255,1.32787 0.60548,0.40797 1.62908,1.34558 2.27466,2.08358 0.82311,0.94094 1.38003,1.94983 1.86411,3.37697 0.37968,1.11933 0.82475,2.97112 0.98905,4.11508 0.1643,1.14396 0.2184,2.81084 0.12022,3.70417 -0.0982,0.89333 -0.41859,2.75533 -0.71202,4.13778 -0.29342,1.38245 -0.82434,3.28744 -1.17982,4.23333 -0.35547,0.94589 -1.26561,2.94856 -2.02252,4.45038 -0.75692,1.50182 -2.31885,4.00214 -3.47096,5.55625 -1.15211,1.55411 -3.53336,4.29724 -5.29167,6.09584 -1.7583,1.7986 -4.36184,4.20968 -5.78563,5.35795 -1.42378,1.14827 -3.80503,2.90367 -5.29166,3.9009 -1.48663,0.99722 -3.20177,2.06747 -3.81142,2.37832 l -1.10845,0.56518 -0.56392,-0.79194 c -0.31015,-0.43557 -1.63785,-2.36908 -2.95044,-4.29669 -1.31258,-1.9276 -8.07747,-12.0177 -15.033073,-22.42244 C 92.072763,188.48276 83.934602,176.33839 80.943566,171.9 c -2.991036,-4.43838 -7.282085,-10.80823 -9.535664,-14.15521 -2.253579,-3.34698 -5.765747,-8.57378 -7.804818,-11.61511 -2.039071,-3.04133 -3.961712,-6.12086 -4.272535,-6.84338 -0.310822,-0.72253 -0.808408,-2.27572 -1.105745,-3.45152 -0.432475,-1.71021 -0.516336,-2.69646 -0.419247,-4.93058 0.09568,-2.20165 0.289197,-3.27533 0.914324,-5.07285 0.436127,-1.25406 1.355252,-3.12593 2.042501,-4.1597 0.687249,-1.03377 1.927251,-2.48677 2.75556,-3.22889 0.828309,-0.74212 2.220392,-1.74848 3.093517,-2.23635 0.873125,-0.48787 2.361406,-1.16397 3.307291,-1.50245 l 2.778125,-0.61542 74.945155,-0.0693 c 66.54974,-0.0615 75.18352,-0.0201 76.86146,0.32571 1.05397,0.21725 3.98667,0.89051 5.22359,1.49614 1.78633,0.87464 2.69271,1.54833 4.40614,3.27498 1.69542,1.7085 2.38687,2.64907 3.23018,4.39397 0.59014,1.22108 1.25476,2.99405 1.47692,3.93993 0.22217,0.94589 0.4057,2.75381 0.40785,4.0176 0.002,1.26379 -0.1776,3.16879 -0.39945,4.23333 -0.22185,1.06454 -0.80441,2.76897 -1.29458,3.78761 -0.49016,1.01865 -4.05056,6.55506 -7.91199,12.30313 -3.86143,5.74807 -13.38908,19.97604 -21.17257,31.61771 -7.78348,11.64166 -17.92234,26.7626 -22.5308,33.60208 -4.60846,6.83948 -10.36332,15.39822 -12.78858,19.01944 -2.42527,3.62121 -5.16144,7.39775 -6.08039,8.3923 -0.91895,0.99456 -2.46676,2.40582 -3.43958,3.13613 -0.97283,0.73032 -2.74749,1.80504 -3.9437,2.38828 -1.19621,0.58323 -3.2798,1.34722 -4.63021,1.69775 -1.4151,0.36733 -3.57618,0.69235 -5.10111,0.76719 z m 9.55234,-82.62922 c 0.20853,0 1.56985,-0.59752 3.02515,-1.32782 1.4553,-0.73031 3.95962,-2.10758 5.56515,-3.0606 1.60553,-0.95303 4.21346,-2.70699 5.79542,-3.89769 1.58195,-1.19071 4.05413,-3.20757 5.49373,-4.48191 1.43961,-1.27434 3.44996,-3.23887 4.46746,-4.36563 1.01749,-1.12675 2.33773,-2.70348 2.93386,-3.50384 0.59612,-0.80037 1.51095,-2.2371 2.03294,-3.19273 0.52199,-0.95564 1.0706,-2.37832 1.21913,-3.16152 0.18545,-0.97786 0.18377,-1.68544 -0.005,-2.25847 -0.15147,-0.45896 -0.53983,-1.07236 -0.86303,-1.36312 -0.3232,-0.29075 -0.79941,-0.60349 -1.05825,-0.69498 -0.35662,-0.12603 -1.38213,0.7493 -4.23334,3.6134 -2.06949,2.07885 -4.78783,4.5736 -6.04076,5.54389 -1.25293,0.97029 -3.69371,2.6727 -5.42396,3.78313 -1.73025,1.11044 -4.69372,2.77147 -6.58549,3.69119 -1.89177,0.91972 -4.87136,2.20494 -6.62132,2.85605 -1.74995,0.65111 -4.72651,1.55756 -6.61458,2.01433 -1.88807,0.45676 -3.78615,0.91862 -4.21795,1.02635 -0.76479,0.19079 -0.74425,0.21141 0.79375,0.79677 0.86836,0.3305 2.37173,1.07021 3.3408,1.64379 0.96908,0.57359 2.42343,1.64743 3.23189,2.38632 0.80847,0.7389 1.90097,1.93062 2.42777,2.64827 0.52681,0.71765 1.12845,1.30482 1.33698,1.30482 z M 147.04479,155.475 c 0.87313,0.008 2.18281,-0.14408 2.91042,-0.33796 0.7276,-0.19389 1.73903,-0.5678 2.24762,-0.83092 0.50858,-0.26312 1.64009,-1.2044 2.51447,-2.09174 0.87438,-0.88733 1.86492,-2.17753 2.20122,-2.8671 0.33629,-0.68958 0.73373,-2.03931 0.88321,-2.9994 0.18981,-1.21919 0.18562,-2.23468 -0.0139,-3.36724 -0.15711,-0.89188 -0.5994,-2.2629 -0.98288,-3.04671 -0.38349,-0.78381 -1.31222,-2.03811 -2.06386,-2.78733 -0.75164,-0.74922 -2.0169,-1.68845 -2.81168,-2.08718 -0.79479,-0.39873 -2.11975,-0.84941 -2.94436,-1.00152 -1.01296,-0.18685 -2.02651,-0.19165 -3.12467,-0.0148 -0.89396,0.14397 -2.24334,0.54823 -2.99862,0.89835 -0.75529,0.35012 -1.92519,1.12765 -2.59979,1.72783 -0.6746,0.60018 -1.5835,1.65864 -2.01978,2.35212 -0.43628,0.69349 -0.9996,1.89912 -1.25182,2.67917 -0.34013,1.05192 -0.43009,2.01428 -0.34827,3.72556 0.0891,1.8628 0.2577,2.60897 0.87542,3.87339 0.4208,0.86136 1.37634,2.17816 2.1234,2.92622 0.74707,0.74806 1.88512,1.63088 2.52899,1.96182 0.64388,0.33094 1.64694,0.75272 2.22902,0.93729 0.58208,0.18457 1.77271,0.34214 2.64583,0.35015 z"
             id="path31572"
             sodipodi:nodetypes="cssssssssssssssssssssssssssssssssssssssssssssssssssssssssscsscssssssssssscsssssscsssssssssscccsssssssscsssssssssssssccsssssssssssssssssssssss" /><path
             style="fill:#334f74"
             d="m 143.83504,199.04431 c -0.75831,1.6106 -0.75981,1.61186 -1.68503,1.41989 -0.50932,-0.10568 -2.71198,-0.27062 -4.89479,-0.36652 -2.18281,-0.0959 -5.69516,-0.3514 -7.80521,-0.56776 -2.11005,-0.21636 -6.31825,-0.80571 -9.35156,-1.30967 -3.0333,-0.50396 -7.61721,-1.44706 -10.18646,-2.09579 -2.56924,-0.64873 -6.39776,-1.77063 -8.50781,-2.4931 -2.110055,-0.72247 -4.420043,-1.5653 -5.133309,-1.87296 -0.713266,-0.30766 -1.546704,-0.59532 -1.852083,-0.63926 -0.352765,-0.0507 -1.074218,-0.84389 -1.978442,-2.17503 -0.782762,-1.15234 -4.732637,-7.03625 -8.777499,-13.07537 -4.044862,-6.03911 -9.1666,-13.65911 -11.381639,-16.93333 -2.215038,-3.27422 -5.779689,-8.5725 -7.921446,-11.77396 -2.141757,-3.20146 -4.194378,-6.41615 -4.561381,-7.14375 -0.367002,-0.7276 -0.926545,-2.15635 -1.243428,-3.175 -0.316883,-1.01865 -0.644064,-2.8683 -0.727069,-4.11034 -0.106691,-1.59646 -0.01955,-2.91461 0.297355,-4.49792 0.259717,-1.29759 0.90192,-3.18564 1.526762,-4.48861 0.875085,-1.82481 1.508311,-2.67913 3.357519,-4.52984 1.665981,-1.66732 2.795069,-2.54009 4.19741,-3.24454 1.055107,-0.53002 3.661253,-1.1705 4.497916,-1.4233 1.427389,-0.43127 5.113392,-0.46279 75.869124,-0.51106 46.715,-0.0319 74.95194,0.0444 75.93542,0.20044 0.87312,0.13854 3.50597,0.5596 4.55725,0.9357 1.05128,0.3761 2.74369,1.2683 3.7609,1.98266 1.01722,0.71436 2.44431,2.01359 3.17132,2.88718 0.72701,0.87359 1.61643,2.09386 1.97649,2.7117 0.36006,0.61784 0.97296,2.07564 1.362,3.23954 0.48372,1.44717 0.75086,2.911 0.84499,4.63021 0.0951,1.73674 0.01,3.13031 -0.2755,4.50737 -0.22723,1.09635 -0.66216,2.6589 -0.96651,3.47234 -0.30434,0.81344 -2.37064,4.20268 -4.59177,7.53164 -2.22113,3.32897 -8.39383,12.54157 -13.71711,20.47245 -5.32328,7.93089 -11.15283,16.61645 -12.95455,19.30124 -1.80172,2.68479 -3.45444,4.96998 -3.67272,5.0782 -0.21828,0.10822 -1.5875,0.66733 -3.04271,1.24248 -1.45521,0.57514 -3.99488,1.47868 -5.64371,2.00787 -1.64883,0.52918 -5.10164,1.48119 -7.67291,2.11556 -2.57128,0.63437 -6.81817,1.51672 -9.43755,1.96078 -2.61937,0.44406 -6.4889,0.99133 -8.59896,1.21614 -2.11005,0.22482 -5.91793,0.52148 -8.46196,0.65923 -2.54403,0.13776 -4.65532,0.22067 -4.69175,0.18424 -0.0364,-0.0364 0.45745,-1.30898 1.0975,-2.82788 0.64006,-1.5189 1.40582,-3.71371 1.70169,-4.87735 0.29588,-1.16364 0.67522,-2.94915 0.84298,-3.9678 0.16777,-1.01864 0.29425,-3.11779 0.28108,-4.66477 -0.0132,-1.54698 -0.20207,-3.65945 -0.41977,-4.69438 -0.2177,-1.03492 -0.75285,-2.8053 -1.18922,-3.93418 -0.45948,-1.18868 -1.38771,-2.83198 -2.20554,-3.90458 -0.77668,-1.01865 -2.11812,-2.42643 -2.98097,-3.12841 -0.86286,-0.70197 -2.64039,-1.80059 -3.95008,-2.44137 -1.30969,-0.64078 -3.33375,-1.41007 -4.49791,-1.70952 -1.16417,-0.29946 -3.34054,-0.67946 -4.83637,-0.84445 -2.04998,-0.22612 -3.67881,-0.22318 -6.61459,0.0119 -2.14218,0.17154 -5.62128,0.30853 -7.73134,0.30441 -2.11005,-0.004 -5.05966,-0.18137 -6.55469,-0.39389 -1.49502,-0.21252 -3.45956,-0.57825 -4.36562,-0.81274 -0.90607,-0.23448 -2.36177,-0.67055 -3.23489,-0.96904 -0.87313,-0.2985 -2.65907,-1.07583 -3.96875,-1.72742 -1.30969,-0.65158 -2.9524,-1.60151 -3.65046,-2.11094 -0.69806,-0.50944 -1.33538,-0.86008 -1.41626,-0.7792 -0.0809,0.0809 0.11838,0.95833 0.44279,1.94989 0.32441,0.99156 1.00853,2.50131 1.52027,3.35499 0.51174,0.85369 1.62703,2.29682 2.47843,3.20697 0.8514,0.91015 2.4359,2.26862 3.5211,3.01882 1.08521,0.75021 2.84211,1.77289 3.90424,2.27262 1.06212,0.49974 3.00128,1.21536 4.30924,1.59027 1.30796,0.37491 3.46111,0.85593 4.78479,1.06893 1.32368,0.213 4.7779,0.49361 7.67606,0.62358 4.13298,0.18535 5.64439,0.35567 7.00825,0.78977 0.95639,0.3044 2.46458,1.02249 3.35154,1.59577 0.88696,0.57327 2.09576,1.65348 2.68622,2.40047 0.68035,0.86071 1.33909,2.15205 1.7985,3.52565 0.66293,1.98209 0.72454,2.50699 0.72024,6.13625 -0.004,3.42984 -0.0973,4.31006 -0.68689,6.48229 -0.3752,1.38245 -1.02372,3.23896 -1.44116,4.12557 z m 15.51739,-28.9964 c 0.0828,0 1.63367,-0.75568 3.44644,-1.67928 1.81276,-0.92361 4.41339,-2.3596 5.77918,-3.1911 1.36578,-0.8315 3.38985,-2.1793 4.49791,-2.99512 1.10807,-0.81581 2.90764,-2.20694 3.99905,-3.09138 1.09141,-0.88445 2.97231,-2.55329 4.1798,-3.70855 1.20748,-1.15525 3.01676,-3.0679 4.02063,-4.25033 1.00387,-1.18244 2.32096,-2.9659 2.92688,-3.96325 0.60591,-0.99735 1.3267,-2.46747 1.60176,-3.26693 0.27505,-0.79947 0.5001,-1.80389 0.5001,-2.23206 0,-0.42817 -0.19465,-1.18868 -0.43256,-1.69002 -0.2379,-0.50135 -0.77963,-1.09102 -1.20384,-1.31039 -0.42422,-0.21937 -0.97371,-0.33326 -1.2211,-0.25309 -0.24739,0.0802 -1.04511,0.87618 -1.77271,1.7689 -0.72761,0.89273 -2.55134,2.73749 -4.05274,4.09947 -1.5014,1.36197 -3.4064,2.99624 -4.23333,3.63169 -0.82693,0.63545 -2.57508,1.86433 -3.88477,2.73083 -1.30968,0.86651 -3.3573,2.13293 -4.55025,2.81427 -1.19295,0.68134 -3.27655,1.72735 -4.63021,2.32447 -1.35366,0.59712 -3.35417,1.44368 -4.44558,1.88124 -1.0914,0.43757 -3.11547,1.13773 -4.49791,1.55593 -1.38245,0.41819 -3.46605,0.94557 -4.63021,1.17195 -1.16417,0.22638 -2.40476,0.47414 -2.75688,0.55057 -0.53272,0.11563 -0.3022,0.2859 1.37299,1.01413 1.10726,0.48135 2.53942,1.18356 3.18258,1.56048 0.64317,0.37692 1.7824,1.16986 2.53163,1.76209 0.74923,0.59223 1.98332,1.90674 2.74244,2.92113 0.75911,1.01439 1.44793,1.84435 1.5307,1.84435 z m -11.77846,-14.63078 c 2.01231,-0.0618 2.64981,-0.19885 4.11465,-0.88476 1.0694,-0.50074 2.27527,-1.35851 3.14794,-2.23921 0.82189,-0.82945 1.75815,-2.14808 2.23468,-3.14733 0.74759,-1.56764 0.82021,-1.95388 0.82081,-4.36563 6.1e-4,-2.42999 -0.0686,-2.79204 -0.84828,-4.43808 -0.52622,-1.11092 -1.40196,-2.34525 -2.30368,-3.24697 -0.85137,-0.85137 -2.13305,-1.77553 -3.09018,-2.22818 -0.89949,-0.42539 -2.27936,-0.85389 -3.06637,-0.95223 -0.82835,-0.10349 -2.12214,-0.044 -3.07233,0.1412 -0.90278,0.17599 -2.31994,0.68 -3.14926,1.12002 -0.82932,0.44002 -2.06917,1.35223 -2.75522,2.02714 -0.68606,0.6749 -1.58264,1.94199 -1.9924,2.81575 -0.40977,0.87375 -0.85836,2.18623 -0.99688,2.91662 -0.14669,0.77353 -0.16066,2.06321 -0.0334,3.08897 0.12012,0.96855 0.52031,2.42047 0.88932,3.22649 0.36901,0.80602 1.24071,2.07464 1.9371,2.81914 0.6964,0.7445 1.78058,1.6551 2.40929,2.02355 0.62872,0.36845 1.64485,0.83342 2.25806,1.03326 0.70003,0.22813 2.00111,0.33614 3.4962,0.29025 z"
             id="path31558"
             sodipodi:nodetypes="sssssssscsssssssssssssssssssscsssssssssssssssssssssssscsssssssssssssssssscssssssssssssssssssssssssssssssscssssssssssssscsssscc" /></g><g
           id="g31577"
           transform="matrix(0.84614229,0,0,0.84614229,10.95974,-17.200092)"><path
             style="fill:#339a5d;stroke-width:0.856093"
             d="m 231.78115,281.60828 c -1.2848,0 -2.40395,-0.068 -2.487,-0.15101 -0.083,-0.083 -0.151,-4.05826 -0.151,-8.8338 v -8.683 h 2.12546 2.12548 l 0.7625,0.86838 c 0.41938,0.47761 2.13855,2.53266 3.82037,4.56678 l 3.05785,3.6984 0.0613,-4.56678 0.0613,-4.56678 h 2.4869 2.4869 v 8.83381 8.83381 h -2.02609 -2.0261 l -1.5414,-1.76051 c -0.84777,-0.96828 -2.61166,-3.07075 -3.91974,-4.67214 l -2.37834,-2.91165 -0.0612,4.67215 -0.0612,4.67215 z"
             id="path31571" /><path
             style="fill:#339a5d;stroke-width:0.856093"
             d="m 198.56458,281.60828 h -2.49159 v -6.78827 -6.78826 l -2.77472,-0.0636 -2.77473,-0.0636 -0.0654,-1.98195 -0.0654,-1.98194 h 8.04985 8.04985 v 2.03857 2.03857 h -2.71809 -2.7181 v 6.79524 6.79523 z"
             id="path31570" /><path
             style="fill:#339a5d;stroke-width:0.856093"
             d="m 174.36138,281.60828 c -1.34708,0 -2.51719,-0.068 -2.60024,-0.15101 -0.083,-0.083 -0.15101,-4.05826 -0.15101,-8.8338 v -8.683 h 2.24046 2.24044 l 1.58764,1.98194 c 0.8732,1.09008 2.52693,3.10316 3.67495,4.47354 1.14802,1.37037 2.18135,2.52686 2.29627,2.56997 0.12376,0.0464 0.19793,-1.75418 0.18191,-4.41691 l -0.027,-4.49528 h 2.45336 2.45336 v 8.72055 8.72056 l -2.04162,0.0644 -2.04162,0.0644 -0.81448,-0.8572 c -0.44796,-0.47146 -1.55574,-1.77455 -2.46174,-2.89577 -0.90599,-1.12121 -2.27088,-2.82243 -3.0331,-3.78047 l -1.38585,-1.74191 -0.0612,4.62988 -0.0612,4.62989 z"
             id="path31569" /><path
             style="fill:#339a5d;stroke-width:0.856093"
             d="m 166.00407,281.55906 -2.54823,0.064 v -8.84864 -8.84865 l 2.54823,0.064 2.54821,0.064 v 8.72056 8.72056 z"
             id="path31568" /><path
             style="fill:#339a5d;stroke-width:0.856093"
             d="m 141.52233,281.60828 c -1.22503,0 -2.29528,-0.068 -2.37834,-0.15101 -0.083,-0.083 -0.151,-4.05826 -0.151,-8.8338 v -8.683 l 2.32171,0.005 2.3217,0.005 2.91893,4.86511 c 1.6054,2.67582 3.00382,4.86512 3.1076,4.86512 0.10377,0 1.49136,-2.18981 3.08354,-4.86626 l 2.89486,-4.86624 2.20845,-0.003 2.20845,-0.003 v 8.83381 8.83381 h -2.26508 -2.26508 v -4.64342 c 0,-2.55388 -0.0765,-4.64262 -0.16988,-4.64166 -0.0934,8.5e-4 -0.41104,0.43416 -0.70578,0.96266 -0.29474,0.5285 -1.26286,2.20954 -2.15136,3.73563 l -1.61547,2.77472 h -1.19472 -1.19472 l -1.20515,-1.86869 c -0.66283,-1.02778 -1.65434,-2.65537 -2.20336,-3.61685 -0.54902,-0.9615 -1.07466,-1.75144 -1.16809,-1.75544 -0.0934,-0.004 -0.16989,2.0313 -0.16989,4.52289 v 4.53016 z"
             id="path31567" /><path
             style="fill:#339a5d;stroke-width:0.856093"
             d="m 123.27363,281.60828 c -2.52497,0 -4.6588,-0.068 -4.74186,-0.15101 -0.083,-0.083 -0.151,-4.06472 -0.151,-8.84816 v -8.69716 l 5.60607,0.0752 c 5.22445,0.07 5.69456,0.1106 6.90604,0.59599 0.715,0.28647 1.7762,0.84902 2.35825,1.25013 0.58204,0.40111 1.44796,1.28607 1.92426,1.96659 0.52185,0.7456 1.01354,1.82238 1.23727,2.70959 0.25485,1.01057 0.33311,1.97878 0.24955,3.08724 -0.0796,1.05553 -0.32247,2.03921 -0.7012,2.83978 -0.3187,0.67368 -0.93131,1.63594 -1.36136,2.13835 -0.43005,0.50242 -1.38704,1.23601 -2.12666,1.63023 -0.73961,0.39421 -2.0791,0.87122 -2.97662,1.06002 -1.14914,0.24173 -2.98995,0.34328 -6.22274,0.34328 z m 3.60119,-4.24408 c 0.49832,-0.0295 1.16085,-0.11217 1.4723,-0.18367 0.31145,-0.0715 0.95651,-0.38534 1.43345,-0.69745 0.51867,-0.33939 1.04011,-0.94834 1.29745,-1.51514 0.23664,-0.52122 0.43193,-1.40636 0.43397,-1.96696 0.002,-0.56061 -0.10156,-1.39835 -0.23023,-1.86165 -0.12867,-0.46331 -0.50613,-1.16583 -0.83878,-1.56117 -0.33265,-0.39533 -1.01675,-0.90591 -1.52022,-1.13459 -0.69429,-0.31538 -1.4762,-0.41702 -3.23711,-0.42079 l -2.32171,-0.005 v 4.63211 4.63211 l 1.30243,0.0679 c 0.71632,0.0373 1.71013,0.0438 2.20845,0.0142 z"
             id="path31566" /><path
             style="fill:#339a5d;stroke-width:0.856093"
             d="m 98.862111,281.60828 c -1.334232,0 -2.482232,-0.0912 -2.551112,-0.20264 -0.06888,-0.11145 0.628681,-1.86972 1.550137,-3.90726 0.921455,-2.03754 2.647734,-5.89609 3.836174,-8.57455 l 2.16081,-4.86992 2.47103,-0.0637 c 1.80321,-0.0465 2.53238,0.0147 2.69803,0.22651 0.12486,0.15962 0.89704,1.71723 1.71597,3.46134 0.81893,1.74411 1.99424,4.29233 2.61181,5.66271 0.61756,1.37037 1.58776,3.51087 2.15599,4.75666 0.56822,1.24579 1.10069,2.54538 1.18326,2.88797 l 0.15011,0.62291 h -2.49099 -2.49099 l -0.80677,-1.69882 -0.80676,-1.6988 h -3.83181 -3.83181 l -0.6486,1.6988 -0.6486,1.69882 z m 7.618019,-7.24826 c 1.985,0 2.17921,-0.0373 2.06262,-0.39638 -0.0708,-0.21802 -0.52845,-1.36208 -1.01703,-2.54238 -0.48857,-1.18029 -0.97265,-2.17343 -1.07572,-2.20697 -0.10307,-0.0336 -0.56755,0.93215 -1.03218,2.14598 -0.46463,1.21384 -0.90873,2.38535 -0.98689,2.60337 -0.12907,0.35999 0.0591,0.39638 2.0492,0.39638 z"
             id="path31565" /><path
             style="fill:#339a5d;stroke-width:0.856093"
             d="m 85.14073,281.55982 -6.172341,0.0913 v -8.87146 -8.87146 l 6.172341,0.0795 c 5.700587,0.0735 6.250246,0.11587 7.191627,0.55518 0.560608,0.2616 1.243761,0.71866 1.518119,1.01568 0.274357,0.29703 0.656589,0.91761 0.849404,1.37908 0.192815,0.46146 0.350573,1.2533 0.350573,1.75962 0,0.50632 -0.157758,1.29814 -0.350573,1.75962 -0.192815,0.46147 -0.562941,1.06509 -0.822503,1.34138 l -0.471928,0.50234 0.741615,0.62404 c 0.407889,0.34321 0.980876,1.13783 1.273305,1.76582 0.29243,0.62798 0.532117,1.49854 0.532639,1.93457 5.22e-4,0.43603 -0.102886,1.16663 -0.229796,1.62355 -0.126911,0.45693 -0.576667,1.1345 -0.999458,1.50571 -0.422791,0.37122 -1.363154,0.90875 -2.089697,1.19452 -1.23753,0.48676 -1.710935,0.52536 -7.493327,0.61094 z m 1.889225,-3.84125 c 2.918003,-0.0703 3.100923,-0.10204 3.510873,-0.60891 0.237865,-0.29411 0.432482,-0.73515 0.432482,-0.98009 0,-0.24494 -0.297945,-0.74329 -0.6621,-1.10744 -0.661603,-0.66161 -0.66424,-0.66211 -3.510873,-0.66211 h -2.848773 v 1.71637 1.71635 z m -0.553019,-6.84982 c 1.388954,-0.0842 2.707122,-0.25035 2.929263,-0.36923 0.22214,-0.11889 0.470962,-0.42748 0.552938,-0.68576 0.08197,-0.25828 0.0874,-0.71521 0.01206,-1.0154 -0.07534,-0.3002 -0.436235,-0.70055 -0.801981,-0.88969 -0.465227,-0.24058 -1.348816,-0.34388 -2.941322,-0.34388 h -2.276328 v 1.72852 1.72852 z"
             id="path31564" /><path
             style="fill:#339a5d;stroke-width:0.856093"
             d="m 217.36474,281.738 c -1.05893,0.0416 -2.384,-0.0204 -2.94461,-0.13767 -0.5606,-0.11731 -1.63574,-0.51651 -2.38918,-0.8871 -0.75344,-0.3706 -1.84421,-1.14144 -2.42394,-1.71298 -0.57973,-0.57154 -1.33931,-1.62007 -1.68796,-2.33005 -0.57756,-1.17613 -0.63392,-1.51239 -0.63392,-3.78248 0,-2.22914 0.0639,-2.628 0.60706,-3.78677 0.33388,-0.71235 1.09483,-1.81667 1.69101,-2.45403 0.59618,-0.63736 1.49746,-1.40117 2.00284,-1.69734 0.50539,-0.29618 1.63011,-0.70571 2.49938,-0.91007 1.11567,-0.2623 2.18005,-0.33881 3.61908,-0.26014 1.32614,0.0725 2.47394,0.28254 3.28436,0.60104 0.68518,0.26929 1.73535,0.84601 2.33369,1.28162 0.59835,0.4356 1.48008,1.39879 1.95941,2.14042 0.47934,0.74163 0.99861,1.87815 1.15393,2.52562 0.15533,0.64748 0.27495,1.89745 0.26583,2.77772 -0.0108,1.03801 -0.18451,2.04934 -0.4944,2.87759 -0.2628,0.70241 -0.82421,1.73075 -1.24757,2.28521 -0.42338,0.55447 -1.27613,1.33306 -1.89502,1.7302 -0.61889,0.39714 -1.72138,0.93392 -2.44997,1.19284 -0.82429,0.29293 -2.05201,0.49932 -3.25002,0.54637 z m -0.11326,-4.12352 c 0.6229,-0.0754 1.48929,-0.31959 1.92532,-0.54253 0.43603,-0.22295 1.05921,-0.695 1.38485,-1.049 0.32565,-0.354 0.70787,-0.99011 0.84941,-1.41359 0.14153,-0.42347 0.25733,-1.29707 0.25733,-1.94133 0,-0.82954 -0.18178,-1.52926 -0.6229,-2.39779 -0.51495,-1.01389 -0.83345,-1.33493 -1.83793,-1.85268 -0.84357,-0.4348 -1.55612,-0.62627 -2.33073,-0.62627 -0.65327,0 -1.46401,0.17916 -1.95607,0.43228 -0.46222,0.23774 -1.11673,0.72335 -1.45449,1.07912 -0.33775,0.35577 -0.77095,1.09142 -0.96266,1.63478 -0.1917,0.54336 -0.34799,1.35734 -0.34729,1.80885 6.9e-4,0.45151 0.11098,1.21607 0.24507,1.69901 0.13409,0.48293 0.61768,1.27708 1.07465,1.76475 0.45696,0.48767 1.23855,1.03403 1.73687,1.21412 0.59216,0.21402 1.29836,0.27994 2.03857,0.19028 z"
             id="path31563" /><path
             style="fill:#334f74;stroke-width:0.856093"
             d="m 231.7188,281.55907 -2.29429,0.0642 -0.12586,-1.87631 c -0.0693,-1.03198 -0.10705,-4.98513 -0.0841,-8.7848 l 0.0418,-6.9085 2.07393,-0.0648 2.07393,-0.0648 1.42797,1.76366 c 0.78539,0.97001 2.04358,2.48964 2.79599,3.37697 0.75242,0.88732 1.80687,2.13595 2.34324,2.77472 0.53638,0.63878 1.04602,1.16146 1.13255,1.16153 0.0865,7e-5 0.15731,-2.01301 0.15731,-4.47353 v -4.47366 h 2.37833 2.37834 v 8.72056 8.72056 l -1.94699,0.065 -1.94699,0.065 -1.23964,-1.42398 c -0.6818,-0.7832 -2.48128,-2.9334 -3.99884,-4.77822 l -2.75921,-3.35424 -0.0481,3.01448 c -0.0264,1.65796 -0.0519,3.77893 -0.0566,4.71328 l -0.009,1.69881 z"
             id="path31557" /><path
             style="fill:#334f74;stroke-width:0.856093"
             d="m 198.61716,281.55942 c -1.73493,0.0482 -2.35331,-0.009 -2.43422,-0.2265 -0.0597,-0.16011 -0.13427,-3.24703 -0.16583,-6.85984 l -0.0574,-6.56872 -2.66146,-0.0638 -2.66148,-0.0638 v -1.92107 -1.92106 l 7.87115,0.0596 7.87115,0.0596 0.0658,1.86869 0.0658,1.86868 h -2.72393 -2.72394 l -0.0599,6.85187 -0.0599,6.85187 z"
             id="path31556" /><path
             style="fill:#334f74;stroke-width:0.856093"
             d="m 174.27161,281.55912 -2.43496,0.0643 v -8.84146 -8.84148 h 2.01221 2.01222 l 0.7625,0.86966 c 0.41938,0.47831 1.9347,2.28 3.36736,4.00374 1.43266,1.72375 2.88215,3.44742 3.22109,3.83038 l 0.61626,0.6963 0.007,-4.70004 0.007,-4.70004 h 2.37833 2.37833 v 8.84231 8.84231 l -2.09103,-0.0652 -2.09103,-0.0651 -2.34039,-2.83136 c -1.28722,-1.55724 -2.96192,-3.62129 -3.72156,-4.58678 -0.75965,-0.96549 -1.44113,-1.75549 -1.51442,-1.75556 -0.0733,-7e-5 -0.13323,2.06398 -0.13323,4.58679 v 4.58691 z"
             id="path31555" /><path
             style="fill:#334f74;stroke-width:0.856093"
             d="m 166.09845,281.60808 c -1.28732,0 -2.40853,-0.068 -2.49159,-0.151 -0.083,-0.083 -0.15101,-4.05827 -0.15101,-8.83381 v -8.6828 h 2.49159 2.49159 v 8.83381 8.83381 z"
             id="path31554" /><path
             style="fill:#334f74;stroke-width:0.856093"
             d="m 141.51102,281.60808 h -2.22944 l -0.13824,-2.0952 c -0.076,-1.15236 -0.0941,-3.77702 -0.0401,-5.83258 0.054,-2.05555 0.10222,-5.08793 0.1072,-6.7386 l 0.009,-3.00123 h 2.12409 c 1.42307,0 2.20156,0.0934 2.35882,0.28313 0.12911,0.15572 0.58759,0.8947 1.01888,1.64218 0.43127,0.74748 1.70099,2.86333 2.82159,4.70188 1.80949,2.9688 2.07242,3.3011 2.34986,2.96984 0.17182,-0.20516 1.54527,-2.42292 3.05213,-4.92839 l 2.73972,-4.55539 2.18949,-0.0649 2.18949,-0.0649 -0.0593,8.78542 -0.0593,8.78542 -2.20392,0.0648 -2.20392,0.0648 -0.0611,-4.82143 -0.0611,-4.82144 -0.45302,0.76214 c -0.24915,0.41919 -1.27132,2.15197 -2.27148,3.85064 l -1.81846,3.08848 -1.154,0.0675 -1.15401,0.0675 -1.12228,-1.76627 c -0.61725,-0.97145 -1.67496,-2.68363 -2.35047,-3.80485 l -1.22818,-2.03857 -0.0612,4.70004 -0.0612,4.70004 z"
             id="path31553" /><path
             style="fill:#334f74;stroke-width:0.856093"
             d="m 123.04202,281.60808 c -2.39758,0 -4.41873,-0.0595 -4.49145,-0.13222 -0.0727,-0.0727 -0.14432,-4.04793 -0.1591,-8.83381 l -0.0269,-8.70158 h 4.72316 c 2.59774,0 5.32797,0.11011 6.06718,0.24469 0.73921,0.13459 1.97948,0.55551 2.75616,0.93539 0.79762,0.39012 1.84808,1.15675 2.41394,1.7617 0.551,0.58905 1.20332,1.46772 1.44962,1.95259 0.24631,0.48487 0.57184,1.48243 0.72342,2.21682 0.16742,0.81114 0.21509,1.9002 0.12145,2.77459 -0.0948,0.88538 -0.4121,1.95557 -0.82436,2.7806 -0.36863,0.73769 -1.08274,1.75375 -1.5869,2.25792 -0.50417,0.50416 -1.4754,1.18099 -2.15829,1.50404 -0.6829,0.32307 -2.00822,0.73406 -2.94517,0.91333 -1.11474,0.21328 -3.21029,0.32594 -6.06278,0.32594 z m 2.41121,-4.07714 c 0.98299,0 2.23414,-0.11252 2.78034,-0.25006 0.54619,-0.13753 1.39939,-0.59785 1.896,-1.02293 0.49661,-0.42508 1.02319,-1.13729 1.17019,-1.58269 0.14699,-0.4454 0.22828,-1.49967 0.18064,-2.34283 -0.0647,-1.14587 -0.22306,-1.73214 -0.62686,-2.32145 -0.29713,-0.43364 -0.86644,-1.01195 -1.26513,-1.28513 -0.39869,-0.27318 -1.3762,-0.60196 -2.17225,-0.73059 -0.79605,-0.12865 -2.03346,-0.16624 -2.74978,-0.0836 l -1.30243,0.15037 v 4.58342 c 0,2.52088 0.068,4.65137 0.15101,4.73443 0.083,0.083 0.95528,0.151 1.93827,0.151 z"
             id="path31552" /><path
             style="fill:#334f74;stroke-width:0.856093"
             d="m 98.849002,281.55866 c -1.292267,0.0351 -2.411806,0.002 -2.487865,-0.0745 -0.07606,-0.076 0.503148,-1.58274 1.287127,-3.3482 0.783979,-1.76545 2.525526,-5.68168 3.870116,-8.70273 l 2.4447,-5.49281 h 2.46361 2.4636 l 1.37173,2.88798 c 0.75444,1.58838 2.08735,4.46786 2.96201,6.39884 0.87466,1.93099 2.03599,4.50503 2.58074,5.7201 0.54475,1.21507 0.99045,2.31425 0.99045,2.44263 0,0.1497 -0.87314,0.21034 -2.43496,0.1691 l -2.43496,-0.0643 -0.77554,-1.64219 -0.77554,-1.64218 h -3.90271 -3.90271 l -0.68511,1.64218 -0.68511,1.64219 z m 7.640108,-7.19883 c 1.18351,0 2.15057,-0.0764 2.14903,-0.16989 -0.002,-0.0934 -0.43498,-1.23171 -0.96319,-2.52951 -0.52822,-1.29779 -1.07721,-2.39857 -1.21998,-2.44617 -0.14278,-0.0476 -0.43944,0.40268 -0.65926,1.0006 -0.21982,0.59791 -0.63789,1.67013 -0.92905,2.38271 -0.29115,0.71258 -0.52937,1.40059 -0.52937,1.52893 0,0.14373 0.82631,0.23333 2.15182,0.23333 z"
             id="path31551" /><path
             style="fill:#334f74;stroke-width:0.856093"
             d="m 85.027486,281.55507 -5.83258,0.0976 -0.03475,-3.13679 c -0.01912,-1.72523 -0.04459,-5.685 -0.05663,-8.79949 l -0.02187,-5.66269 4.983174,-0.0643 c 2.861468,-0.037 5.612527,0.0405 6.461312,0.18178 0.812976,0.13535 1.880211,0.47164 2.371635,0.74729 0.491424,0.27566 1.120726,0.83838 1.398449,1.2505 0.277723,0.41211 0.573197,1.20439 0.65661,1.76063 0.09047,0.60329 0.03627,1.42346 -0.134323,2.03277 -0.15729,0.56179 -0.56722,1.3225 -0.910956,1.69047 l -0.624974,0.66904 0.656559,0.46751 c 0.361108,0.25713 0.901986,0.89404 1.201951,1.41536 0.299965,0.52133 0.613164,1.36958 0.695997,1.88501 0.08399,0.52266 0.03358,1.37175 -0.113989,1.91978 -0.159729,0.59319 -0.5737,1.27415 -1.044518,1.71819 -0.469984,0.44325 -1.383687,0.9331 -2.299219,1.23264 -1.362992,0.44594 -2.119345,0.50711 -7.351875,0.5947 z m 1.762164,-3.64504 c 1.560943,-0.0791 3.064389,-0.263 3.340992,-0.40863 0.276603,-0.14563 0.5778,-0.37694 0.669327,-0.51401 0.09153,-0.13708 0.167973,-0.51465 0.169881,-0.83905 0.0019,-0.32441 -0.246486,-0.85952 -0.551986,-1.18917 -0.545976,-0.58911 -0.605886,-0.59934 -3.510873,-0.59934 h -2.955418 v 1.84702 1.84702 z m -0.256031,-6.98089 c 2.145123,-0.0681 2.662561,-0.15484 3.057857,-0.51257 0.298753,-0.27037 0.475811,-0.70643 0.475811,-1.17184 0,-0.53097 -0.16929,-0.87439 -0.596817,-1.21068 -0.520609,-0.40952 -0.911066,-0.46946 -3.057857,-0.46946 h -2.46104 v 1.72325 1.72326 z"
             id="path31550" /><path
             style="fill:#334f74;stroke-width:0.856093"
             d="m 216.57196,281.80184 c -0.24916,-0.0131 -0.98373,-0.10131 -1.63238,-0.19608 -0.64865,-0.0948 -1.83914,-0.48106 -2.64552,-0.85842 -0.80639,-0.37735 -1.93202,-1.1155 -2.5014,-1.64035 -0.59995,-0.553 -1.34478,-1.583 -1.77138,-2.44955 -0.68912,-1.39979 -0.73614,-1.64753 -0.73614,-3.87841 0,-2.15059 0.0618,-2.50889 0.63315,-3.67242 0.34823,-0.70913 1.09386,-1.80174 1.65694,-2.42803 0.62724,-0.69763 1.56645,-1.40522 2.42472,-1.82675 0.88056,-0.43248 2.09499,-0.78872 3.26955,-0.95907 1.45914,-0.21164 2.22854,-0.21053 3.51087,0.005 0.90323,0.15185 2.26825,0.58126 3.03337,0.95426 0.76514,0.373 1.80895,1.09599 2.31959,1.60663 0.51065,0.51065 1.26067,1.60382 1.66671,2.42927 0.69805,1.41904 0.73824,1.63678 0.73761,3.99598 -6e-4,2.26501 -0.0584,2.61272 -0.6261,3.76959 -0.34399,0.70093 -1.13636,1.75233 -1.76081,2.33644 -0.62446,0.5841 -1.76972,1.35837 -2.54501,1.72059 -0.7753,0.36222 -2.12314,0.76129 -2.9952,0.88682 -0.87205,0.12553 -1.7894,0.21753 -2.03857,0.20446 z m 0.64398,-4.14506 c 0.9493,-0.0622 1.62174,-0.2691 2.37833,-0.73181 0.7087,-0.4334 1.22207,-0.97587 1.56448,-1.65311 0.37593,-0.74355 0.50964,-1.40207 0.50964,-2.50996 0,-1.13521 -0.12868,-1.74568 -0.52703,-2.50022 -0.28987,-0.54905 -0.96118,-1.30406 -1.49181,-1.6778 -0.87082,-0.61335 -1.13546,-0.67952 -2.71725,-0.67952 -1.52195,0 -1.87325,0.0799 -2.67074,0.60768 -0.59841,0.39602 -1.12523,1.02297 -1.51239,1.79991 -0.39996,0.80261 -0.59411,1.55772 -0.59411,2.31063 0,0.61513 0.12497,1.53552 0.2777,2.0453 0.15274,0.50977 0.65844,1.30762 1.12379,1.77297 0.46536,0.46536 1.18131,0.94882 1.591,1.07437 0.40969,0.12555 1.34046,0.18925 2.06839,0.14156 z"
             id="path31549" /><g
             id="g31575"
             transform="matrix(0.85609297,0,0,0.85609297,35.197682,37.953332)"><path
               style="fill:#339a5d"
               d="m 152.73333,308.42522 h -1.32291 v -7.80521 -7.80521 H 148.5 145.58958 v -1.19062 -1.19063 h 7.27604 7.27605 v 1.19063 1.19062 h -3.04271 -3.04271 v 7.80521 7.80521 z"
               id="path31562" /><path
               style="fill:#334f74"
               d="m 152.90973,308.42499 c -0.63059,0 -1.2259,-0.0794 -1.32291,-0.17639 -0.097,-0.097 -0.17639,-3.60936 -0.17639,-7.80521 v -7.62882 H 148.5 145.58958 v -1.19488 -1.19487 l 7.2099,0.0704 7.20989,0.0704 0.0814,1.12448 0.0814,1.12448 h -3.05792 -3.05792 v 7.80521 7.80521 z"
               id="path31548" /></g><g
             id="g31572"
             transform="matrix(0.85609297,0,0,0.85609297,35.42001,37.953332)"><path
               style="fill:#339a5d"
               d="m 88.963943,308.42522 h -1.318121 v -8.99584 -8.99583 l 1.124474,0.002 1.124474,0.002 3.601049,6.00461 c 1.980578,3.30254 3.706969,6.03893 3.836439,6.08086 0.129457,0.0419 0.520577,-0.42877 0.869144,-1.04601 0.348557,-0.61725 1.954808,-3.35469 3.569438,-6.0832 l 2.9357,-4.96094 h 1.1269 1.1269 v 8.99583 8.99584 h -1.32292 -1.32292 l -0.0156,-6.28386 c -0.0101,-4.10063 -0.10339,-6.14596 -0.26838,-5.88698 -0.13905,0.21829 -1.5383,2.54 -3.10944,5.15938 -2.501661,4.17072 -2.936798,4.75819 -3.501915,4.72782 -0.354917,-0.0191 -0.721284,-0.0488 -0.814154,-0.0661 -0.0929,-0.0173 -1.521601,-2.27447 -3.174982,-5.0159 l -3.006132,-4.98443 -0.0709,6.17505 -0.0709,6.17506 z"
               id="path31561" /><path
               style="fill:#334f74"
               d="m 89.032473,308.37419 c -0.749774,0.0542 -1.171614,-0.0351 -1.260521,-0.26673 -0.0735,-0.19152 -0.10216,-4.21677 -0.0637,-8.94502 l 0.0699,-8.59681 h 1.049584 1.049584 l 3.523349,5.82084 c 1.937838,3.20145 3.623349,5.98748 3.745569,6.19117 0.15883,0.26468 0.771834,-0.56564 2.148698,-2.91042 1.059564,-1.80441 2.716364,-4.59044 3.681774,-6.19117 l 1.75529,-2.91042 h 1.04804 1.04804 v 8.86354 8.86355 l -1.25195,0.0804 -1.25195,0.0804 -0.071,-6.29816 -0.071,-6.29815 -3.03435,5.09323 c -2.880658,4.83528 -3.075138,5.09323 -3.840042,5.09323 -0.762877,0 -0.967327,-0.26708 -3.844799,-5.02246 l -3.039082,-5.02246 -0.13229,6.14694 -0.13229,6.14694 z"
               id="path31547" /></g><g
             id="g31573"
             transform="matrix(0.85609297,0,0,0.85609297,35.42001,37.953332)"><path
               style="fill:#339a5d"
               d="m 204.19487,308.55992 c -1.04703,0.0673 -2.48462,-0.0306 -3.30729,-0.22533 -0.80036,-0.18946 -1.87192,-0.53152 -2.38125,-0.76014 -0.50932,-0.22862 -1.15863,-0.59333 -1.44291,-0.81047 -0.50726,-0.38745 -0.50775,-0.41505 -0.026,-1.48345 0.27001,-0.59875 0.54335,-1.08865 0.60744,-1.08865 0.0641,0 0.41961,0.23842 0.79006,0.52981 0.37045,0.2914 1.44357,0.76765 2.38471,1.05834 0.94114,0.29068 2.20464,0.52786 2.80777,0.52704 0.60314,-8.1e-4 1.51973,-0.11901 2.03687,-0.26268 0.51714,-0.14366 1.20175,-0.50482 1.52135,-0.80258 0.40597,-0.37821 0.5811,-0.85145 0.5811,-1.5702 0,-0.79854 -0.15739,-1.15262 -0.70315,-1.58192 -0.38674,-0.3042 -1.369,-0.73774 -2.18282,-0.9634 -0.81381,-0.22567 -2.34922,-0.65949 -3.41202,-0.96405 -1.34742,-0.38613 -2.25358,-0.84115 -2.99354,-1.5032 -0.69192,-0.61907 -1.13617,-1.28817 -1.27669,-1.92287 -0.11853,-0.53538 -0.12452,-1.471 -0.0133,-2.07914 0.11121,-0.60814 0.43513,-1.42026 0.71984,-1.8047 0.2847,-0.38444 0.91163,-0.96713 1.39317,-1.29486 0.48154,-0.32773 1.34724,-0.7229 1.92378,-0.87814 0.57655,-0.15525 1.9019,-0.28562 2.94523,-0.28971 1.04334,-0.004 2.36934,0.12172 2.94668,0.27959 0.57734,0.15786 1.43528,0.52402 1.90655,0.81369 0.79824,0.49064 0.83551,0.57681 0.54506,1.26001 -0.17148,0.40334 -0.40184,0.84006 -0.5119,0.97048 -0.11352,0.13453 -0.80528,-0.0232 -1.59869,-0.36451 -1.01173,-0.43524 -1.94877,-0.60871 -3.38766,-0.62717 -1.51191,-0.0194 -2.18994,0.0944 -2.82642,0.47439 -0.46054,0.27495 -0.96656,0.78349 -1.12448,1.13009 -0.15792,0.3466 -0.28713,0.91165 -0.28713,1.25567 0,0.37225 0.32623,0.89999 0.80578,1.3035 0.44318,0.37291 1.24685,0.79301 1.78594,0.93355 0.53908,0.14053 1.75406,0.4513 2.69995,0.69059 0.94588,0.23928 2.28832,0.74329 2.9832,1.12001 0.69488,0.37673 1.48571,1.05136 1.7574,1.49919 0.27169,0.44782 0.57363,1.19122 0.67097,1.65198 0.0974,0.46077 0.0457,1.32553 -0.11488,1.9217 -0.16053,0.59618 -0.64763,1.48913 -1.08244,1.98436 -0.45758,0.52114 -1.31658,1.08018 -2.03939,1.32723 -0.68685,0.23475 -2.08226,0.48043 -3.10091,0.54595 z"
               id="path31560" /><path
               style="fill:#334f74"
               d="m 203.9303,308.53809 c -0.43656,0.047 -1.50812,-0.0177 -2.38125,-0.14374 -0.87312,-0.12604 -2.33164,-0.59489 -3.24114,-1.04188 -0.90951,-0.44699 -1.65365,-0.9357 -1.65365,-1.08603 0,-0.15033 0.20426,-0.61912 0.45392,-1.04176 0.24966,-0.42263 0.59227,-0.76842 0.76135,-0.76842 0.16909,0 0.45534,0.17821 0.63612,0.39603 0.18077,0.21782 1.10086,0.63454 2.04464,0.92604 0.94378,0.29151 2.39257,0.53001 3.21953,0.53001 1.03579,0 1.86798,-0.18521 2.67492,-0.59531 0.91385,-0.46444 1.22117,-0.794 1.39791,-1.49905 0.18017,-0.71874 0.12301,-1.04372 -0.2792,-1.5875 -0.27816,-0.37607 -0.80262,-0.82959 -1.16548,-1.00781 -0.36286,-0.17823 -1.77,-0.62117 -3.12699,-0.98432 -1.35698,-0.36316 -3.01375,-0.93171 -3.6817,-1.26346 -0.66796,-0.33175 -1.49296,-1.01989 -1.83334,-1.52922 -0.51975,-0.77771 -0.60288,-1.18581 -0.51903,-2.54792 0.0772,-1.25372 0.26099,-1.83316 0.80974,-2.5526 0.39044,-0.5119 1.27697,-1.20524 1.97006,-1.54076 0.9275,-0.44899 1.86671,-0.63904 3.55771,-0.71989 1.67428,-0.08 2.68016,0.0112 3.70796,0.33625 0.77573,0.24536 1.63064,0.60869 1.8998,0.8074 0.42964,0.31718 0.45136,0.47649 0.17792,1.30503 -0.1713,0.51906 -0.33199,0.94368 -0.35709,0.94361 -0.0251,-7e-5 -0.67909,-0.2409 -1.45333,-0.53517 -0.77424,-0.29427 -2.11208,-0.60866 -2.97297,-0.69864 -1.16046,-0.12129 -1.87424,-0.0456 -2.75993,0.29264 -0.65706,0.25093 -1.37305,0.71094 -1.59109,1.02223 -0.21804,0.31129 -0.39643,0.96162 -0.39643,1.44518 0,0.56328 0.2175,1.0967 0.60529,1.48449 0.37659,0.37659 1.45127,0.82653 2.84427,1.19083 1.23144,0.32205 2.90903,0.82724 3.72797,1.12263 0.84594,0.30514 1.86896,0.92912 2.36883,1.44485 0.77654,0.80119 0.89273,1.11018 0.98961,2.63166 0.0968,1.51966 0.0277,1.84794 -0.58319,2.77102 -0.38112,0.57592 -1.15815,1.28445 -1.72671,1.57451 -0.56857,0.29006 -1.5507,0.59629 -2.18252,0.68051 -0.63182,0.0842 -1.50595,0.19157 -1.94251,0.23856 z"
               id="path31546" /></g><g
             id="g31574"
             transform="matrix(0.85609297,0,0,0.85609297,40.984745,37.953332)"><path
               style="fill:#339a5d"
               d="m 171.91562,308.55592 c -0.87312,0.0593 -2.11793,-0.003 -2.76623,-0.1393 -0.64831,-0.13593 -1.71987,-0.58088 -2.38125,-0.98878 -0.75967,-0.46852 -1.50615,-1.24792 -2.02701,-2.11641 -0.45348,-0.75612 -0.89865,-1.8234 -0.98928,-2.37174 -0.0906,-0.54834 -0.16609,-3.58659 -0.16769,-6.75167 l -0.003,-5.75469 h 1.3016 1.3016 l 0.0875,6.15156 c 0.0729,5.12289 0.161,6.2843 0.52686,6.94532 0.24164,0.43656 0.78293,1.12024 1.20288,1.51929 0.45858,0.43575 1.23417,0.81017 1.94185,0.93743 0.64807,0.11654 1.76602,0.12417 2.48433,0.017 0.71831,-0.10722 1.61128,-0.42244 1.98437,-0.70051 0.3731,-0.27806 0.91648,-0.90984 1.20752,-1.40395 0.48137,-0.81724 0.53704,-1.46595 0.6163,-7.18224 l 0.0871,-6.28385 h 1.30193 1.30193 v 6.0374 c 0,4.71085 -0.0911,6.34413 -0.41458,7.43345 -0.25921,0.87283 -0.8105,1.82558 -1.47092,2.54205 -0.66494,0.72138 -1.51615,1.30453 -2.29739,1.57392 -0.68259,0.23537 -1.95544,0.47647 -2.82857,0.53577 z"
               id="path31559" /><path
               style="fill:#334f74"
               d="m 172.04793,308.50479 c -0.65485,0.0705 -1.7501,0.0326 -2.43389,-0.0842 -0.68379,-0.11682 -1.84671,-0.54083 -2.58425,-0.94225 -0.84709,-0.46104 -1.62988,-1.16599 -2.12532,-1.91399 -0.43139,-0.65126 -0.87582,-1.61349 -0.98763,-2.13827 -0.11181,-0.52479 -0.20329,-3.63306 -0.20329,-6.90728 v -5.95313 l 1.23906,-0.0799 1.23905,-0.0799 0.0839,6.16534 c 0.0738,5.42681 0.14428,6.28701 0.58824,7.18113 0.2774,0.55869 0.98319,1.3326 1.56842,1.7198 0.89163,0.58991 1.34582,0.70119 2.80292,0.68669 0.95638,-0.01 2.03652,-0.17321 2.40033,-0.36379 0.3638,-0.19057 0.94198,-0.59951 1.28484,-0.90875 0.34286,-0.30923 0.75554,-0.8599 0.91707,-1.2237 0.17291,-0.38942 0.35179,-3.21861 0.43495,-6.87917 l 0.14126,-6.21771 h 1.19063 1.19062 l 0.0714,5.80108 c 0.0558,4.52981 -0.0152,6.09895 -0.32373,7.16037 -0.21733,0.74761 -0.66903,1.7657 -1.00377,2.26242 -0.33474,0.49672 -1.01072,1.1741 -1.50218,1.50529 -0.49146,0.3312 -1.32206,0.71011 -1.84578,0.84202 -0.52373,0.13192 -1.48801,0.29751 -2.14285,0.36799 z"
               id="path31545" /></g><g
             id="g31576"
             transform="matrix(0.85609297,0,0,0.85609297,29.341508,37.953332)"><path
               style="fill:#339a5d"
               d="m 133.56859,308.66059 c -0.44621,-0.0159 -1.34169,-0.13296 -1.98994,-0.26003 -0.64825,-0.12707 -1.79846,-0.53429 -2.55602,-0.90493 -0.75756,-0.37064 -1.81842,-1.16207 -2.35747,-1.75874 -0.53905,-0.59666 -1.25516,-1.69445 -1.59136,-2.43952 -0.33619,-0.74506 -0.69119,-2.02134 -0.78887,-2.83617 -0.12097,-1.00901 -0.0451,-1.99867 0.23782,-3.10311 0.22849,-0.89188 0.70521,-2.08062 1.05937,-2.64165 0.35416,-0.56102 1.20297,-1.51214 1.88626,-2.11359 0.68328,-0.60145 1.90642,-1.34201 2.7181,-1.6457 1.00466,-0.37589 2.11512,-0.55515 3.4785,-0.56152 1.20628,-0.006 2.52883,0.16851 3.32565,0.4379 0.7276,0.24599 1.70468,0.67981 2.17129,0.96403 0.46661,0.28423 1.35958,1.08594 1.98438,1.78157 0.62479,0.69564 1.36995,1.90953 1.6559,2.69752 0.34466,0.9498 0.51907,2.10159 0.51744,3.4171 -0.002,1.61254 -0.14332,2.2941 -0.75417,3.63735 -0.44258,0.97321 -1.2158,2.08075 -1.88021,2.69318 -0.62067,0.57212 -1.59059,1.27595 -2.15537,1.56409 -0.56479,0.28813 -1.72958,0.65377 -2.58844,0.81254 -0.85885,0.15877 -1.92664,0.27562 -2.37286,0.25968 z m 0.23284,-2.61943 c 1.40703,-0.002 2.19944,-0.15771 3.22016,-0.63298 0.74463,-0.34673 1.66368,-1.03658 2.04233,-1.53302 0.37865,-0.49643 0.87074,-1.33886 1.09352,-1.87205 0.22278,-0.5332 0.40506,-1.58454 0.40506,-2.33631 0,-0.75178 -0.13818,-1.82807 -0.30706,-2.39176 -0.16889,-0.56369 -0.72782,-1.51643 -1.24206,-2.11722 -0.51425,-0.60078 -1.53693,-1.37262 -2.27263,-1.7152 -0.89263,-0.41566 -1.82174,-0.62324 -2.79283,-0.62398 -0.80037,-6.1e-4 -1.93146,0.12876 -2.51354,0.28748 -0.69963,0.19078 -1.5086,0.75075 -2.38681,1.65217 -0.81229,0.83376 -1.45482,1.78673 -1.65364,2.45261 -0.17885,0.59897 -0.32518,1.6258 -0.32518,2.28184 0,0.65605 0.18093,1.70562 0.40207,2.33239 0.22113,0.62676 0.69405,1.52239 1.05093,1.99028 0.35688,0.46789 1.27089,1.16068 2.03113,1.53953 1.09881,0.54755 1.76499,0.68828 3.24855,0.68622 z"
               id="path31544" /><path
               style="fill:#334f74"
               d="m 134.47708,308.52153 c -0.80036,0.0726 -1.97,0.0258 -2.59919,-0.1041 -0.62918,-0.12984 -1.77878,-0.5267 -2.55465,-0.88191 -0.77587,-0.3552 -1.89086,-1.14063 -2.47776,-1.74539 -0.5869,-0.60476 -1.31804,-1.61796 -1.62477,-2.25156 -0.30672,-0.63361 -0.65242,-1.75136 -0.76822,-2.48391 -0.1158,-0.73255 -0.11167,-2.05484 0.009,-2.93843 0.12084,-0.88359 0.46768,-2.09258 0.77074,-2.68664 0.30307,-0.59406 1.01361,-1.58195 1.57899,-2.19531 0.56537,-0.61336 1.71777,-1.46473 2.56089,-1.89193 1.40638,-0.7126 1.76229,-0.77673 4.31106,-0.77673 2.44876,0 2.95442,0.0827 4.26509,0.69722 0.81783,0.38347 1.95629,1.12124 2.52993,1.63948 0.57363,0.51824 1.38701,1.57371 1.80751,2.34549 0.63318,1.16209 0.78345,1.79604 0.87448,3.68912 0.0805,1.67324 -0.009,2.64344 -0.33318,3.61997 -0.24371,0.73374 -0.84507,1.86051 -1.33636,2.50392 -0.49128,0.64342 -1.46668,1.53446 -2.16754,1.9801 -0.70087,0.44563 -1.75055,0.93138 -2.33263,1.07943 -0.58209,0.14806 -1.71318,0.32859 -2.51355,0.40118 z m -0.0209,-2.36535 c 0.78886,-0.0702 1.91996,-0.34252 2.51354,-0.6051 0.59359,-0.26257 1.4811,-0.93509 1.97224,-1.49448 0.49115,-0.55939 1.06414,-1.42667 1.27331,-1.92729 0.20917,-0.50062 0.38031,-1.66591 0.38031,-2.58954 0,-1.07491 -0.18099,-2.08848 -0.50288,-2.81616 -0.27658,-0.62526 -0.90776,-1.54173 -1.40263,-2.03659 -0.49486,-0.49487 -1.43686,-1.13908 -2.09334,-1.4316 -0.7833,-0.34902 -1.73929,-0.52741 -2.78109,-0.51894 -0.87313,0.007 -2.05735,0.20985 -2.6316,0.45057 -0.57425,0.24071 -1.42514,0.7283 -1.89087,1.08353 -0.46573,0.35523 -1.15675,1.26789 -1.5356,2.02814 -0.53452,1.07264 -0.68751,1.77067 -0.683,3.11625 0.004,1.16776 0.18146,2.12123 0.54372,2.91985 0.29584,0.65223 0.73971,1.41181 0.98637,1.68797 0.24666,0.27615 0.89583,0.78635 1.44259,1.13377 0.54676,0.34742 1.43973,0.74319 1.98437,0.87949 0.54465,0.1363 1.6357,0.19036 2.42456,0.12013 z"
               id="path31543" /></g></g></g></g></g></svg>
