<?xml version="1.0" encoding="UTF-8" standalone="no"?>
<!-- Created with Inkscape (http://www.inkscape.org/) -->

<svg
   width="220mm"
   height="220mm"
   viewBox="0 0 220 220"
   version="1.1"
   id="svg1"
   xml:space="preserve"
   sodipodi:docname="logo_badminton_motus_v20_primary.svg"
   inkscape:version="1.4.2 (f4327f4, 2025-05-13)"
   inkscape:export-filename="logo_badminton_motus_v20_primary_transparent.png"
   inkscape:export-xdpi="96"
   inkscape:export-ydpi="96"
   xmlns:inkscape="http://www.inkscape.org/namespaces/inkscape"
   xmlns:sodipodi="http://sodipodi.sourceforge.net/DTD/sodipodi-0.dtd"
   xmlns="http://www.w3.org/2000/svg"
   xmlns:svg="http://www.w3.org/2000/svg"><sodipodi:namedview
     id="namedview1"
     pagecolor="#ffffff"
     bordercolor="#999999"
     borderopacity="1"
     inkscape:showpageshadow="2"
     inkscape:pageopacity="0"
     inkscape:pagecheckerboard="0"
     inkscape:deskcolor="#d1d1d1"
     inkscape:document-units="mm"
     inkscape:zoom="0.55861436"
     inkscape:cx="285.52793"
     inkscape:cy="371.45483"
     inkscape:window-width="1680"
     inkscape:window-height="979"
     inkscape:window-x="-8"
     inkscape:window-y="-8"
     inkscape:window-maximized="1"
     inkscape:current-layer="layer1"
     inkscape:export-bgcolor="#ffffff00" /><defs
     id="defs1"><rect
       x="71.666667"
       y="48.333333"
       width="83.333333"
       height="76.666667"
       id="rect2" /><rect
       x="48.333333"
       y="20"
       width="573.33333"
       height="131.66667"
       id="rect1" /><rect
       x="71.666664"
       y="48.333332"
       width="83.333336"
       height="76.666664"
       id="rect2-4" /></defs><g
     inkscape:label="Livello 1"
     inkscape:groupmode="layer"
     id="layer1"><g
       id="g11"
       transform="translate(-8.9287136e-5,-0.26447711)"><path
         style="display:inline;fill:#418c37;stroke-width:1.16497"
         d="m 106.21114,167.96857 c -3.29935,-0.28087 -8.048276,-1.14241 -11.006135,-1.99668 -2.577775,-0.74451 -8.859308,-3.1243 -9.500408,-3.59928 -0.279975,-0.20743 -0.04214,-0.46055 1.528582,-1.62683 9.170968,-6.80956 17.560411,-15.00534 24.571081,-24.00392 8.06346,-10.3499 13.26688,-20.34728 15.37378,-29.53775 0.74983,-3.2708 0.94948,-8.681441 0.43048,-11.666408 -0.48062,-2.764309 -1.49738,-5.40446 -2.84155,-7.378499 -0.63078,-0.926356 -1.06884,-1.749623 -0.97349,-1.829484 0.0954,-0.07986 1.13028,-0.703087 2.29982,-1.38495 10.16548,-5.926655 18.30796,-14.389497 22.61476,-23.50453 1.28887,-2.727827 2.03102,-4.931841 2.37162,-7.043186 0.39232,-2.431994 0.2824,-2.504671 -1.17029,-0.773778 -9.65607,11.505239 -21.43751,20.282061 -33.8787,25.23861 -5.35708,2.134257 -11.67097,3.861396 -17.262078,4.721974 -4.191858,0.645205 -11.981731,0.69936 -15.204017,0.105697 -4.064781,-0.748879 -7.412453,-2.063523 -8.477358,-3.329091 -0.683775,-0.812619 -0.727411,-1.780842 -0.155215,-3.443956 0.727414,-2.114266 2.965424,-6.996508 5.09605,-11.117079 1.903097,-3.680538 2.134581,-4.034208 2.600159,-3.972618 0.281092,0.03719 1.472601,0.08503 2.647796,0.106315 2.088631,0.03784 2.174774,0.02001 3.827584,-0.79196 2.100083,-1.031711 4.706496,-3.538682 5.989806,-5.761275 1.801037,-3.119255 2.650243,-6.74347 2.202853,-9.401256 -1.213803,-7.210775 -8.403745,-8.63325 -14.283071,-2.825797 -1.884389,1.861353 -3.180307,3.939102 -4.085311,6.549994 -0.553792,1.597666 -0.643684,2.167943 -0.660229,4.188553 -0.02176,2.657214 0.281021,3.754778 1.518039,5.502861 l 0.73407,1.037347 -2.290771,3.747133 c -6.861849,11.224285 -8.101245,13.500703 -8.723649,16.022858 -0.618873,2.507845 0.295894,4.041655 3.77935,6.33692 5.254317,3.462094 13.594692,5.756103 23.144831,6.365955 1.812787,0.115763 3.853661,0.356804 4.535261,0.535651 4.21027,1.104732 6.74299,3.852653 8.03834,8.721359 0.53817,2.02274 0.64215,6.91889 0.20999,9.88793 -2.23949,15.38577 -11.961962,32.63415 -25.718281,45.62609 l -1.983548,1.87333 -1.312427,-0.71562 C 66.407193,151.31309 54.142448,138.04676 47.74281,123.72671 41.918286,110.69355 40.124744,96.393555 42.544367,82.279306 45.001689,67.945149 52.170906,54.328789 62.649159,44.094649 75.47741,31.565258 92.322053,24.652834 110.14504,24.604078 c 12.25522,-0.03353 23.55939,3.053697 34.18645,9.336472 5.32343,3.147244 12.92178,9.182019 12.60393,10.010322 -0.0644,0.168018 0.0652,0.718082 0.28836,1.222364 l 0.40558,0.916875 -0.63616,0.604667 c -0.89698,0.852571 -1.23612,1.601885 -1.23612,2.731101 0,1.159354 0.38339,1.980773 1.27449,2.730576 1.20811,1.016562 3.11312,0.948097 4.39915,-0.158104 0.57143,-0.491522 0.58143,-0.492334 1.22567,-0.09947 0.35759,0.218059 1.04678,0.396454 1.53332,0.396891 0.81168,7.3e-4 0.94225,0.08321 1.60028,1.010852 4.29589,6.056093 7.9143,13.557924 10.03772,20.810542 2.24181,7.657042 3.03141,13.880601 2.8295,22.302164 -0.1681,7.01164 -0.86151,11.65308 -2.72767,18.25799 -7.2656,25.71522 -28.61297,46.72057 -52.94553,52.09726 -5.01358,1.10784 -11.96888,1.60295 -16.77287,1.19399 z m 8.98751,-94.722934 c 1.51016,-0.748361 3.19162,-2.486193 3.89762,-4.028297 2.30194,-5.028092 -0.64649,-10.831945 -5.99551,-11.801908 -3.36245,-0.609728 -7.05169,1.367125 -8.51457,4.562464 -2.1548,4.706696 -0.0726,9.968291 4.61877,11.671045 0.67261,0.244127 1.4846,0.321726 2.85387,0.272732 1.59207,-0.05697 2.1199,-0.170612 3.13982,-0.676036 z"
         id="path34" /><path
         style="display:inline;fill:#01214e;stroke-width:1.16497"
         d="m 161.94393,41.779497 -0.62017,-0.506516 1.56536,-3.897684 c 0.91559,-2.279755 2.41739,-4.112985 2.70531,-4.376133 1.44309,-1.318935 4.16503,0.28685 3.38415,2.110827 -0.27146,0.634094 -5.87678,7.021119 -6.25824,7.131015 -0.086,0.02476 -0.4353,-0.182925 -0.77641,-0.461509 z"
         id="path18"
         sodipodi:nodetypes="scsssss" /><path
         style="display:inline;fill:#01214e;stroke-width:1.16497"
         d="m 164.61667,44.525716 -0.35446,-0.54097 2.08432,-1.969425 c 4.32026,-4.08214 4.60521,-4.289132 5.6028,-4.070024 1.34159,0.294662 1.9044,1.951856 1.00018,2.945032 -0.45158,0.496012 -6.67249,4.792821 -7.1424,4.792821 -0.12074,0 -0.99549,-0.8599 -1.19044,-1.157434 z"
         id="path17"
         sodipodi:nodetypes="scsssss" /><path
         style="display:inline;fill:#01214e;stroke-width:1.16497"
         d="m 167.26064,48.328488 c -0.1284,-0.368314 -0.23345,-0.691619 -0.23345,-0.718454 0,-0.02684 0.31099,-0.172594 0.69109,-0.323908 0.3801,-0.151313 2.04283,-0.832749 3.69494,-1.514302 1.65212,-0.681554 3.21443,-1.239188 3.47182,-1.239188 0.65228,0 2.32758,1.11431 2.32758,1.800778 0,1.167823 -1.28496,2.096803 -5.10209,2.713495 -4.53974,0.733435 -4.55881,0.11657 -4.84989,-0.718423 z"
         id="path16"
         sodipodi:nodetypes="sssssssss" /><path
         style="display:inline;fill:#01214e;stroke-width:1.16497"
         d="m 160.75081,48.427202 c -2.72779,-3.095915 -2.5779,-2.66338 -1.45684,-4.204043 l 0.96709,-1.329059 0.74961,0.714167 c 0.41228,0.392791 1.50406,1.605823 2.42617,2.695626 2.13414,2.522263 2.19394,2.952662 0.52018,3.744473 -0.636,0.300879 -1.18775,0.547052 -1.22609,0.547052 -0.0383,0 -0.9294,-0.975697 -1.98012,-2.168216 z"
         id="path15" /><path
         style="display:inline;fill:#01214e;stroke-width:1.16497"
         d="m 84.202526,59.752898 c -1.733034,-0.421905 -2.994872,-1.687502 -3.507314,-3.517765 -0.400383,-1.430029 -0.171464,-4.346513 0.480084,-6.116366 1.977676,-5.372132 6.78559,-9.05192 10.513246,-8.046426 4.829624,1.302738 4.474646,9.738725 -0.627002,14.900516 -1.421899,1.438663 -2.764877,2.279991 -4.286042,2.685053 -1.182498,0.314881 -1.605574,0.3305 -2.572972,0.09499 z"
         id="path14" /><path
         style="display:inline;fill:#01214e;stroke-width:1.16497"
         d="m 102.91515,115.22258 c -10.660161,-0.70009 -20.823538,-2.38412 -30.833306,-5.10896 -9.0013,-2.45031 -19.663119,-6.47746 -27.643661,-10.441489 l -2.764366,-1.37309 -0.06579,-2.746938 C 41.429047,88.078678 42.877099,78.987163 45.43243,71.540807 49.384123,60.025386 56.408246,49.464626 65.253198,41.740303 76.528819,31.89327 89.858397,26.220056 104.93203,24.85256 c 3.41183,-0.309525 10.52517,-0.151568 13.82507,0.306995 13.9151,1.933684 26.02698,7.559347 36.62785,17.012696 1.1167,0.995811 1.43535,1.41037 1.43535,1.867344 0,0.323056 0.15693,0.916477 0.34875,1.318713 l 0.34875,0.731338 -0.77485,0.797838 c -3.05837,3.149101 0.68661,7.765499 4.39288,5.415055 l 0.9965,-0.631959 0.7497,0.442339 c 0.54666,0.322538 0.94278,0.406118 1.46258,0.308602 l 0.71287,-0.133736 1.92398,2.928239 c 6.07419,9.24472 9.96116,20.033226 11.20624,31.103509 0.41904,3.725876 0.6144,8.367633 0.44019,10.458984 -0.13667,1.640761 -0.18976,1.793256 -0.71754,2.061269 -15.61259,7.928154 -31.84357,13.067164 -48.41475,15.328954 -4.4454,0.60675 -4.3592,0.60023 -4.3592,0.32993 0,-0.13278 0.29444,-1.04817 0.65429,-2.03419 3.46188,-9.4858 2.94108,-19.488216 -1.29365,-24.845543 -0.48727,-0.616454 -0.85375,-1.146046 -0.81438,-1.176872 0.0394,-0.03083 1.02846,-0.61278 2.198,-1.293231 8.32296,-4.842391 14.91804,-10.904197 19.77922,-18.179863 3.35346,-5.019074 5.80063,-11.164349 5.59239,-14.043478 l -0.067,-0.926792 -1.78659,2.115886 c -2.43744,2.8867 -8.97972,9.380535 -11.78493,11.697657 -11.89227,9.823119 -25.73274,15.974052 -40.227296,17.877672 -3.68219,0.483595 -10.490111,0.490099 -13.29275,0.0127 -4.42029,-0.752947 -8.334839,-2.295345 -9.159586,-3.60903 -0.611841,-0.974562 -0.425129,-1.987835 1.002774,-5.44197 1.093439,-2.645057 5.030123,-10.689753 6.007449,-12.276345 l 0.406426,-0.659795 1.331324,0.325241 c 4.444398,1.085759 10.134701,-2.882624 12.600762,-8.787695 1.953726,-4.678267 1.473328,-9.494328 -1.192129,-11.951261 -1.610441,-1.484453 -2.092246,-1.657487 -4.615184,-1.657487 -2.155673,0 -2.288057,0.02761 -3.834479,0.799889 -3.604535,1.800082 -6.241096,4.882516 -7.725944,9.032491 -0.612101,1.710749 -0.666581,2.080261 -0.666581,4.521059 0,2.467834 0.04271,2.749346 0.596792,3.933907 0.328235,0.701722 0.836659,1.526639 1.12983,1.833145 l 0.533039,0.557285 -2.064,3.376622 c -5.451966,8.919196 -6.319127,10.390537 -7.393985,12.545645 -1.889244,3.787961 -2.201919,5.363723 -1.395046,7.0305 0.774392,1.599681 3.646792,3.707336 7.198844,5.282231 5.928273,2.628455 12.201016,4.025679 20.000836,4.455091 2.781789,0.15315 4.542174,0.505672 6.192524,1.240067 3.22409,1.434705 5.36932,4.702245 6.16152,9.385044 0.31551,1.86501 0.13345,7.41722 -0.32466,9.90066 -0.18337,0.9941 -0.33353,1.83139 -0.3337,1.86063 -5e-4,0.0916 -2.97534,-10e-4 -5.63535,-0.17596 z m 12.17922,-41.87135 c 3.43846,-1.606802 5.53011,-5.702249 4.75593,-9.312101 -0.56449,-2.63213 -2.30287,-4.885284 -4.66716,-6.04922 -1.28086,-0.630565 -1.59511,-0.69622 -3.33248,-0.69622 -1.71315,0 -2.07036,0.07205 -3.34068,0.673874 -1.75097,0.829518 -3.14636,2.238078 -4.06426,4.102615 -0.63427,1.288378 -0.67999,1.531631 -0.67999,3.618461 0,2.069251 0.0499,2.341007 0.66467,3.619411 0.36557,0.760201 1.0042,1.771655 1.41918,2.247676 0.81135,0.930692 2.77052,2.084639 4.10785,2.41952 1.39222,0.348626 3.63981,0.07559 5.13694,-0.624016 z"
         id="path13" /><path
         id="path12"
         style="display:inline;fill:#01214e;stroke-width:1.16497"
         d="M 114.92322,15.392859 C 107.20069,14.914429 99.374165,15.622076 91.751506,17.53433 75.976277,21.491775 61.106497,30.804837 50.809819,43.176176 42.039764,53.713295 36.231377,65.941739 33.49873,79.621497 c -3.763665,18.841085 -0.08949,39.292133 10.105844,56.250313 6.797381,11.30629 15.641945,20.45521 26.653153,27.57144 1.120321,0.72403 2.132522,1.31885 2.249475,1.32085 0.116954,0.002 1.205479,-0.50853 2.418974,-1.13481 2.169016,-1.11945 2.197845,-1.14401 1.701188,-1.45728 -0.277864,-0.17527 -1.299918,-0.81127 -2.271179,-1.41335 C 65.278828,155.13165 56.110602,146.34673 50.153011,137.5668 43.109175,127.18603 38.845119,116.06313 37.169824,103.69961 36.691359,100.16855 36.629139,89.982761 37.064921,86.532186 38.844758,72.439239 43.653424,60.195554 51.538973,49.679655 64.482319,32.418854 83.583306,21.739388 104.69438,19.959505 c 4.09759,-0.345469 11.56496,-0.141395 15.25282,0.417029 12.16682,1.84232 23.18419,6.411464 32.81609,13.602271 l 1.87843,-4.261239 c -4.96353,-3.491546 -11.6377,-7.176529 -17.17207,-9.350851 -7.20562,-2.830904 -14.82391,-4.495426 -22.54643,-4.973856 z" /><path
         id="path11"
         style="display:inline;fill:#01214e;stroke-width:1.16497"
         d="m 178.75911,57.113826 -4.68136,0.70435 c 5.09614,9.272144 8.13926,19.338521 9.12967,30.202291 0.32118,3.522977 0.12939,13.334613 -0.32401,16.586583 -3.68935,26.46184 -20.11973,49.39095 -44.04124,61.47945 4.54986,-0.61167 7.44733,-1.14185 15.16342,-5.96242 5.67562,-3.5458 5.76109,-3.53488 9.57667,-7.36493 10.93035,-10.97176 18.51706,-22.72407 22.46943,-40.49727 1.48161,-6.66259 1.90851,-10.64251 1.89291,-17.64905 -0.0285,-12.768738 -2.43197,-23.410494 -7.87549,-34.868673 -0.38237,-0.804863 -0.84036,-1.720689 -1.31,-2.630331 z M 138.84217,166.0865 c -0.0228,0.003 -0.0458,0.006 -0.0687,0.009 -0.64316,0.0863 -0.53816,0.23189 -0.12351,0.0879 0.0642,-0.0322 0.12815,-0.0648 0.19224,-0.0971 z" /><g
         id="g10"
         transform="translate(0,1.1000793)"><text
           xml:space="preserve"
           transform="matrix(1.6497937,0,0,1.6497937,-75.8556,99.170865)"
           id="text2"
           style="font-style:normal;font-variant:normal;font-weight:normal;font-stretch:normal;font-size:12px;line-height:0.67;font-family:'Russo One';-inkscape-font-specification:'Russo One, Normal';font-variant-ligatures:normal;font-variant-caps:normal;font-variant-numeric:normal;font-variant-east-asian:normal;text-align:start;text-decoration-color:#000000;letter-spacing:0.882055px;writing-mode:lr-tb;direction:ltr;white-space:pre;shape-inside:url(#rect2);display:inline;fill:#01214e;fill-opacity:1;stroke:none;stroke-opacity:1;-inkscape-stroke:none"
           inkscape:label="Badminton"><tspan
             x="71.666016"
             y="55.575561"
             id="tspan6">B<tspan
   dx="0.080187261"
   style="letter-spacing:0.801868px"
   id="tspan3">ADM</tspan><tspan
   dx="-0.080188453"
   id="tspan4">INT</tspan><tspan
   dx="0.080185354"
   style="letter-spacing:0.801868px"
   id="tspan5">ON</tspan></tspan></text><text
           xml:space="preserve"
           transform="matrix(0.99048976,0,0,0.99048976,3.7974395,149.01474)"
           id="text2-2"
           style="font-style:normal;font-variant:normal;font-weight:normal;font-stretch:normal;font-size:12px;line-height:0.67;font-family:'Russo One';-inkscape-font-specification:'Russo One, Normal';font-variant-ligatures:normal;font-variant-caps:normal;font-variant-numeric:normal;font-variant-east-asian:normal;text-align:start;text-decoration-color:#000000;letter-spacing:6.41097px;writing-mode:lr-tb;direction:ltr;white-space:pre;shape-inside:url(#rect2-4);display:inline;fill:#418c37;fill-opacity:1;stroke:none;stroke-opacity:1;-inkscape-stroke:none"
           inkscape:label="Motus"><tspan
             x="71.666016"
             y="55.575561"
             id="tspan7">MOTUS</tspan></text></g></g></g></svg>
