<?xml version="1.0" encoding="UTF-8" standalone="no"?>
<!-- Created with Inkscape (http://www.inkscape.org/) -->

<svg
   width="220mm"
   height="220mm"
   viewBox="0 0 220 220"
   version="1.1"
   id="svg1"
   xml:space="preserve"
   sodipodi:docname="logo_badminton_motus_v20_icon.svg"
   inkscape:version="1.4.2 (f4327f4, 2025-05-13)"
   inkscape:export-filename="logo_badminton_motus.png"
   inkscape:export-xdpi="96"
   inkscape:export-ydpi="96"
   xmlns:inkscape="http://www.inkscape.org/namespaces/inkscape"
   xmlns:sodipodi="http://sodipodi.sourceforge.net/DTD/sodipodi-0.dtd"
   xmlns="http://www.w3.org/2000/svg"
   xmlns:svg="http://www.w3.org/2000/svg"><sodipodi:namedview
     id="namedview1"
     pagecolor="#ffffff"
     bordercolor="#999999"
     borderopacity="1"
     inkscape:showpageshadow="2"
     inkscape:pageopacity="0"
     inkscape:pagecheckerboard="0"
     inkscape:deskcolor="#d1d1d1"
     inkscape:document-units="mm"
     inkscape:zoom="0.55861436"
     inkscape:cx="286.423"
     inkscape:cy="375.03511"
     inkscape:window-width="1680"
     inkscape:window-height="979"
     inkscape:window-x="-8"
     inkscape:window-y="-8"
     inkscape:window-maximized="1"
     inkscape:current-layer="layer1"
     inkscape:export-bgcolor="#ffffff00" /><defs
     id="defs1"><rect
       x="71.666667"
       y="48.333333"
       width="83.333333"
       height="76.666667"
       id="rect2" /><rect
       x="48.333333"
       y="20"
       width="573.33333"
       height="131.66667"
       id="rect1" /><rect
       x="71.666664"
       y="48.333332"
       width="83.333336"
       height="76.666664"
       id="rect2-4" /></defs><g
     inkscape:label="Livello 1"
     inkscape:groupmode="layer"
     id="layer1"><path
       style="display:inline;fill:#418c37;stroke-width:1.42746"
       d="m 105.35733,203.47815 c -4.04275,-0.34415 -9.861684,-1.39981 -13.485998,-2.44656 -3.15859,-0.91226 -10.855456,-3.82826 -11.641006,-4.41026 -0.343058,-0.25417 -0.05164,-0.56432 1.872997,-1.99338 11.237338,-8.34387 21.517057,-18.38629 30.107347,-29.4124 9.88029,-12.6819 16.25613,-24.93186 18.83775,-36.19309 0.91878,-4.00777 1.16341,-10.63751 0.52747,-14.29504 -0.58891,-3.38716 -1.83476,-6.62218 -3.4818,-9.041 -0.7729,-1.13508 -1.30966,-2.14384 -1.19283,-2.2417 0.1169,-0.0979 1.38495,-0.8615 2.81801,-1.697 12.45593,-7.262026 22.43304,-17.631686 27.71024,-28.800486 1.57927,-3.342452 2.48864,-6.043066 2.90598,-8.630132 0.48072,-2.979963 0.34603,-3.069015 -1.43397,-0.948123 -11.83175,14.097559 -26.26774,24.851944 -41.51213,30.925285 -6.56412,2.61514 -14.30064,4.731432 -21.151511,5.785916 -5.136353,0.79058 -14.681413,0.85693 -18.629733,0.12951 -4.980643,-0.917615 -9.082601,-2.52847 -10.387447,-4.079191 -0.83784,-0.995715 -0.891308,-2.182095 -0.190187,-4.219936 0.891312,-2.590645 3.633583,-8.572937 6.244274,-13.62194 2.331896,-4.509824 2.615537,-4.943182 3.186018,-4.867715 0.344426,0.04557 1.804402,0.104189 3.244388,0.13027 2.559234,0.04637 2.664786,0.02452 4.690002,-0.970402 2.573266,-1.264172 5.766947,-4.336005 7.339408,-7.059385 2.20684,-3.822075 3.247386,-8.262885 2.699192,-11.519514 -1.487293,-8.835482 -10.297247,-10.578464 -17.501283,-3.462496 -2.308973,2.280746 -3.896882,4.826647 -5.005799,8.025816 -0.67857,1.957646 -0.788716,2.656416 -0.808989,5.132303 -0.02666,3.255928 0.34434,4.600791 1.860078,6.742746 l 0.899468,1.271079 -2.806919,4.591423 c -8.407937,13.753302 -9.926589,16.542635 -10.689231,19.633073 -0.758316,3.072904 0.362563,4.952309 4.6309,7.764729 6.438201,4.24216 16.6578,7.05305 28.359743,7.80031 2.221238,0.14185 4.721953,0.4372 5.557129,0.65635 5.158909,1.35364 8.262299,4.72071 9.849509,10.68642 0.65943,2.47849 0.78684,8.47783 0.25731,12.11584 -2.74409,18.85244 -14.657193,39.98716 -31.513037,55.9064 l -2.430474,2.29542 -1.608139,-0.87686 C 56.584898,183.06992 41.556704,166.81446 33.715122,149.26787 26.578236,133.29812 24.38058,115.77611 27.345384,98.481687 30.356381,80.917807 39.140941,64.233457 51.980117,51.693396 67.698785,36.340927 88.338804,27.87102 110.1776,27.811278 c 15.01653,-0.04109 28.86771,3.741745 41.88922,11.440133 6.52289,3.85637 15.83327,11.25088 15.44381,12.265813 -0.0789,0.205875 0.0799,0.879878 0.35333,1.497783 l 0.49696,1.123462 -0.77949,0.740908 c -1.09909,1.04467 -1.51464,1.962816 -1.51464,3.346463 0,1.420576 0.46977,2.427074 1.56165,3.34582 1.48032,1.24561 3.81456,1.161719 5.39035,-0.193727 0.70019,-0.60227 0.71244,-0.603265 1.50184,-0.121883 0.43816,0.267192 1.28263,0.485782 1.8788,0.486318 0.99456,8.94e-4 1.15455,0.101958 1.96085,1.238613 5.26382,7.420631 9.69752,16.612748 12.29938,25.499501 2.74693,9.3823 3.71444,17.008128 3.46703,27.327208 -0.20597,8.59148 -1.05562,14.27871 -3.34225,22.37181 -8.90266,31.50929 -35.05995,57.24749 -64.87504,63.83564 -6.14322,1.35745 -14.66566,1.96412 -20.55207,1.46301 z M 116.36987,87.412582 c 1.85043,-0.916979 3.91075,-3.046374 4.77582,-4.935939 2.82061,-6.161004 -0.79215,-13.272561 -7.34639,-14.461073 -4.12007,-0.74711 -8.64056,1.675161 -10.43305,5.590463 -2.64031,5.767192 -0.089,12.214311 5.65946,14.300724 0.82416,0.299132 1.8191,0.394216 3.49689,0.334183 1.95079,-0.06981 2.59755,-0.209054 3.84727,-0.828358 z"
       id="path34" /><path
       style="display:inline;fill:#01214e;stroke-width:1.42746"
       d="m 173.64764,48.856602 -0.75991,-0.620642 1.91806,-4.775897 c 1.12189,-2.793421 2.96207,-5.039708 3.31487,-5.362148 1.76824,-1.616112 5.10348,0.351482 4.14665,2.586432 -0.33262,0.776965 -7.20092,8.603093 -7.66832,8.73775 -0.10538,0.03034 -0.53339,-0.224141 -0.95135,-0.565495 z"
       id="path18"
       sodipodi:nodetypes="scsssss" /><path
       style="display:inline;fill:#01214e;stroke-width:1.42746"
       d="m 176.92259,52.22159 -0.43433,-0.66286 2.55396,-2.413169 c 5.29368,-5.001913 5.64284,-5.255544 6.8652,-4.987067 1.64387,0.361054 2.33349,2.391641 1.22554,3.608596 -0.55333,0.607772 -8.17592,5.872723 -8.7517,5.872723 -0.14795,0 -1.21979,-1.05365 -1.45867,-1.418223 z"
       id="path17"
       sodipodi:nodetypes="scsssss" /><path
       style="display:inline;fill:#01214e;stroke-width:1.42746"
       d="m 180.16229,56.881189 c -0.15733,-0.451301 -0.28605,-0.847452 -0.28605,-0.880334 0,-0.03289 0.38106,-0.211482 0.8468,-0.396889 0.46575,-0.185407 2.50312,-1.020381 4.52747,-1.8555 2.02437,-0.835119 3.9387,-1.518397 4.25408,-1.518397 0.79925,0 2.85203,1.365382 2.85203,2.206523 0,1.430953 -1.57449,2.569247 -6.25168,3.32489 -5.56262,0.89869 -5.58599,0.142835 -5.94265,-0.880295 z"
       id="path16"
       sodipodi:nodetypes="sssssssss" /><path
       style="display:inline;fill:#01214e;stroke-width:1.42746"
       d="m 172.18569,57.002145 c -3.34241,-3.793476 -3.15875,-3.263484 -1.78509,-5.151283 l 1.18499,-1.628518 0.91851,0.87508 c 0.50517,0.481294 1.84295,1.967642 2.97282,3.302995 2.615,3.090571 2.68828,3.617946 0.63739,4.588165 -0.7793,0.368672 -1.45537,0.670312 -1.50235,0.670312 -0.0469,0 -1.13881,-1.195538 -2.42627,-2.656751 z"
       id="path15" /><path
       style="display:inline;fill:#01214e;stroke-width:1.42746"
       d="M 101.3187,138.84762 C 88.256629,137.98979 75.803276,135.92632 63.538142,132.58753 52.5087,129.58512 39.444598,124.65059 29.665908,119.7934 l -3.387223,-1.68247 -0.08061,-3.36587 c -0.219311,-9.15731 1.555011,-20.297291 4.6861,-29.421433 4.842075,-14.110036 13.448849,-27.050309 24.286714,-36.51505 13.816205,-12.065732 30.149156,-19.017214 48.619131,-20.69283 4.18057,-0.379266 12.89666,-0.185719 16.94008,0.376166 17.0504,2.369375 31.89129,9.262593 44.88071,20.845937 1.36831,1.220184 1.75876,1.72815 1.75876,2.288088 0,0.395846 0.19229,1.122974 0.42733,1.61584 l 0.42733,0.896121 -0.94944,0.977604 c -3.74747,3.858645 0.84132,9.515194 5.38267,6.635156 l 1.22103,-0.774349 0.91862,0.542005 c 0.66983,0.395211 1.1552,0.497623 1.79212,0.378135 l 0.87349,-0.163869 2.35749,3.58802 c 7.4428,11.327707 12.20557,24.547042 13.73119,38.111639 0.51345,4.56538 0.75283,10.253 0.53937,12.81557 -0.16747,2.01045 -0.23252,2.19731 -0.87921,2.52571 -19.13037,9.71449 -39.01846,16.0114 -59.3234,18.78281 -5.44702,0.74346 -5.3414,0.73547 -5.3414,0.40427 0,-0.1627 0.36079,-1.28434 0.80172,-2.49253 4.24189,-11.6231 3.60375,-23.87922 -1.58513,-30.44365 -0.59706,-0.75535 -1.04612,-1.40426 -0.99788,-1.44204 0.0483,-0.0378 1.26019,-0.75085 2.69325,-1.58461 10.19826,-5.933465 18.27932,-13.361096 24.2358,-22.27609 4.10905,-6.149954 7.10761,-13.679861 6.85245,-17.207705 l -0.0821,-1.135613 -2.18913,2.59263 c -2.98664,3.537121 -11.003,11.494124 -14.44027,14.333332 -14.5718,12.03643 -31.53075,19.573269 -49.291172,21.905806 -4.511848,0.59256 -12.853706,0.60053 -16.287826,0.0156 -5.416254,-0.922597 -10.212816,-2.812522 -11.223392,-4.422202 -0.749699,-1.194147 -0.520917,-2.435727 1.228716,-6.668136 1.339809,-3.241032 6.163492,-13.098331 7.361026,-15.042408 l 0.498001,-0.808458 1.631293,0.398523 c 5.445794,1.330399 12.418216,-3.532126 15.439921,-10.767707 2.393933,-5.732358 1.805294,-11.633557 -1.460735,-14.644077 -1.9733,-1.818925 -2.563663,-2.030947 -5.655061,-2.030947 -2.641382,0 -2.803594,0.03383 -4.69845,0.980118 -4.416697,2.20567 -7.647318,5.982627 -9.466727,11.06766 -0.750018,2.096209 -0.816773,2.548978 -0.816773,5.539728 0,3.023878 0.05233,3.368819 0.731259,4.820281 0.402192,0.859832 1.025172,1.870616 1.3844,2.246183 l 0.653141,0.68285 -2.529053,4.137431 c -6.680384,10.928838 -7.742931,12.731697 -9.059972,15.372386 -2.314922,4.641451 -2.698048,6.572258 -1.709373,8.614588 0.948875,1.960117 4.468475,4.542657 8.820862,6.472407 7.264011,3.22069 14.950107,4.93273 24.507355,5.45889 3.408572,0.18766 5.565599,0.61961 7.5878,1.51948 3.95053,1.75797 6.57912,5.76174 7.54981,11.49964 0.3866,2.28523 0.16352,9.08845 -0.39781,12.13145 -0.22468,1.21808 -0.40868,2.24403 -0.40889,2.27986 -6.1e-4,0.11224 -3.64573,-10e-4 -6.90508,-0.21561 z m 14.9234,-51.305652 c 4.2132,-1.968841 6.77613,-6.98706 5.82752,-11.410271 -0.69168,-3.225193 -2.82175,-5.986019 -5.71875,-7.412209 -1.56946,-0.772642 -1.95451,-0.85309 -4.08334,-0.85309 -2.09915,0 -2.53685,0.08828 -4.09339,0.825709 -2.1455,1.016422 -3.85529,2.742354 -4.98001,5.027002 -0.77718,1.57867 -0.8332,1.876732 -0.8332,4.433759 0,2.535488 0.0611,2.868475 0.81443,4.434925 0.44794,0.931486 1.23046,2.170838 1.73894,2.754114 0.99417,1.140392 3.39477,2.554343 5.03342,2.964678 1.70591,0.427177 4.45992,0.09262 6.29438,-0.764617 z"
       id="path13" /><path
       id="path12"
       style="display:inline;fill:#01214e;stroke-width:1.42746"
       d="M 116.03239,16.524619 C 106.56984,15.938391 96.979873,16.805483 87.639703,19.148599 68.310055,23.997722 50.089868,35.40917 37.473179,50.567976 26.727085,63.479282 19.609973,78.462996 16.261616,95.225029 c -4.611681,23.086291 -0.109654,48.145291 12.382857,68.924431 8.328943,13.85379 19.166333,25.06411 32.658548,33.78374 1.372748,0.88717 2.613014,1.61601 2.756319,1.61846 0.143306,0.002 1.477093,-0.62311 2.964009,-1.3905 2.657731,-1.37168 2.693055,-1.40177 2.084493,-1.78563 -0.340471,-0.21476 -1.592811,-0.99406 -2.782913,-1.7318 -11.122635,-6.89487 -22.356614,-17.65918 -29.656548,-28.41737 -8.630929,-12.71973 -13.855747,-26.3488 -15.908513,-41.49803 -0.586271,-4.32666 -0.662511,-16.80747 -0.12854,-21.03552 2.180864,-17.26832 8.073002,-32.270709 17.735295,-45.156014 15.859695,-21.149944 39.26445,-34.23567 65.132197,-36.41659 5.02084,-0.423309 14.17074,-0.173254 18.68953,0.510993 14.90821,2.257425 28.40797,7.856072 40.2101,16.667087 l 2.30167,-5.221367 C 158.61822,29.79867 150.44025,25.2834 143.6589,22.619167 134.82973,19.150414 125.49492,17.110848 116.03239,16.524619 Z" /><path
       id="path11"
       style="display:inline;fill:#01214e;stroke-width:1.42746"
       d="m 194.25155,67.646009 -5.73614,0.863051 c 6.24438,11.361311 9.97317,23.695809 11.18673,37.00737 0.39355,4.31676 0.15855,16.33911 -0.39701,20.32381 -4.52062,32.42413 -24.65304,60.51954 -53.96446,75.33178 5.57502,-0.74949 9.12534,-1.39913 18.57999,-7.30585 6.95443,-4.34473 7.05916,-4.33135 11.73445,-9.02437 13.39314,-13.44388 22.68926,-27.84418 27.53216,-49.62197 1.81544,-8.16379 2.33853,-13.04045 2.31942,-21.62567 -0.0349,-15.645748 -2.97994,-28.685268 -9.64997,-42.725163 -0.46852,-0.986212 -1.02971,-2.108389 -1.60517,-3.222988 z M 145.34067,201.17202 c -0.0279,0.004 -0.0561,0.007 -0.0842,0.011 -0.78807,0.10574 -0.65942,0.28414 -0.15134,0.1077 0.0787,-0.0395 0.15703,-0.0794 0.23556,-0.11897 z" /></g></svg>
