<?xml version="1.0" encoding="UTF-8" standalone="no"?>
<!-- Created with Inkscape (http://www.inkscape.org/) -->

<svg
   width="297mm"
   height="297mm"
   viewBox="0 0 297 297"
   version="1.1"
   id="svg1"
   xml:space="preserve"
   sodipodi:docname="logo_badminton_motus.svg"
   inkscape:version="1.4.2 (f4327f4, 2025-05-13)"
   inkscape:export-filename="logo_badminton_motus.png"
   inkscape:export-xdpi="96"
   inkscape:export-ydpi="96"
   xmlns:inkscape="http://www.inkscape.org/namespaces/inkscape"
   xmlns:sodipodi="http://sodipodi.sourceforge.net/DTD/sodipodi-0.dtd"
   xmlns="http://www.w3.org/2000/svg"
   xmlns:svg="http://www.w3.org/2000/svg"><sodipodi:namedview
     id="namedview1"
     pagecolor="#ffffff"
     bordercolor="#999999"
     borderopacity="1"
     inkscape:showpageshadow="2"
     inkscape:pageopacity="0"
     inkscape:pagecheckerboard="0"
     inkscape:deskcolor="#d1d1d1"
     inkscape:document-units="mm"
     inkscape:zoom="0.58"
     inkscape:cx="548.27586"
     inkscape:cy="590.51724"
     inkscape:window-width="1680"
     inkscape:window-height="979"
     inkscape:window-x="-8"
     inkscape:window-y="-8"
     inkscape:window-maximized="1"
     inkscape:current-layer="g31543"
     inkscape:export-bgcolor="#ffffffff" /><defs
     id="defs1" /><g
     inkscape:label="Livello 1"
     inkscape:groupmode="layer"
     id="layer1"><g
       id="g31543"><g
         id="g3"
         transform="matrix(1.2941621,0,0,1.2941621,-43.683072,-26.159361)"><g
           id="g1"
           transform="translate(-0.00871214,-56.63732)"><path
             style="fill:#339a5d"
             d="m 149.95521,252.41277 c -1.45521,0.0714 -3.06255,0.0814 -3.57188,0.0221 -0.50932,-0.0593 -1.6895,-0.23224 -2.62261,-0.38435 -0.93311,-0.1521 -2.42139,-0.52444 -3.30729,-0.82742 -0.8859,-0.30297 -2.3251,-0.90727 -3.19822,-1.34287 -0.87313,-0.4356 -2.12328,-1.15495 -2.77813,-1.59857 -0.65484,-0.44361 -1.9478,-1.46579 -2.87324,-2.27152 -0.92544,-0.80573 -2.18571,-2.12359 -2.80061,-2.92857 -0.6149,-0.80499 -2.93966,-4.18002 -5.16613,-7.50008 -2.23862,-3.33817 -3.94346,-6.13155 -3.81397,-6.2492 0.12879,-0.11701 1.84151,-0.89238 3.80604,-1.72304 1.96453,-0.83067 4.70297,-2.1149 6.08541,-2.85385 1.38245,-0.73895 3.63677,-2.04931 5.00961,-2.91192 1.37283,-0.8626 3.69376,-2.48123 5.15761,-3.59694 1.46386,-1.11572 4.21016,-3.58197 6.1029,-5.48055 1.89274,-1.89859 4.24051,-4.57749 5.21726,-5.95313 0.97676,-1.37563 2.38188,-3.59089 3.1225,-4.92278 0.74062,-1.3319 1.76635,-3.4155 2.2794,-4.63021 0.51306,-1.21472 1.29893,-3.5778 1.74639,-5.25129 0.74395,-2.78233 0.81579,-3.41628 0.83947,-7.40833 0.0207,-3.49571 -0.073,-4.73468 -0.47049,-6.21771 -0.27301,-1.01864 -0.82472,-2.58218 -1.22603,-3.47452 -0.4013,-0.89235 -1.03892,-2.0776 -1.41693,-2.63389 -0.37801,-0.5563 -1.31458,-1.66082 -2.08126,-2.4545 -0.76668,-0.79367 -2.16787,-1.94612 -3.11376,-2.56099 -0.94589,-0.61487 -2.44412,-1.42256 -3.32942,-1.79487 -0.88529,-0.37231 -2.55217,-0.92653 -3.70416,-1.2316 -1.152,-0.30508 -3.29783,-0.66298 -4.76851,-0.79534 -1.87238,-0.16851 -4.24108,-0.13097 -7.90163,0.12521 -3.6867,0.25802 -6.29111,0.29822 -8.83541,0.13639 -1.98426,-0.12621 -4.39931,-0.35684 -5.36677,-0.51252 -0.96746,-0.15568 -2.76152,-0.57356 -3.9868,-0.92863 -1.22528,-0.35508 -2.87451,-0.89842 -3.66494,-1.20744 -0.79043,-0.30902 -2.33012,-1.04701 -3.42153,-1.63997 -1.0914,-0.59296 -2.43635,-1.43284 -2.98876,-1.86639 -0.55241,-0.43355 -1.0573,-0.73536 -1.12197,-0.67069 -0.0647,0.0647 0.18843,1.02775 0.56245,2.14017 0.37402,1.11242 1.16257,2.7705 1.75232,3.68463 0.58976,0.91412 1.86923,2.43594 2.84326,3.38183 0.97403,0.94588 2.81499,2.36607 4.09101,3.15597 1.45868,0.90296 3.41586,1.80591 5.27159,2.43204 1.62336,0.54772 3.90406,1.19215 5.06823,1.43206 1.21626,0.25065 4.48023,0.5337 7.67292,0.6654 3.05593,0.12606 6.12062,0.34958 6.8104,0.49671 0.68979,0.14714 1.88041,0.53127 2.64583,0.85362 0.76543,0.32235 1.88707,0.91989 2.49255,1.32787 0.60548,0.40797 1.62908,1.34558 2.27466,2.08358 0.82311,0.94094 1.38003,1.94983 1.86411,3.37697 0.37968,1.11933 0.82475,2.97112 0.98905,4.11508 0.1643,1.14396 0.2184,2.81084 0.12022,3.70417 -0.0982,0.89333 -0.41859,2.75533 -0.71202,4.13778 -0.29342,1.38245 -0.82434,3.28744 -1.17982,4.23333 -0.35547,0.94589 -1.26561,2.94856 -2.02252,4.45038 -0.75692,1.50182 -2.31885,4.00214 -3.47096,5.55625 -1.15211,1.55411 -3.53336,4.29724 -5.29167,6.09584 -1.7583,1.7986 -4.36184,4.20968 -5.78563,5.35795 -1.42378,1.14827 -3.80503,2.90367 -5.29166,3.9009 -1.48663,0.99722 -3.20177,2.06747 -3.81142,2.37832 l -1.10845,0.56518 -0.56392,-0.79194 c -0.31015,-0.43557 -1.63785,-2.36908 -2.95044,-4.29669 -1.31258,-1.9276 -8.07747,-12.0177 -15.033073,-22.42244 C 92.072763,188.48276 83.934602,176.33839 80.943566,171.9 c -2.991036,-4.43838 -7.282085,-10.80823 -9.535664,-14.15521 -2.253579,-3.34698 -5.765747,-8.57378 -7.804818,-11.61511 -2.039071,-3.04133 -3.961712,-6.12086 -4.272535,-6.84338 -0.310822,-0.72253 -0.808408,-2.27572 -1.105745,-3.45152 -0.432475,-1.71021 -0.516336,-2.69646 -0.419247,-4.93058 0.09568,-2.20165 0.289197,-3.27533 0.914324,-5.07285 0.436127,-1.25406 1.355252,-3.12593 2.042501,-4.1597 0.687249,-1.03377 1.927251,-2.48677 2.75556,-3.22889 0.828309,-0.74212 2.220392,-1.74848 3.093517,-2.23635 0.873125,-0.48787 2.361406,-1.16397 3.307291,-1.50245 l 2.778125,-0.61542 74.945155,-0.0693 c 66.54974,-0.0615 75.18352,-0.0201 76.86146,0.32571 1.05397,0.21725 3.98667,0.89051 5.22359,1.49614 1.78633,0.87464 2.69271,1.54833 4.40614,3.27498 1.69542,1.7085 2.38687,2.64907 3.23018,4.39397 0.59014,1.22108 1.25476,2.99405 1.47692,3.93993 0.22217,0.94589 0.4057,2.75381 0.40785,4.0176 0.002,1.26379 -0.1776,3.16879 -0.39945,4.23333 -0.22185,1.06454 -0.80441,2.76897 -1.29458,3.78761 -0.49016,1.01865 -4.05056,6.55506 -7.91199,12.30313 -3.86143,5.74807 -13.38908,19.97604 -21.17257,31.61771 -7.78348,11.64166 -17.92234,26.7626 -22.5308,33.60208 -4.60846,6.83948 -10.36332,15.39822 -12.78858,19.01944 -2.42527,3.62121 -5.16144,7.39775 -6.08039,8.3923 -0.91895,0.99456 -2.46676,2.40582 -3.43958,3.13613 -0.97283,0.73032 -2.74749,1.80504 -3.9437,2.38828 -1.19621,0.58323 -3.2798,1.34722 -4.63021,1.69775 -1.4151,0.36733 -3.57618,0.69235 -5.10111,0.76719 z m 9.55234,-82.62922 c 0.20853,0 1.56985,-0.59752 3.02515,-1.32782 1.4553,-0.73031 3.95962,-2.10758 5.56515,-3.0606 1.60553,-0.95303 4.21346,-2.70699 5.79542,-3.89769 1.58195,-1.19071 4.05413,-3.20757 5.49373,-4.48191 1.43961,-1.27434 3.44996,-3.23887 4.46746,-4.36563 1.01749,-1.12675 2.33773,-2.70348 2.93386,-3.50384 0.59612,-0.80037 1.51095,-2.2371 2.03294,-3.19273 0.52199,-0.95564 1.0706,-2.37832 1.21913,-3.16152 0.18545,-0.97786 0.18377,-1.68544 -0.005,-2.25847 -0.15147,-0.45896 -0.53983,-1.07236 -0.86303,-1.36312 -0.3232,-0.29075 -0.79941,-0.60349 -1.05825,-0.69498 -0.35662,-0.12603 -1.38213,0.7493 -4.23334,3.6134 -2.06949,2.07885 -4.78783,4.5736 -6.04076,5.54389 -1.25293,0.97029 -3.69371,2.6727 -5.42396,3.78313 -1.73025,1.11044 -4.69372,2.77147 -6.58549,3.69119 -1.89177,0.91972 -4.87136,2.20494 -6.62132,2.85605 -1.74995,0.65111 -4.72651,1.55756 -6.61458,2.01433 -1.88807,0.45676 -3.78615,0.91862 -4.21795,1.02635 -0.76479,0.19079 -0.74425,0.21141 0.79375,0.79677 0.86836,0.3305 2.37173,1.07021 3.3408,1.64379 0.96908,0.57359 2.42343,1.64743 3.23189,2.38632 0.80847,0.7389 1.90097,1.93062 2.42777,2.64827 0.52681,0.71765 1.12845,1.30482 1.33698,1.30482 z M 147.04479,155.475 c 0.87313,0.008 2.18281,-0.14408 2.91042,-0.33796 0.7276,-0.19389 1.73903,-0.5678 2.24762,-0.83092 0.50858,-0.26312 1.64009,-1.2044 2.51447,-2.09174 0.87438,-0.88733 1.86492,-2.17753 2.20122,-2.8671 0.33629,-0.68958 0.73373,-2.03931 0.88321,-2.9994 0.18981,-1.21919 0.18562,-2.23468 -0.0139,-3.36724 -0.15711,-0.89188 -0.5994,-2.2629 -0.98288,-3.04671 -0.38349,-0.78381 -1.31222,-2.03811 -2.06386,-2.78733 -0.75164,-0.74922 -2.0169,-1.68845 -2.81168,-2.08718 -0.79479,-0.39873 -2.11975,-0.84941 -2.94436,-1.00152 -1.01296,-0.18685 -2.02651,-0.19165 -3.12467,-0.0148 -0.89396,0.14397 -2.24334,0.54823 -2.99862,0.89835 -0.75529,0.35012 -1.92519,1.12765 -2.59979,1.72783 -0.6746,0.60018 -1.5835,1.65864 -2.01978,2.35212 -0.43628,0.69349 -0.9996,1.89912 -1.25182,2.67917 -0.34013,1.05192 -0.43009,2.01428 -0.34827,3.72556 0.0891,1.8628 0.2577,2.60897 0.87542,3.87339 0.4208,0.86136 1.37634,2.17816 2.1234,2.92622 0.74707,0.74806 1.88512,1.63088 2.52899,1.96182 0.64388,0.33094 1.64694,0.75272 2.22902,0.93729 0.58208,0.18457 1.77271,0.34214 2.64583,0.35015 z"
             id="path31572"
             sodipodi:nodetypes="cssssssssssssssssssssssssssssssssssssssssssssssssssssssssscsscssssssssssscsssssscsssssssssscccsssssssscsssssssssssssccsssssssssssssssssssssss" /><path
             style="fill:#334f74"
             d="m 143.83504,199.04431 c -0.75831,1.6106 -0.75981,1.61186 -1.68503,1.41989 -0.50932,-0.10568 -2.71198,-0.27062 -4.89479,-0.36652 -2.18281,-0.0959 -5.69516,-0.3514 -7.80521,-0.56776 -2.11005,-0.21636 -6.31825,-0.80571 -9.35156,-1.30967 -3.0333,-0.50396 -7.61721,-1.44706 -10.18646,-2.09579 -2.56924,-0.64873 -6.39776,-1.77063 -8.50781,-2.4931 -2.110055,-0.72247 -4.420043,-1.5653 -5.133309,-1.87296 -0.713266,-0.30766 -1.546704,-0.59532 -1.852083,-0.63926 -0.352765,-0.0507 -1.074218,-0.84389 -1.978442,-2.17503 -0.782762,-1.15234 -4.732637,-7.03625 -8.777499,-13.07537 -4.044862,-6.03911 -9.1666,-13.65911 -11.381639,-16.93333 -2.215038,-3.27422 -5.779689,-8.5725 -7.921446,-11.77396 -2.141757,-3.20146 -4.194378,-6.41615 -4.561381,-7.14375 -0.367002,-0.7276 -0.926545,-2.15635 -1.243428,-3.175 -0.316883,-1.01865 -0.644064,-2.8683 -0.727069,-4.11034 -0.106691,-1.59646 -0.01955,-2.91461 0.297355,-4.49792 0.259717,-1.29759 0.90192,-3.18564 1.526762,-4.48861 0.875085,-1.82481 1.508311,-2.67913 3.357519,-4.52984 1.665981,-1.66732 2.795069,-2.54009 4.19741,-3.24454 1.055107,-0.53002 3.661253,-1.1705 4.497916,-1.4233 1.427389,-0.43127 5.113392,-0.46279 75.869124,-0.51106 46.715,-0.0319 74.95194,0.0444 75.93542,0.20044 0.87312,0.13854 3.50597,0.5596 4.55725,0.9357 1.05128,0.3761 2.74369,1.2683 3.7609,1.98266 1.01722,0.71436 2.44431,2.01359 3.17132,2.88718 0.72701,0.87359 1.61643,2.09386 1.97649,2.7117 0.36006,0.61784 0.97296,2.07564 1.362,3.23954 0.48372,1.44717 0.75086,2.911 0.84499,4.63021 0.0951,1.73674 0.01,3.13031 -0.2755,4.50737 -0.22723,1.09635 -0.66216,2.6589 -0.96651,3.47234 -0.30434,0.81344 -2.37064,4.20268 -4.59177,7.53164 -2.22113,3.32897 -8.39383,12.54157 -13.71711,20.47245 -5.32328,7.93089 -11.15283,16.61645 -12.95455,19.30124 -1.80172,2.68479 -3.45444,4.96998 -3.67272,5.0782 -0.21828,0.10822 -1.5875,0.66733 -3.04271,1.24248 -1.45521,0.57514 -3.99488,1.47868 -5.64371,2.00787 -1.64883,0.52918 -5.10164,1.48119 -7.67291,2.11556 -2.57128,0.63437 -6.81817,1.51672 -9.43755,1.96078 -2.61937,0.44406 -6.4889,0.99133 -8.59896,1.21614 -2.11005,0.22482 -5.91793,0.52148 -8.46196,0.65923 -2.54403,0.13776 -4.65532,0.22067 -4.69175,0.18424 -0.0364,-0.0364 0.45745,-1.30898 1.0975,-2.82788 0.64006,-1.5189 1.40582,-3.71371 1.70169,-4.87735 0.29588,-1.16364 0.67522,-2.94915 0.84298,-3.9678 0.16777,-1.01864 0.29425,-3.11779 0.28108,-4.66477 -0.0132,-1.54698 -0.20207,-3.65945 -0.41977,-4.69438 -0.2177,-1.03492 -0.75285,-2.8053 -1.18922,-3.93418 -0.45948,-1.18868 -1.38771,-2.83198 -2.20554,-3.90458 -0.77668,-1.01865 -2.11812,-2.42643 -2.98097,-3.12841 -0.86286,-0.70197 -2.64039,-1.80059 -3.95008,-2.44137 -1.30969,-0.64078 -3.33375,-1.41007 -4.49791,-1.70952 -1.16417,-0.29946 -3.34054,-0.67946 -4.83637,-0.84445 -2.04998,-0.22612 -3.67881,-0.22318 -6.61459,0.0119 -2.14218,0.17154 -5.62128,0.30853 -7.73134,0.30441 -2.11005,-0.004 -5.05966,-0.18137 -6.55469,-0.39389 -1.49502,-0.21252 -3.45956,-0.57825 -4.36562,-0.81274 -0.90607,-0.23448 -2.36177,-0.67055 -3.23489,-0.96904 -0.87313,-0.2985 -2.65907,-1.07583 -3.96875,-1.72742 -1.30969,-0.65158 -2.9524,-1.60151 -3.65046,-2.11094 -0.69806,-0.50944 -1.33538,-0.86008 -1.41626,-0.7792 -0.0809,0.0809 0.11838,0.95833 0.44279,1.94989 0.32441,0.99156 1.00853,2.50131 1.52027,3.35499 0.51174,0.85369 1.62703,2.29682 2.47843,3.20697 0.8514,0.91015 2.4359,2.26862 3.5211,3.01882 1.08521,0.75021 2.84211,1.77289 3.90424,2.27262 1.06212,0.49974 3.00128,1.21536 4.30924,1.59027 1.30796,0.37491 3.46111,0.85593 4.78479,1.06893 1.32368,0.213 4.7779,0.49361 7.67606,0.62358 4.13298,0.18535 5.64439,0.35567 7.00825,0.78977 0.95639,0.3044 2.46458,1.02249 3.35154,1.59577 0.88696,0.57327 2.09576,1.65348 2.68622,2.40047 0.68035,0.86071 1.33909,2.15205 1.7985,3.52565 0.66293,1.98209 0.72454,2.50699 0.72024,6.13625 -0.004,3.42984 -0.0973,4.31006 -0.68689,6.48229 -0.3752,1.38245 -1.02372,3.23896 -1.44116,4.12557 z m 15.51739,-28.9964 c 0.0828,0 1.63367,-0.75568 3.44644,-1.67928 1.81276,-0.92361 4.41339,-2.3596 5.77918,-3.1911 1.36578,-0.8315 3.38985,-2.1793 4.49791,-2.99512 1.10807,-0.81581 2.90764,-2.20694 3.99905,-3.09138 1.09141,-0.88445 2.97231,-2.55329 4.1798,-3.70855 1.20748,-1.15525 3.01676,-3.0679 4.02063,-4.25033 1.00387,-1.18244 2.32096,-2.9659 2.92688,-3.96325 0.60591,-0.99735 1.3267,-2.46747 1.60176,-3.26693 0.27505,-0.79947 0.5001,-1.80389 0.5001,-2.23206 0,-0.42817 -0.19465,-1.18868 -0.43256,-1.69002 -0.2379,-0.50135 -0.77963,-1.09102 -1.20384,-1.31039 -0.42422,-0.21937 -0.97371,-0.33326 -1.2211,-0.25309 -0.24739,0.0802 -1.04511,0.87618 -1.77271,1.7689 -0.72761,0.89273 -2.55134,2.73749 -4.05274,4.09947 -1.5014,1.36197 -3.4064,2.99624 -4.23333,3.63169 -0.82693,0.63545 -2.57508,1.86433 -3.88477,2.73083 -1.30968,0.86651 -3.3573,2.13293 -4.55025,2.81427 -1.19295,0.68134 -3.27655,1.72735 -4.63021,2.32447 -1.35366,0.59712 -3.35417,1.44368 -4.44558,1.88124 -1.0914,0.43757 -3.11547,1.13773 -4.49791,1.55593 -1.38245,0.41819 -3.46605,0.94557 -4.63021,1.17195 -1.16417,0.22638 -2.40476,0.47414 -2.75688,0.55057 -0.53272,0.11563 -0.3022,0.2859 1.37299,1.01413 1.10726,0.48135 2.53942,1.18356 3.18258,1.56048 0.64317,0.37692 1.7824,1.16986 2.53163,1.76209 0.74923,0.59223 1.98332,1.90674 2.74244,2.92113 0.75911,1.01439 1.44793,1.84435 1.5307,1.84435 z m -11.77846,-14.63078 c 2.01231,-0.0618 2.64981,-0.19885 4.11465,-0.88476 1.0694,-0.50074 2.27527,-1.35851 3.14794,-2.23921 0.82189,-0.82945 1.75815,-2.14808 2.23468,-3.14733 0.74759,-1.56764 0.82021,-1.95388 0.82081,-4.36563 6.1e-4,-2.42999 -0.0686,-2.79204 -0.84828,-4.43808 -0.52622,-1.11092 -1.40196,-2.34525 -2.30368,-3.24697 -0.85137,-0.85137 -2.13305,-1.77553 -3.09018,-2.22818 -0.89949,-0.42539 -2.27936,-0.85389 -3.06637,-0.95223 -0.82835,-0.10349 -2.12214,-0.044 -3.07233,0.1412 -0.90278,0.17599 -2.31994,0.68 -3.14926,1.12002 -0.82932,0.44002 -2.06917,1.35223 -2.75522,2.02714 -0.68606,0.6749 -1.58264,1.94199 -1.9924,2.81575 -0.40977,0.87375 -0.85836,2.18623 -0.99688,2.91662 -0.14669,0.77353 -0.16066,2.06321 -0.0334,3.08897 0.12012,0.96855 0.52031,2.42047 0.88932,3.22649 0.36901,0.80602 1.24071,2.07464 1.9371,2.81914 0.6964,0.7445 1.78058,1.6551 2.40929,2.02355 0.62872,0.36845 1.64485,0.83342 2.25806,1.03326 0.70003,0.22813 2.00111,0.33614 3.4962,0.29025 z"
             id="path31558"
             sodipodi:nodetypes="sssssssscsssssssssssssssssssscsssssssssssssssssssssssscsssssssssssssssssscssssssssssssssssssssssssssssssscssssssssssssscsssscc" /></g><path
           style="fill:#339a5d;stroke-width:0.724376"
           d="m 207.07957,222.22103 c -1.08712,0 -2.03408,-0.0575 -2.10435,-0.12778 -0.0702,-0.0702 -0.12777,-3.43386 -0.12777,-7.47465 v -7.34705 h 1.79844 1.79846 l 0.64518,0.73477 c 0.35486,0.40413 1.80952,2.14299 3.23258,3.86415 l 2.58738,3.12937 0.0519,-3.86415 0.0519,-3.86414 h 2.10427 2.10428 v 7.47466 7.47466 h -1.71436 -1.71437 l -1.30425,-1.48964 c -0.71733,-0.81931 -2.20983,-2.5983 -3.31666,-3.9533 l -2.01241,-2.46367 -0.0518,3.9533 -0.0518,3.95331 z"
           id="path31571" /><path
           style="fill:#339a5d;stroke-width:0.724376"
           d="m 178.97363,222.22103 h -2.10824 v -5.74384 -5.74384 l -2.34781,-0.0538 -2.34782,-0.0538 -0.0553,-1.67701 -0.0553,-1.677 h 6.81132 6.81132 v 1.72492 1.72492 h -2.29989 -2.2999 v 5.74974 5.74973 z"
           id="path31570" /><path
           style="fill:#339a5d;stroke-width:0.724376"
           d="m 158.49428,222.22103 c -1.13982,0 -2.1299,-0.0575 -2.20018,-0.12778 -0.0702,-0.0702 -0.12777,-3.43386 -0.12777,-7.47465 v -7.34705 h 1.89575 1.89573 l 1.34337,1.677 c 0.73885,0.92236 2.13814,2.62572 3.10953,3.78525 0.97139,1.15953 1.84573,2.13809 1.94297,2.17456 0.10472,0.0393 0.16748,-1.48428 0.15392,-3.73733 l -0.0229,-3.80365 h 2.0759 2.07589 v 7.37883 7.37883 l -1.7275,0.0545 -1.7275,0.0545 -0.68917,-0.72532 c -0.37904,-0.39892 -1.31638,-1.50152 -2.08298,-2.45023 -0.7666,-0.9487 -1.92149,-2.38818 -2.56644,-3.19882 l -1.17262,-1.4739 -0.0518,3.91754 -0.0518,3.91754 z"
           id="path31569" /><path
           style="fill:#339a5d;stroke-width:0.724376"
           d="m 151.4228,222.17938 -2.15616,0.0541 v -7.4872 -7.48722 l 2.15616,0.0542 2.15615,0.0542 v 7.37883 7.37883 z"
           id="path31568" /><path
           style="fill:#339a5d;stroke-width:0.724376"
           d="m 130.70777,222.22103 c -1.03655,0 -1.94214,-0.0575 -2.01242,-0.12778 -0.0702,-0.0702 -0.12776,-3.43386 -0.12776,-7.47465 v -7.34705 l 1.96449,0.004 1.96449,0.004 2.46983,4.11657 c 1.3584,2.26413 2.54166,4.11659 2.62947,4.11659 0.0878,0 1.26191,-1.85289 2.60912,-4.11755 l 2.44946,-4.11753 1.86866,-0.003 1.86867,-0.003 v 7.47466 7.47466 h -1.91658 -1.91658 v -3.92899 c 0,-2.16095 -0.0647,-3.92832 -0.14375,-3.92751 -0.079,7.2e-4 -0.34779,0.36736 -0.59719,0.81455 -0.24939,0.44719 -1.06855,1.86959 -1.82035,3.16087 l -1.36692,2.34781 h -1.0109 -1.01091 l -1.01972,-1.58117 c -0.56085,-0.86965 -1.39981,-2.24683 -1.86436,-3.06037 -0.46455,-0.81357 -0.90932,-1.48197 -0.98837,-1.48536 -0.079,-0.003 -0.14375,1.71877 -0.14375,3.82701 v 3.83316 z"
           id="path31567" /><path
           style="fill:#339a5d;stroke-width:0.724376"
           d="m 115.26677,222.22103 c -2.13648,0 -3.94201,-0.0575 -4.01229,-0.12778 -0.0702,-0.0702 -0.12776,-3.43933 -0.12776,-7.4868 v -7.35903 l 4.74353,0.0636 c 4.42063,0.0592 4.81841,0.0936 5.84349,0.50429 0.60499,0.24239 1.50292,0.71839 1.99542,1.05779 0.49248,0.33939 1.22518,1.08819 1.62819,1.66401 0.44156,0.63088 0.8576,1.54199 1.04691,2.2927 0.21564,0.85509 0.28186,1.67433 0.21116,2.61224 -0.0674,0.89313 -0.27286,1.72547 -0.59332,2.40286 -0.26967,0.57003 -0.78802,1.38424 -1.1519,1.80935 -0.36389,0.42512 -1.17364,1.04584 -1.79946,1.37941 -0.62582,0.33355 -1.75922,0.73717 -2.51864,0.89692 -0.97234,0.20454 -2.52993,0.29047 -5.26533,0.29047 z m 3.04712,-3.5911 c 0.42165,-0.025 0.98225,-0.0949 1.24578,-0.15541 0.26353,-0.0605 0.80934,-0.32605 1.2129,-0.59014 0.43887,-0.28717 0.88008,-0.80243 1.09783,-1.28202 0.20023,-0.44103 0.36547,-1.18998 0.3672,-1.66433 0.002,-0.47436 -0.0859,-1.1832 -0.19481,-1.57522 -0.10887,-0.39203 -0.42826,-0.98646 -0.70973,-1.32097 -0.28147,-0.33451 -0.86031,-0.76653 -1.28632,-0.96003 -0.58747,-0.26686 -1.24908,-0.35286 -2.73906,-0.35605 l -1.96449,-0.004 v 3.91943 3.91942 l 1.10204,0.0574 c 0.60611,0.0316 1.44701,0.0371 1.86866,0.012 z"
           id="path31566" /><path
           style="fill:#339a5d;stroke-width:0.724376"
           d="m 94.611153,222.22103 c -1.12895,0 -2.100321,-0.0772 -2.158604,-0.17146 -0.05828,-0.0943 0.531954,-1.58205 1.311637,-3.3061 0.779682,-1.72405 2.240359,-4.98893 3.245949,-7.25529 l 1.828352,-4.12065 2.090843,-0.0539 c 1.52577,-0.0393 2.14275,0.0124 2.28292,0.19166 0.10565,0.13507 0.75902,1.45303 1.45195,2.92879 0.69293,1.47577 1.68741,3.63192 2.20997,4.79146 0.52254,1.15953 1.34347,2.97069 1.82427,4.02481 0.48079,1.05412 0.93134,2.15375 1.00121,2.44363 l 0.12701,0.52707 h -2.10773 -2.10773 l -0.68265,-1.43744 -0.68263,-1.43743 h -3.24226 -3.242252 l -0.548808,1.43743 -0.548808,1.43744 z m 6.445927,-6.13306 c 1.67959,0 1.84392,-0.0316 1.74527,-0.33539 -0.0599,-0.18448 -0.44714,-1.15252 -0.86055,-2.15122 -0.4134,-0.99869 -0.823,-1.83903 -0.91021,-1.86741 -0.0872,-0.0284 -0.48023,0.78873 -0.87337,1.8158 -0.393147,1.02709 -0.768919,2.01835 -0.835054,2.20283 -0.109211,0.3046 0.05001,0.33539 1.733914,0.33539 z"
           id="path31565" /><path
           style="fill:#339a5d;stroke-width:0.724376"
           d="m 83.000912,222.18002 -5.222678,0.0773 v -7.50652 -7.50652 l 5.222678,0.0673 c 4.823508,0.0622 5.288598,0.098 6.08514,0.46976 0.474354,0.22135 1.052399,0.60809 1.284545,0.85941 0.232145,0.25133 0.555567,0.77643 0.718716,1.1669 0.163149,0.39046 0.296635,1.06047 0.296635,1.48889 0,0.42842 -0.133486,1.09841 -0.296635,1.48889 -0.163149,0.39047 -0.476328,0.90122 -0.695954,1.135 l -0.399318,0.42505 0.627511,0.52802 c 0.345132,0.29041 0.829961,0.96277 1.077398,1.49414 0.247437,0.53136 0.450246,1.26798 0.450688,1.63692 4.42e-4,0.36894 -0.08706,0.98714 -0.19444,1.37375 -0.107385,0.38663 -0.487943,0.95995 -0.845684,1.27405 -0.357741,0.3141 -1.153422,0.76893 -1.768181,1.01073 -1.047126,0.41187 -1.447694,0.44453 -6.340421,0.51695 z m 1.598553,-3.25024 c 2.469046,-0.0595 2.623823,-0.0863 2.970699,-0.51522 0.201267,-0.24886 0.365941,-0.62205 0.365941,-0.8293 0,-0.20725 -0.252104,-0.62893 -0.560231,-0.93705 -0.55981,-0.55982 -0.562042,-0.56024 -2.970698,-0.56024 h -2.410467 v 1.45229 1.45228 z m -0.467932,-5.79592 c 1.175252,-0.0712 2.29061,-0.21183 2.478573,-0.31242 0.187962,-0.1006 0.398501,-0.36171 0.467864,-0.58025 0.06936,-0.21854 0.07395,-0.60517 0.01021,-0.85918 -0.06375,-0.25401 -0.369117,-0.59276 -0.67859,-0.7528 -0.393649,-0.20357 -1.141291,-0.29097 -2.488777,-0.29097 H 81.99471 v 1.46257 1.46258 z"
           id="path31564" /><path
           style="fill:#339a5d;stroke-width:0.724376"
           d="m 194.88124,222.33079 c -0.89601,0.0352 -2.0172,-0.0173 -2.49156,-0.11649 -0.47435,-0.0993 -1.38407,-0.43704 -2.02159,-0.75061 -0.63751,-0.31358 -1.56046,-0.96582 -2.05099,-1.44943 -0.49054,-0.4836 -1.13325,-1.37081 -1.42826,-1.97155 -0.4887,-0.99517 -0.53639,-1.2797 -0.53639,-3.20052 0,-1.88617 0.0541,-2.22366 0.51366,-3.20414 0.28251,-0.60275 0.92639,-1.53716 1.43084,-2.07646 0.50445,-0.5393 1.26706,-1.18559 1.69469,-1.43619 0.42763,-0.25061 1.3793,-0.59713 2.11483,-0.77005 0.94401,-0.22194 1.84463,-0.28668 3.06225,-0.22012 1.12211,0.0614 2.09331,0.23907 2.77904,0.50857 0.57976,0.22786 1.46835,0.71584 1.97463,1.08443 0.50629,0.36858 1.25236,1.18358 1.65794,1.8111 0.40559,0.62753 0.84497,1.58918 0.97639,2.13704 0.13143,0.54786 0.23265,1.60551 0.22493,2.35034 -0.009,0.87831 -0.15612,1.73404 -0.41833,2.43485 -0.22237,0.59434 -0.6974,1.46446 -1.05562,1.93362 -0.35824,0.46916 -1.07979,1.12795 -1.60346,1.46399 -0.52367,0.33604 -1.45653,0.79023 -2.07302,1.00931 -0.69747,0.24786 -1.73629,0.4225 -2.74998,0.46231 z m -0.0958,-3.48908 c 0.52707,-0.0638 1.26016,-0.27042 1.6291,-0.45906 0.36894,-0.18865 0.89624,-0.58807 1.17178,-0.8876 0.27555,-0.29954 0.59896,-0.83778 0.71872,-1.1961 0.11976,-0.35832 0.21774,-1.09751 0.21774,-1.64264 0,-0.70191 -0.15381,-1.29398 -0.52706,-2.02888 -0.43572,-0.85789 -0.70522,-1.12954 -1.55515,-1.56763 -0.71378,-0.3679 -1.3167,-0.52991 -1.97213,-0.52991 -0.55276,0 -1.23876,0.15159 -1.65512,0.36577 -0.3911,0.20116 -0.94491,0.61206 -1.2307,0.91309 -0.28579,0.30103 -0.65233,0.9235 -0.81455,1.38326 -0.1622,0.45976 -0.29445,1.1485 -0.29386,1.53054 5.9e-4,0.38204 0.0939,1.02897 0.20737,1.4376 0.11346,0.40863 0.52264,1.0806 0.90931,1.49323 0.38665,0.41264 1.04798,0.87494 1.46963,1.02732 0.50106,0.18109 1.0986,0.23687 1.72492,0.16101 z"
           id="path31563" /><path
           style="fill:#334f74;stroke-width:0.724376"
           d="m 207.02682,222.17939 -1.9413,0.0543 -0.1065,-1.58762 c -0.0586,-0.8732 -0.0906,-4.21813 -0.0712,-7.43319 l 0.0354,-5.84558 1.75484,-0.0548 1.75484,-0.0548 1.20827,1.49231 c 0.66455,0.82077 1.72916,2.10659 2.3658,2.8574 0.63666,0.7508 1.52887,1.80731 1.98272,2.3478 0.45385,0.5405 0.88508,0.98277 0.9583,0.98282 0.0732,6e-5 0.1331,-1.70329 0.1331,-3.78524 v -3.78535 h 2.01241 2.01241 v 7.37883 7.37884 l -1.64743,0.055 -1.64743,0.055 -1.04891,-1.20489 c -0.5769,-0.6627 -2.09952,-2.48208 -3.38359,-4.04306 l -2.33468,-2.83816 -0.0407,2.55068 c -0.0223,1.40287 -0.0439,3.19751 -0.0479,3.9881 l -0.008,1.43744 z"
           id="path31557" /><path
           style="fill:#334f74;stroke-width:0.724376"
           d="m 179.01812,222.17969 c -1.468,0.0408 -1.99124,-0.008 -2.0597,-0.19165 -0.0505,-0.13548 -0.11361,-2.74745 -0.14031,-5.80441 l -0.0486,-5.55807 -2.25198,-0.054 -2.25199,-0.054 v -1.62549 -1.62549 l 6.66012,0.0504 6.66011,0.0504 0.0557,1.58117 0.0557,1.58117 h -2.30483 -2.30484 l -0.0507,5.79766 -0.0507,5.79766 z"
           id="path31556" /><path
           style="fill:#334f74;stroke-width:0.724376"
           d="m 158.41832,222.17943 -2.06032,0.0544 v -7.48113 -7.48115 h 1.70261 1.70263 l 0.64518,0.73585 c 0.35486,0.40472 1.63703,1.92921 2.84927,3.38774 1.21223,1.45853 2.43871,2.917 2.7255,3.24104 l 0.52144,0.58917 0.006,-3.9769 0.006,-3.9769 h 2.0124 2.01241 v 7.48185 7.48185 l -1.76931,-0.0552 -1.76931,-0.0551 -1.9803,-2.39573 c -1.08917,-1.31765 -2.50621,-3.06413 -3.14897,-3.88107 -0.64277,-0.81695 -1.2194,-1.4854 -1.28142,-1.48546 -0.062,-6e-5 -0.11273,1.74642 -0.11273,3.88108 v 3.88118 z"
           id="path31555" /><path
           style="fill:#334f74;stroke-width:0.724376"
           d="m 151.50266,222.22086 c -1.08925,0 -2.03796,-0.0575 -2.10824,-0.12777 -0.0702,-0.0702 -0.12777,-3.43387 -0.12777,-7.47466 v -7.34688 h 2.10824 2.10824 v 7.47466 7.47466 z"
           id="path31554" /><path
           style="fill:#334f74;stroke-width:0.724376"
           d="m 130.6982,222.22086 h -1.88642 l -0.11698,-1.77284 c -0.0643,-0.97506 -0.0796,-3.19589 -0.0339,-4.93519 0.0457,-1.73929 0.0865,-4.30511 0.0907,-5.70181 l 0.008,-2.53947 h 1.79728 c 1.20412,0 1.86283,0.079 1.9959,0.23957 0.10924,0.13176 0.49718,0.75704 0.86211,1.38951 0.36492,0.63248 1.43928,2.42279 2.38747,3.97846 1.53109,2.51203 1.75356,2.7932 1.98832,2.51291 0.14538,-0.17359 1.30751,-2.05013 2.58253,-4.17012 l 2.31819,-3.85451 1.85262,-0.0549 1.85262,-0.0549 -0.0502,7.43372 -0.0502,7.43371 -1.86483,0.0548 -1.86483,0.0548 -0.0517,-4.07961 -0.0517,-4.07963 -0.38332,0.64488 c -0.21081,0.3547 -1.07571,1.82088 -1.92199,3.25819 l -1.53868,2.6133 -0.97644,0.0571 -0.97646,0.0571 -0.94961,-1.49452 c -0.52228,-0.82198 -1.41725,-2.27073 -1.98883,-3.21944 l -1.03922,-1.72492 -0.0518,3.9769 -0.0518,3.9769 z"
           id="path31553" /><path
           style="fill:#334f74;stroke-width:0.724376"
           d="m 115.0708,222.22086 c -2.0287,0 -3.73888,-0.0503 -3.80041,-0.11188 -0.0615,-0.0615 -0.12211,-3.42512 -0.13462,-7.47466 l -0.0228,-7.36277 h 3.99646 c 2.19806,0 4.50822,0.0932 5.1337,0.20704 0.62548,0.11388 1.67492,0.47004 2.3321,0.79147 0.6749,0.3301 1.56374,0.97878 2.04254,1.49065 0.46623,0.49842 1.01818,1.2419 1.22659,1.65217 0.20841,0.41027 0.48385,1.25435 0.61211,1.87575 0.14166,0.68634 0.182,1.60784 0.10277,2.34769 -0.0802,0.74916 -0.3487,1.65469 -0.69753,2.35279 -0.31191,0.62419 -0.91615,1.48392 -1.34274,1.91052 -0.4266,0.42659 -1.2484,0.99928 -1.82622,1.27263 -0.57783,0.27336 -1.69924,0.62112 -2.49204,0.77281 -0.94322,0.18046 -2.71636,0.27579 -5.12997,0.27579 z m 2.04022,-3.44984 c 0.83175,0 1.8904,-0.0952 2.35257,-0.21159 0.46215,-0.11637 1.18408,-0.50586 1.60428,-0.86554 0.42021,-0.35968 0.86577,-0.96231 0.99015,-1.33918 0.12437,-0.37687 0.19316,-1.26894 0.15285,-1.98237 -0.0547,-0.96957 -0.18874,-1.46564 -0.53042,-1.96428 -0.25141,-0.36692 -0.73313,-0.85625 -1.07048,-1.0874 -0.33734,-0.23115 -1.16446,-0.50934 -1.83803,-0.61818 -0.67357,-0.10886 -1.7206,-0.14067 -2.3267,-0.0707 l -1.10204,0.12723 v 3.87823 c 0,2.13302 0.0575,3.93572 0.12777,4.006 0.0702,0.0702 0.8083,0.12777 1.64005,0.12777 z"
           id="path31552" /><path
           style="fill:#334f74;stroke-width:0.724376"
           d="m 94.600061,222.17904 c -1.093442,0.0297 -2.040731,0.002 -2.105088,-0.063 -0.06436,-0.0643 0.425735,-1.33923 1.089093,-2.83306 0.663358,-1.49382 2.136954,-4.80751 3.274669,-7.36375 l 2.068564,-4.64769 h 2.084561 2.08456 l 1.16068,2.44364 c 0.63836,1.34399 1.76619,3.78044 2.50628,5.41433 0.74009,1.63389 1.72274,3.81189 2.18367,4.84002 0.46094,1.02812 0.83806,1.95818 0.83806,2.06681 0,0.12667 -0.7388,0.17798 -2.06032,0.14308 l -2.06032,-0.0544 -0.65622,-1.38952 -0.65621,-1.38952 h -3.30225 -3.302251 l -0.5797,1.38952 -0.579701,1.38952 z m 6.464619,-6.09123 c 1.00142,0 1.81969,-0.0647 1.81838,-0.14375 -0.002,-0.079 -0.36805,-1.0422 -0.81499,-2.14033 -0.44695,-1.09811 -0.91147,-2.02953 -1.03228,-2.06981 -0.12081,-0.0403 -0.37183,0.34073 -0.55783,0.84665 -0.18599,0.50592 -0.539741,1.41317 -0.786104,2.01612 -0.246354,0.60294 -0.447923,1.18509 -0.447923,1.29369 0,0.12161 0.699176,0.19743 1.820747,0.19743 z"
           id="path31551" /><path
           style="fill:#334f74;stroke-width:0.724376"
           d="m 82.905092,222.17601 -4.935193,0.0826 -0.0294,-2.65417 c -0.01618,-1.45979 -0.03773,-4.81032 -0.04792,-7.44562 l -0.01851,-4.79144 4.216474,-0.0544 c 2.421209,-0.0313 4.748996,0.0343 5.467189,0.15381 0.687893,0.11453 1.590926,0.39908 2.006741,0.63231 0.415814,0.23325 0.948293,0.70939 1.183287,1.05811 0.234993,0.3487 0.485006,1.01908 0.555585,1.48974 0.07655,0.51047 0.03069,1.20445 -0.113656,1.72001 -0.13309,0.47536 -0.479949,1.11903 -0.770799,1.43038 l -0.528817,0.5661 0.555543,0.39558 c 0.305548,0.21757 0.763208,0.75649 1.017021,1.1976 0.253813,0.44112 0.518824,1.15886 0.588913,1.59499 0.07107,0.44224 0.02841,1.16069 -0.09645,1.6244 -0.135154,0.50193 -0.485432,1.07812 -0.883811,1.45384 -0.397673,0.37505 -1.170796,0.78953 -1.945466,1.04298 -1.153286,0.37733 -1.793268,0.42909 -6.220733,0.50321 z m 1.491041,-3.08423 c 1.32078,-0.0669 2.592909,-0.22253 2.826955,-0.34576 0.234045,-0.12322 0.488901,-0.31894 0.566346,-0.43492 0.07745,-0.11599 0.142129,-0.43547 0.143743,-0.70996 0.0016,-0.27449 -0.208562,-0.72727 -0.467058,-1.0062 -0.461974,-0.49848 -0.512666,-0.50713 -2.970699,-0.50713 h -2.500704 v 1.56284 1.56284 z m -0.216638,-5.90682 c 1.815079,-0.0576 2.252905,-0.13102 2.587382,-0.43371 0.252787,-0.22877 0.402603,-0.59774 0.402603,-0.99154 0,-0.44928 -0.143243,-0.73986 -0.504992,-1.02441 -0.440509,-0.34651 -0.770891,-0.39723 -2.587382,-0.39723 h -2.08239 v 1.45811 1.45813 z"
           id="path31550" /><path
           style="fill:#334f74;stroke-width:0.724376"
           d="m 194.21043,222.38481 c -0.21082,-0.0111 -0.83237,-0.0857 -1.38122,-0.16591 -0.54885,-0.0802 -1.55618,-0.40705 -2.23849,-0.72635 -0.68232,-0.31929 -1.63476,-0.94387 -2.11654,-1.38797 -0.50764,-0.46792 -1.13787,-1.33944 -1.49884,-2.07267 -0.58309,-1.18442 -0.62288,-1.39404 -0.62288,-3.28168 0,-1.81971 0.0523,-2.12288 0.53574,-3.10739 0.29465,-0.60003 0.92556,-1.52453 1.40201,-2.05446 0.53073,-0.5903 1.32543,-1.18902 2.05165,-1.54569 0.74508,-0.36594 1.77266,-0.66737 2.76651,-0.81151 1.23464,-0.17908 1.88566,-0.17814 2.97069,0.004 0.76426,0.12849 1.91927,0.49183 2.56667,0.80744 0.64741,0.31561 1.53063,0.92736 1.9627,1.35944 0.43208,0.43208 1.06671,1.35706 1.41027,2.0555 0.59065,1.20071 0.62466,1.38495 0.62413,3.38117 -5.1e-4,1.91652 -0.0494,2.21073 -0.52977,3.18961 -0.29107,0.59309 -0.96153,1.48272 -1.4899,1.97696 -0.52838,0.49423 -1.49743,1.14938 -2.15344,1.45587 -0.65601,0.30649 -1.79648,0.64416 -2.53437,0.75037 -0.73787,0.10622 -1.51408,0.18406 -1.72492,0.173 z m 0.5449,-3.50731 c 0.80325,-0.0526 1.37223,-0.2277 2.01241,-0.61922 0.59966,-0.36672 1.03404,-0.82572 1.32377,-1.39876 0.31809,-0.62915 0.43123,-1.18635 0.43123,-2.12379 0,-0.96055 -0.10888,-1.47709 -0.44594,-2.11554 -0.24527,-0.46457 -0.8133,-1.10342 -1.26229,-1.41966 -0.73683,-0.51898 -0.96076,-0.57497 -2.29918,-0.57497 -1.28778,0 -1.58503,0.0676 -2.25982,0.51419 -0.50634,0.33509 -0.95211,0.86557 -1.2797,1.52298 -0.33842,0.67912 -0.5027,1.31805 -0.5027,1.95512 0,0.52049 0.10574,1.29927 0.23497,1.73061 0.12924,0.43134 0.55714,1.10644 0.95089,1.50019 0.39376,0.39376 0.99955,0.80283 1.34621,0.90907 0.34666,0.10623 1.13422,0.16013 1.75015,0.11978 z"
           id="path31549" /><g
           id="g2"
           transform="matrix(0.93107104,0,0,0.93107104,9.8219913,15.605904)"><g
             id="g31575"
             transform="matrix(0.72437647,0,0,0.72437647,40.741987,16.054273)"><path
               style="fill:#339a5d"
               d="m 152.73333,308.42522 h -1.32291 v -7.80521 -7.80521 H 148.5 145.58958 v -1.19062 -1.19063 h 7.27604 7.27605 v 1.19063 1.19062 h -3.04271 -3.04271 v 7.80521 7.80521 z"
               id="path31562" /><path
               style="fill:#334f74"
               d="m 152.90973,308.42499 c -0.63059,0 -1.2259,-0.0794 -1.32291,-0.17639 -0.097,-0.097 -0.17639,-3.60936 -0.17639,-7.80521 v -7.62882 H 148.5 145.58958 v -1.19488 -1.19487 l 7.2099,0.0704 7.20989,0.0704 0.0814,1.12448 0.0814,1.12448 h -3.05792 -3.05792 v 7.80521 7.80521 z"
               id="path31548" /></g><g
             id="g31572"
             transform="matrix(0.72437647,0,0,0.72437647,40.930108,16.054273)"><path
               style="fill:#339a5d"
               d="m 88.963943,308.42522 h -1.318121 v -8.99584 -8.99583 l 1.124474,0.002 1.124474,0.002 3.601049,6.00461 c 1.980578,3.30254 3.706969,6.03893 3.836439,6.08086 0.129457,0.0419 0.520577,-0.42877 0.869144,-1.04601 0.348557,-0.61725 1.954808,-3.35469 3.569438,-6.0832 l 2.9357,-4.96094 h 1.1269 1.1269 v 8.99583 8.99584 h -1.32292 -1.32292 l -0.0156,-6.28386 c -0.0101,-4.10063 -0.10339,-6.14596 -0.26838,-5.88698 -0.13905,0.21829 -1.5383,2.54 -3.10944,5.15938 -2.501661,4.17072 -2.936798,4.75819 -3.501915,4.72782 -0.354917,-0.0191 -0.721284,-0.0488 -0.814154,-0.0661 -0.0929,-0.0173 -1.521601,-2.27447 -3.174982,-5.0159 l -3.006132,-4.98443 -0.0709,6.17505 -0.0709,6.17506 z"
               id="path31561" /><path
               style="fill:#334f74"
               d="m 89.032473,308.37419 c -0.749774,0.0542 -1.171614,-0.0351 -1.260521,-0.26673 -0.0735,-0.19152 -0.10216,-4.21677 -0.0637,-8.94502 l 0.0699,-8.59681 h 1.049584 1.049584 l 3.523349,5.82084 c 1.937838,3.20145 3.623349,5.98748 3.745569,6.19117 0.15883,0.26468 0.771834,-0.56564 2.148698,-2.91042 1.059564,-1.80441 2.716364,-4.59044 3.681774,-6.19117 l 1.75529,-2.91042 h 1.04804 1.04804 v 8.86354 8.86355 l -1.25195,0.0804 -1.25195,0.0804 -0.071,-6.29816 -0.071,-6.29815 -3.03435,5.09323 c -2.880658,4.83528 -3.075138,5.09323 -3.840042,5.09323 -0.762877,0 -0.967327,-0.26708 -3.844799,-5.02246 l -3.039082,-5.02246 -0.13229,6.14694 -0.13229,6.14694 z"
               id="path31547" /></g><g
             id="g31573"
             transform="matrix(0.72437647,0,0,0.72437647,40.930108,16.054273)"><path
               style="fill:#339a5d"
               d="m 204.19487,308.55992 c -1.04703,0.0673 -2.48462,-0.0306 -3.30729,-0.22533 -0.80036,-0.18946 -1.87192,-0.53152 -2.38125,-0.76014 -0.50932,-0.22862 -1.15863,-0.59333 -1.44291,-0.81047 -0.50726,-0.38745 -0.50775,-0.41505 -0.026,-1.48345 0.27001,-0.59875 0.54335,-1.08865 0.60744,-1.08865 0.0641,0 0.41961,0.23842 0.79006,0.52981 0.37045,0.2914 1.44357,0.76765 2.38471,1.05834 0.94114,0.29068 2.20464,0.52786 2.80777,0.52704 0.60314,-8.1e-4 1.51973,-0.11901 2.03687,-0.26268 0.51714,-0.14366 1.20175,-0.50482 1.52135,-0.80258 0.40597,-0.37821 0.5811,-0.85145 0.5811,-1.5702 0,-0.79854 -0.15739,-1.15262 -0.70315,-1.58192 -0.38674,-0.3042 -1.369,-0.73774 -2.18282,-0.9634 -0.81381,-0.22567 -2.34922,-0.65949 -3.41202,-0.96405 -1.34742,-0.38613 -2.25358,-0.84115 -2.99354,-1.5032 -0.69192,-0.61907 -1.13617,-1.28817 -1.27669,-1.92287 -0.11853,-0.53538 -0.12452,-1.471 -0.0133,-2.07914 0.11121,-0.60814 0.43513,-1.42026 0.71984,-1.8047 0.2847,-0.38444 0.91163,-0.96713 1.39317,-1.29486 0.48154,-0.32773 1.34724,-0.7229 1.92378,-0.87814 0.57655,-0.15525 1.9019,-0.28562 2.94523,-0.28971 1.04334,-0.004 2.36934,0.12172 2.94668,0.27959 0.57734,0.15786 1.43528,0.52402 1.90655,0.81369 0.79824,0.49064 0.83551,0.57681 0.54506,1.26001 -0.17148,0.40334 -0.40184,0.84006 -0.5119,0.97048 -0.11352,0.13453 -0.80528,-0.0232 -1.59869,-0.36451 -1.01173,-0.43524 -1.94877,-0.60871 -3.38766,-0.62717 -1.51191,-0.0194 -2.18994,0.0944 -2.82642,0.47439 -0.46054,0.27495 -0.96656,0.78349 -1.12448,1.13009 -0.15792,0.3466 -0.28713,0.91165 -0.28713,1.25567 0,0.37225 0.32623,0.89999 0.80578,1.3035 0.44318,0.37291 1.24685,0.79301 1.78594,0.93355 0.53908,0.14053 1.75406,0.4513 2.69995,0.69059 0.94588,0.23928 2.28832,0.74329 2.9832,1.12001 0.69488,0.37673 1.48571,1.05136 1.7574,1.49919 0.27169,0.44782 0.57363,1.19122 0.67097,1.65198 0.0974,0.46077 0.0457,1.32553 -0.11488,1.9217 -0.16053,0.59618 -0.64763,1.48913 -1.08244,1.98436 -0.45758,0.52114 -1.31658,1.08018 -2.03939,1.32723 -0.68685,0.23475 -2.08226,0.48043 -3.10091,0.54595 z"
               id="path31560" /><path
               style="fill:#334f74"
               d="m 203.9303,308.53809 c -0.43656,0.047 -1.50812,-0.0177 -2.38125,-0.14374 -0.87312,-0.12604 -2.33164,-0.59489 -3.24114,-1.04188 -0.90951,-0.44699 -1.65365,-0.9357 -1.65365,-1.08603 0,-0.15033 0.20426,-0.61912 0.45392,-1.04176 0.24966,-0.42263 0.59227,-0.76842 0.76135,-0.76842 0.16909,0 0.45534,0.17821 0.63612,0.39603 0.18077,0.21782 1.10086,0.63454 2.04464,0.92604 0.94378,0.29151 2.39257,0.53001 3.21953,0.53001 1.03579,0 1.86798,-0.18521 2.67492,-0.59531 0.91385,-0.46444 1.22117,-0.794 1.39791,-1.49905 0.18017,-0.71874 0.12301,-1.04372 -0.2792,-1.5875 -0.27816,-0.37607 -0.80262,-0.82959 -1.16548,-1.00781 -0.36286,-0.17823 -1.77,-0.62117 -3.12699,-0.98432 -1.35698,-0.36316 -3.01375,-0.93171 -3.6817,-1.26346 -0.66796,-0.33175 -1.49296,-1.01989 -1.83334,-1.52922 -0.51975,-0.77771 -0.60288,-1.18581 -0.51903,-2.54792 0.0772,-1.25372 0.26099,-1.83316 0.80974,-2.5526 0.39044,-0.5119 1.27697,-1.20524 1.97006,-1.54076 0.9275,-0.44899 1.86671,-0.63904 3.55771,-0.71989 1.67428,-0.08 2.68016,0.0112 3.70796,0.33625 0.77573,0.24536 1.63064,0.60869 1.8998,0.8074 0.42964,0.31718 0.45136,0.47649 0.17792,1.30503 -0.1713,0.51906 -0.33199,0.94368 -0.35709,0.94361 -0.0251,-7e-5 -0.67909,-0.2409 -1.45333,-0.53517 -0.77424,-0.29427 -2.11208,-0.60866 -2.97297,-0.69864 -1.16046,-0.12129 -1.87424,-0.0456 -2.75993,0.29264 -0.65706,0.25093 -1.37305,0.71094 -1.59109,1.02223 -0.21804,0.31129 -0.39643,0.96162 -0.39643,1.44518 0,0.56328 0.2175,1.0967 0.60529,1.48449 0.37659,0.37659 1.45127,0.82653 2.84427,1.19083 1.23144,0.32205 2.90903,0.82724 3.72797,1.12263 0.84594,0.30514 1.86896,0.92912 2.36883,1.44485 0.77654,0.80119 0.89273,1.11018 0.98961,2.63166 0.0968,1.51966 0.0277,1.84794 -0.58319,2.77102 -0.38112,0.57592 -1.15815,1.28445 -1.72671,1.57451 -0.56857,0.29006 -1.5507,0.59629 -2.18252,0.68051 -0.63182,0.0842 -1.50595,0.19157 -1.94251,0.23856 z"
               id="path31546" /></g><g
             id="g31574"
             transform="matrix(0.72437647,0,0,0.72437647,45.638666,16.054273)"><path
               style="fill:#339a5d"
               d="m 171.91562,308.55592 c -0.87312,0.0593 -2.11793,-0.003 -2.76623,-0.1393 -0.64831,-0.13593 -1.71987,-0.58088 -2.38125,-0.98878 -0.75967,-0.46852 -1.50615,-1.24792 -2.02701,-2.11641 -0.45348,-0.75612 -0.89865,-1.8234 -0.98928,-2.37174 -0.0906,-0.54834 -0.16609,-3.58659 -0.16769,-6.75167 l -0.003,-5.75469 h 1.3016 1.3016 l 0.0875,6.15156 c 0.0729,5.12289 0.161,6.2843 0.52686,6.94532 0.24164,0.43656 0.78293,1.12024 1.20288,1.51929 0.45858,0.43575 1.23417,0.81017 1.94185,0.93743 0.64807,0.11654 1.76602,0.12417 2.48433,0.017 0.71831,-0.10722 1.61128,-0.42244 1.98437,-0.70051 0.3731,-0.27806 0.91648,-0.90984 1.20752,-1.40395 0.48137,-0.81724 0.53704,-1.46595 0.6163,-7.18224 l 0.0871,-6.28385 h 1.30193 1.30193 v 6.0374 c 0,4.71085 -0.0911,6.34413 -0.41458,7.43345 -0.25921,0.87283 -0.8105,1.82558 -1.47092,2.54205 -0.66494,0.72138 -1.51615,1.30453 -2.29739,1.57392 -0.68259,0.23537 -1.95544,0.47647 -2.82857,0.53577 z"
               id="path31559" /><path
               style="fill:#334f74"
               d="m 172.04793,308.50479 c -0.65485,0.0705 -1.7501,0.0326 -2.43389,-0.0842 -0.68379,-0.11682 -1.84671,-0.54083 -2.58425,-0.94225 -0.84709,-0.46104 -1.62988,-1.16599 -2.12532,-1.91399 -0.43139,-0.65126 -0.87582,-1.61349 -0.98763,-2.13827 -0.11181,-0.52479 -0.20329,-3.63306 -0.20329,-6.90728 v -5.95313 l 1.23906,-0.0799 1.23905,-0.0799 0.0839,6.16534 c 0.0738,5.42681 0.14428,6.28701 0.58824,7.18113 0.2774,0.55869 0.98319,1.3326 1.56842,1.7198 0.89163,0.58991 1.34582,0.70119 2.80292,0.68669 0.95638,-0.01 2.03652,-0.17321 2.40033,-0.36379 0.3638,-0.19057 0.94198,-0.59951 1.28484,-0.90875 0.34286,-0.30923 0.75554,-0.8599 0.91707,-1.2237 0.17291,-0.38942 0.35179,-3.21861 0.43495,-6.87917 l 0.14126,-6.21771 h 1.19063 1.19062 l 0.0714,5.80108 c 0.0558,4.52981 -0.0152,6.09895 -0.32373,7.16037 -0.21733,0.74761 -0.66903,1.7657 -1.00377,2.26242 -0.33474,0.49672 -1.01072,1.1741 -1.50218,1.50529 -0.49146,0.3312 -1.32206,0.71011 -1.84578,0.84202 -0.52373,0.13192 -1.48801,0.29751 -2.14285,0.36799 z"
               id="path31545" /></g><g
             id="g31576"
             transform="matrix(0.72437647,0,0,0.72437647,35.786831,16.054273)"><path
               style="fill:#339a5d"
               d="m 133.56859,308.66059 c -0.44621,-0.0159 -1.34169,-0.13296 -1.98994,-0.26003 -0.64825,-0.12707 -1.79846,-0.53429 -2.55602,-0.90493 -0.75756,-0.37064 -1.81842,-1.16207 -2.35747,-1.75874 -0.53905,-0.59666 -1.25516,-1.69445 -1.59136,-2.43952 -0.33619,-0.74506 -0.69119,-2.02134 -0.78887,-2.83617 -0.12097,-1.00901 -0.0451,-1.99867 0.23782,-3.10311 0.22849,-0.89188 0.70521,-2.08062 1.05937,-2.64165 0.35416,-0.56102 1.20297,-1.51214 1.88626,-2.11359 0.68328,-0.60145 1.90642,-1.34201 2.7181,-1.6457 1.00466,-0.37589 2.11512,-0.55515 3.4785,-0.56152 1.20628,-0.006 2.52883,0.16851 3.32565,0.4379 0.7276,0.24599 1.70468,0.67981 2.17129,0.96403 0.46661,0.28423 1.35958,1.08594 1.98438,1.78157 0.62479,0.69564 1.36995,1.90953 1.6559,2.69752 0.34466,0.9498 0.51907,2.10159 0.51744,3.4171 -0.002,1.61254 -0.14332,2.2941 -0.75417,3.63735 -0.44258,0.97321 -1.2158,2.08075 -1.88021,2.69318 -0.62067,0.57212 -1.59059,1.27595 -2.15537,1.56409 -0.56479,0.28813 -1.72958,0.65377 -2.58844,0.81254 -0.85885,0.15877 -1.92664,0.27562 -2.37286,0.25968 z m 0.23284,-2.61943 c 1.40703,-0.002 2.19944,-0.15771 3.22016,-0.63298 0.74463,-0.34673 1.66368,-1.03658 2.04233,-1.53302 0.37865,-0.49643 0.87074,-1.33886 1.09352,-1.87205 0.22278,-0.5332 0.40506,-1.58454 0.40506,-2.33631 0,-0.75178 -0.13818,-1.82807 -0.30706,-2.39176 -0.16889,-0.56369 -0.72782,-1.51643 -1.24206,-2.11722 -0.51425,-0.60078 -1.53693,-1.37262 -2.27263,-1.7152 -0.89263,-0.41566 -1.82174,-0.62324 -2.79283,-0.62398 -0.80037,-6.1e-4 -1.93146,0.12876 -2.51354,0.28748 -0.69963,0.19078 -1.5086,0.75075 -2.38681,1.65217 -0.81229,0.83376 -1.45482,1.78673 -1.65364,2.45261 -0.17885,0.59897 -0.32518,1.6258 -0.32518,2.28184 0,0.65605 0.18093,1.70562 0.40207,2.33239 0.22113,0.62676 0.69405,1.52239 1.05093,1.99028 0.35688,0.46789 1.27089,1.16068 2.03113,1.53953 1.09881,0.54755 1.76499,0.68828 3.24855,0.68622 z"
               id="path31544" /><path
               style="fill:#334f74"
               d="m 134.47708,308.52153 c -0.80036,0.0726 -1.97,0.0258 -2.59919,-0.1041 -0.62918,-0.12984 -1.77878,-0.5267 -2.55465,-0.88191 -0.77587,-0.3552 -1.89086,-1.14063 -2.47776,-1.74539 -0.5869,-0.60476 -1.31804,-1.61796 -1.62477,-2.25156 -0.30672,-0.63361 -0.65242,-1.75136 -0.76822,-2.48391 -0.1158,-0.73255 -0.11167,-2.05484 0.009,-2.93843 0.12084,-0.88359 0.46768,-2.09258 0.77074,-2.68664 0.30307,-0.59406 1.01361,-1.58195 1.57899,-2.19531 0.56537,-0.61336 1.71777,-1.46473 2.56089,-1.89193 1.40638,-0.7126 1.76229,-0.77673 4.31106,-0.77673 2.44876,0 2.95442,0.0827 4.26509,0.69722 0.81783,0.38347 1.95629,1.12124 2.52993,1.63948 0.57363,0.51824 1.38701,1.57371 1.80751,2.34549 0.63318,1.16209 0.78345,1.79604 0.87448,3.68912 0.0805,1.67324 -0.009,2.64344 -0.33318,3.61997 -0.24371,0.73374 -0.84507,1.86051 -1.33636,2.50392 -0.49128,0.64342 -1.46668,1.53446 -2.16754,1.9801 -0.70087,0.44563 -1.75055,0.93138 -2.33263,1.07943 -0.58209,0.14806 -1.71318,0.32859 -2.51355,0.40118 z m -0.0209,-2.36535 c 0.78886,-0.0702 1.91996,-0.34252 2.51354,-0.6051 0.59359,-0.26257 1.4811,-0.93509 1.97224,-1.49448 0.49115,-0.55939 1.06414,-1.42667 1.27331,-1.92729 0.20917,-0.50062 0.38031,-1.66591 0.38031,-2.58954 0,-1.07491 -0.18099,-2.08848 -0.50288,-2.81616 -0.27658,-0.62526 -0.90776,-1.54173 -1.40263,-2.03659 -0.49486,-0.49487 -1.43686,-1.13908 -2.09334,-1.4316 -0.7833,-0.34902 -1.73929,-0.52741 -2.78109,-0.51894 -0.87313,0.007 -2.05735,0.20985 -2.6316,0.45057 -0.57425,0.24071 -1.42514,0.7283 -1.89087,1.08353 -0.46573,0.35523 -1.15675,1.26789 -1.5356,2.02814 -0.53452,1.07264 -0.68751,1.77067 -0.683,3.11625 0.004,1.16776 0.18146,2.12123 0.54372,2.91985 0.29584,0.65223 0.73971,1.41181 0.98637,1.68797 0.24666,0.27615 0.89583,0.78635 1.44259,1.13377 0.54676,0.34742 1.43973,0.74319 1.98437,0.87949 0.54465,0.1363 1.6357,0.19036 2.42456,0.12013 z"
               id="path31543" /></g></g></g></g></g></svg>
