<?xml version="1.0" encoding="UTF-8" standalone="no"?>
<!-- Created with Inkscape (http://www.inkscape.org/) -->

<svg
   width="350mm"
   height="350mm"
   viewBox="0 0 350 350"
   version="1.1"
   id="svg1"
   xml:space="preserve"
   inkscape:version="1.4.2 (f4327f4, 2025-05-13)"
   sodipodi:docname="logo_badminton_motus_v20.svg"
   inkscape:export-filename="logo_badminton_motus_transparent_v20.png"
   inkscape:export-xdpi="96"
   inkscape:export-ydpi="96"
   xmlns:inkscape="http://www.inkscape.org/namespaces/inkscape"
   xmlns:sodipodi="http://sodipodi.sourceforge.net/DTD/sodipodi-0.dtd"
   xmlns="http://www.w3.org/2000/svg"
   xmlns:svg="http://www.w3.org/2000/svg"><sodipodi:namedview
     id="namedview1"
     pagecolor="#ffffff"
     bordercolor="#999999"
     borderopacity="1"
     inkscape:showpageshadow="2"
     inkscape:pageopacity="0"
     inkscape:pagecheckerboard="0"
     inkscape:deskcolor="#d1d1d1"
     inkscape:document-units="mm"
     inkscape:zoom="0.62"
     inkscape:cx="715.32258"
     inkscape:cy="729.83871"
     inkscape:window-width="1680"
     inkscape:window-height="979"
     inkscape:window-x="-8"
     inkscape:window-y="-8"
     inkscape:window-maximized="1"
     inkscape:current-layer="g1"
     inkscape:export-bgcolor="#00000000" /><defs
     id="defs1" /><g
     inkscape:label="Livello 1"
     inkscape:groupmode="layer"
     id="layer1"><g
       id="g1"><path
         style="fill:#49933a"
         d="m 117.83692,100.55631 c -2.7416,-0.739417 -4.38185,-2.448382 -5.32259,-5.545582 -2.15621,-7.098856 3.9899,-18.553506 12.12086,-22.589923 2.14231,-1.063501 2.73675,-1.239985 4.52143,-1.342394 2.76212,-0.158495 4.07651,0.235703 5.62948,1.688323 1.53445,1.435293 2.34479,3.211516 2.62488,5.753594 0.98742,8.961712 -6.57556,19.982446 -15.09035,21.989552 -2.00637,0.47295 -2.86914,0.48188 -4.48371,0.0464 z"
         id="path21" /><path
         style="fill:#49933a"
         d="M 103.71602,245.78046 C 99.87569,243.25812 92.870547,237.04945 88.03848,231.88542 73.784184,216.65186 63.256195,197.7679 58.315662,178.57188 49.507239,144.34749 55.319308,110.11783 75.119266,79.608549 79.84119,72.332651 85.160724,65.886918 91.819489,59.372721 101.29767,50.100318 109.93013,43.905036 121.47849,38.087263 c 24.86545,-12.526599 53.85633,-15.958714 81.38017,-9.634277 15.72252,3.612728 31.16883,10.992949 43.40221,20.737505 1.57634,1.255642 2.81512,2.424187 2.75286,2.596767 -0.0623,0.17258 -0.68994,2.191425 -1.39481,4.486322 -0.70488,2.294897 -1.36947,4.140366 -1.47687,4.101042 -0.1074,-0.03933 -2.29909,-1.797905 -4.87041,-3.907958 -6.04584,-4.961267 -6.7627,-5.48713 -10.70914,-7.85578 -12.26394,-7.360817 -27.26336,-12.420796 -42.33333,-14.280941 -4.83871,-0.59726 -19.55277,-0.678063 -24.47396,-0.134399 -16.79034,1.854894 -33.35166,7.558905 -47.36042,16.311765 -15.77418,9.855921 -29.048417,23.838835 -38.561094,40.619773 -6.555915,11.565028 -11.504628,25.318608 -13.54932,37.656588 -1.223169,7.38079 -1.537944,12.16525 -1.386938,21.08091 0.179877,10.62033 0.943527,16.35522 3.523152,26.45834 5.608418,21.96539 18.753612,43.07999 36.61274,58.80957 3.27725,2.88647 10.41146,8.39459 10.87281,8.39459 0.13183,0 0.23848,0.0893 0.237,0.19844 -0.003,0.23999 -1.44561,0.87602 -4.62752,2.04055 -3.7934,1.38834 -3.70804,1.38813 -5.7996,0.0144 z"
         id="path20" /><path
         style="fill:#49933a"
         d="m 217.8625,255.61809 c 0.0728,-0.0765 1.56104,-0.85584 3.30729,-1.73181 9.74456,-4.88815 18.95058,-11.94993 29.41652,-22.5649 9.50261,-9.63791 17.35613,-20.66927 23.23812,-32.64117 6.00052,-12.21314 9.41794,-23.60928 11.38558,-37.96771 0.57439,-4.19151 0.81001,-17.19612 0.40746,-22.48958 -0.82727,-10.87862 -3.54469,-22.66766 -7.62343,-33.07292 -3.27741,-8.360994 -9.34512,-19.338436 -12.50408,-22.621877 -0.70002,-0.727604 -2.24862,-2.512075 -3.44134,-3.965491 -1.6227,-1.97739 -2.07887,-2.696701 -1.81224,-2.857602 0.19598,-0.118266 2.73758,-1.473864 5.648,-3.01244 12.98294,-6.863362 17.26822,-9.828028 18.94486,-13.106531 1.15703,-2.262467 0.52985,-2.999666 -2.516,-2.95736 -5.9199,0.08223 -12.36926,3.541844 -23.20343,12.446972 -2.5799,2.120552 -3.79342,2.962259 -4.05762,2.814406 -0.29267,-0.163785 0.0705,-0.80227 1.62444,-2.856238 5.14678,-6.802726 8.95934,-13.449637 10.54706,-18.388008 0.601,-1.869312 0.72764,-2.755035 0.75021,-5.246874 0.0269,-2.97088 0.0204,-3.003688 -0.71521,-3.638021 -1.00785,-0.86902 -2.1234,-0.812459 -3.88375,0.196914 -4.91404,2.817674 -8.92237,10.550002 -13.3846,25.819752 -0.10508,0.359592 -1.12236,0.441031 -1.60188,0.12824 -0.41355,-0.269764 1.09904,-6.719357 2.80688,-11.968344 2.18544,-6.716842 4.75044,-11.548515 7.7115,-14.526092 4.75228,-4.778788 9.34533,-5.248896 11.37375,-1.164126 0.56727,1.142347 0.63087,1.61719 0.63087,4.710009 0,2.934022 -0.093,3.711809 -0.63251,5.291667 -0.85576,2.505809 -2.1286,5.002342 -4.28296,8.400521 -0.99175,1.564349 -1.75134,2.844271 -1.68796,2.844271 0.0634,0 0.80117,-0.520221 1.63954,-1.156048 6.88013,-5.217944 14.10229,-7.904243 18.91761,-7.036449 3.92001,0.706445 4.79353,2.7359 2.84294,6.604997 -1.92411,3.816564 -6.01194,6.693645 -14.67999,10.332017 -2.18282,0.916224 -4.01491,1.701325 -4.07132,1.744668 -0.0564,0.04334 0.61006,1.064523 1.48106,2.269289 8.03305,11.111299 13.62861,21.978892 17.61168,34.205068 4.70285,14.43554 6.64745,27.70656 6.16435,42.06875 -0.32461,9.6504 -1.15651,15.71948 -3.44535,25.13542 -5.50269,22.63714 -17.63181,44.07208 -33.91845,59.94165 -10.24861,9.98615 -20.35441,16.01391 -31.67364,18.89222 -3.10035,0.78837 -7.6618,1.48859 -7.31396,1.12276 z"
         id="path19" /><path
         style="fill:#49933a"
         d="m 170.10521,257.92177 c -9.56258,-0.96732 -15.16052,-2.12247 -23.01875,-4.74999 -5.94142,-1.9866 -14.01451,-5.6196 -18.34163,-8.25398 l -0.87912,-0.53522 2.8635,-1.52772 c 18.15254,-9.68467 36.94987,-25.12568 48.80961,-40.09452 8.614,-10.8722 14.5459,-22.38484 17.41064,-33.79062 2.37697,-9.46373 2.26075,-18.19923 -0.32972,-24.78135 -0.97505,-2.47753 -3.33774,-6.12687 -5.03934,-7.78365 l -1.18803,-1.15673 2.55642,-1.25302 c 10.08151,-4.94143 22.17559,-14.57128 28.92239,-23.02933 6.86948,-8.61184 10.3813,-17.303931 10.95497,-27.1146 0.10211,-1.74625 0.11896,-3.113697 0.0374,-3.038771 -0.0815,0.07493 -0.94749,1.325082 -1.9244,2.778125 -3.69424,5.494807 -6.85708,9.229425 -12.3314,14.560695 -12.95733,12.618721 -29.78462,22.671921 -47.74777,28.526151 -20.75692,6.76472 -44.69415,8.01022 -59.21261,3.08093 -5.65734,-1.92077 -6.31419,-2.83191 -5.16299,-7.16175 1.14233,-4.29651 3.87039,-10.39801 7.48157,-16.73311 1.38288,-2.42597 1.70997,-2.8353 2.16142,-2.70487 4.15006,1.19897 8.58663,0.32192 12.67765,-2.50619 12.59812,-8.709075 15.83509,-28.026129 5.37522,-32.077298 -1.00903,-0.3908 -1.98749,-0.532497 -3.63029,-0.525724 -7.12976,0.0294 -14.75506,5.861582 -18.93046,14.478895 -1.80357,3.722246 -2.35787,6.027267 -2.35417,9.789584 0.003,2.883515 0.0719,3.339403 0.75207,4.965765 0.41192,0.984921 1.25567,2.35436 1.87499,3.043198 l 1.12604,1.25243 -2.09168,3.4391 c -7.66557,12.60353 -11.653736,22.28729 -10.55273,25.62337 0.74851,2.26801 6.21908,5.87868 13.16448,8.68877 8.38415,3.39221 19.45445,5.47198 31.43125,5.90497 9.62359,0.34792 12.84265,1.14297 17.23524,4.25681 7.00336,4.96457 9.46775,14.64364 6.86146,26.94879 -3.28545,15.51165 -15.61391,35.62669 -31.14676,50.81889 -4.62045,4.51911 -8.11967,7.50998 -12.13223,10.36972 -4.36258,3.10918 -3.71559,3.03947 -6.9826,0.75232 C 100.57899,225.6223 85.817364,206.97417 77.638596,186.37708 65.061624,154.70373 68.780001,118.65749 87.641586,89.40729 100.5245,69.428709 120.28295,53.95307 142.19167,46.681413 c 17.21867,-5.715001 35.51856,-6.797074 53.44225,-3.160041 12.73205,2.583559 23.50408,7.042922 34.00254,14.076246 5.18524,3.473796 7.68211,5.481196 14.78726,11.888495 0.96972,0.874481 1.24563,0.98241 2.54295,0.994772 2.72329,0.02595 5.79716,2.121799 7.12014,4.854726 0.60363,1.246926 0.71796,2.968622 0.26338,3.966309 -0.26383,0.579047 -0.0188,0.99122 2.77394,4.665946 4.0524,5.332235 6.64067,9.451693 9.56842,15.229008 5.67558,11.199586 9.16866,22.920606 10.8814,36.512496 0.64363,5.10768 0.64295,18.13044 -0.001,23.87751 -0.86677,7.7328 -2.01219,13.24424 -4.2755,20.5725 -5.48425,17.75712 -15.46337,34.01252 -29.81733,48.57065 -16.09374,16.32266 -34.68604,25.70768 -56.83821,28.69079 -2.89469,0.38981 -14.23809,0.73344 -16.53646,0.50095 z m 5.0619,-140.96874 c 3.83922,-1.02226 7.23443,-3.98265 8.82601,-7.69566 0.81736,-1.90682 1.21506,-5.28631 0.8436,-7.16852 -1.21912,-6.177268 -6.95611,-10.961768 -13.14401,-10.961768 -3.52472,0 -6.49905,1.281146 -9.1466,3.939759 -1.96591,1.974125 -2.843,3.607639 -3.66437,6.824629 -0.71094,2.7845 -0.69691,3.21449 0.19803,6.06903 1.46375,4.66882 4.13988,7.46868 8.45837,8.84947 1.8425,0.58912 5.68326,0.66114 7.62897,0.14306 z m 73.53368,-32.044155 c 0.60359,-0.350301 1.55545,-1.310781 2.17665,-2.196365 l 1.10397,-1.573825 -2.8381,-2.764475 c -1.56095,-1.520462 -3.51879,-3.394295 -4.35075,-4.164075 l -1.51265,-1.399599 -1.20672,1.062201 c -2.28412,2.010562 -2.94376,3.414896 -2.70242,5.753277 0.17385,1.684451 0.68011,2.716399 1.92644,3.926823 2.28937,2.223411 5.04074,2.72735 7.40358,1.356038 z"
         id="path18" /><path
         style="fill:#49933a"
         d="m 275.0125,286.65417 v -11.90625 l 2.84427,0.0163 2.84427,0.0163 2.53162,3.2248 c 1.39239,1.77365 3.8927,4.93622 5.55625,7.02793 l 3.02463,3.80313 0.0705,-7.04427 0.0705,-7.04427 h 3.03839 3.03838 v 11.90625 11.90625 l -2.97656,-0.01 -2.97656,-0.01 -5.22606,-6.55521 c -2.87433,-3.60537 -5.37465,-6.7587 -5.55625,-7.0074 -0.26624,-0.36462 -0.31499,0.90684 -0.25171,6.56475 l 0.0785,7.01694 h -3.05504 -3.05505 z"
         id="path17" /><path
         style="fill:#49933a"
         d="m 226.32917,289.3 v -9.26041 h -3.70417 -3.70417 v -2.64584 -2.64583 h 10.46063 10.46062 l -0.0757,2.57969 -0.0757,2.57968 -3.63802,0.0736 -3.63803,0.0736 v 9.25295 9.25295 h -3.0427 -3.04271 z"
         id="path16" /><path
         style="fill:#49933a"
         d="m 189.88009,286.72031 0.0689,-11.8401 2.77812,-0.0704 2.77813,-0.0704 5.21818,6.55272 c 2.87,3.60399 5.3963,6.79084 5.61398,7.08188 0.35473,0.47426 0.39667,-0.20519 0.40422,-6.54844 l 0.008,-7.0776 h 3.04271 3.04271 v 11.90625 11.90625 h -2.87909 -2.87908 l -2.75997,-3.37344 c -1.51799,-1.85539 -4.00264,-4.96416 -5.52144,-6.90838 l -2.76146,-3.53495 -0.0705,6.90838 -0.0705,6.90839 h -3.04104 -3.04104 z"
         id="path15" /><path
         style="fill:#49933a"
         d="m 176.32292,286.65421 v -11.90625 h 3.04271 3.0427 v 11.90625 11.90625 h -3.0427 -3.04271 z"
         id="path14" /><path
         style="fill:#49933a"
         d="m 141.72592,286.72031 0.0689,-11.8401 3.11631,-0.0746 3.1163,-0.0746 0.40871,0.73606 c 0.2248,0.40484 1.70372,3.17685 3.2865,6.16003 1.58278,2.98317 3.04443,5.70438 3.2481,6.04713 0.35743,0.60148 0.4444,0.48632 2.49768,-3.30729 1.17005,-2.16176 2.82512,-5.18063 3.67792,-6.70859 l 1.55056,-2.77813 3.10886,-0.0745 3.10885,-0.0745 v 11.91464 11.91465 h -2.91041 -2.91042 l -0.007,-7.07761 -0.007,-7.0776 -2.96964,5.75076 -2.96965,5.75075 -1.85366,0.004 -1.85366,0.004 -2.86341,-5.55625 c -1.57487,-3.05594 -2.88385,-5.55636 -2.90884,-5.55648 -0.025,-1.2e-4 -0.01,3.0955 0.0333,6.87917 l 0.0787,6.87939 h -3.05796 -3.05796 z"
         id="path13" /><path
         style="fill:#49933a"
         d="m 110.44167,286.65417 v -11.90625 h 6.17538 c 6.78418,0 8.73247,0.29118 11.57035,1.72924 1.82272,0.92364 3.93618,3.06563 4.8203,4.88534 1.34612,2.77063 1.41766,6.83951 0.17849,10.15149 -0.72632,1.94128 -2.8988,4.30836 -4.96481,5.40953 -2.63451,1.40418 -4.19634,1.62862 -11.36357,1.63299 l -6.41614,0.004 z M 124.2,292.71735 c 1.60013,-0.72543 2.33171,-1.444 3.07514,-3.02047 1.14927,-2.43707 0.68647,-5.89307 -1.04104,-7.77408 -0.31839,-0.34668 -1.17421,-0.91107 -1.90181,-1.25419 -1.16387,-0.54885 -1.71258,-0.62417 -4.56406,-0.62644 l -3.24115,-0.003 v 6.61458 6.61458 l 3.24115,-0.006 c 2.68856,-0.005 3.44413,-0.0978 4.43177,-0.54559 z"
         id="path12" /><path
         style="fill:#49933a"
         d="m 78.141442,297.43594 c 0.269118,-0.61846 1.262811,-2.85089 2.208207,-4.96094 0.945395,-2.11005 2.96889,-6.63443 4.496654,-10.05416 1.527764,-3.41974 2.931841,-6.54873 3.120171,-6.95332 l 0.342418,-0.7356 3.040018,0.0741 3.040017,0.0741 2.883424,6.35 c 1.585883,3.4925 3.762299,8.25925 4.836469,10.59279 1.07418,2.33353 2.19516,4.80761 2.49108,5.49796 l 0.53803,1.25518 -3.32294,-0.074 -3.32294,-0.074 -0.951577,-2.18814 -0.951577,-2.18814 -5.285661,0.0715 -5.285662,0.0715 -0.94153,2.18282 -0.94153,2.18281 h -3.241188 -3.241188 z m 15.474764,-10.58333 c -0.513034,-1.20055 -1.239509,-2.93549 -1.614391,-3.85542 l -0.681602,-1.67261 -1.420738,3.3924 c -0.781406,1.86582 -1.487728,3.60076 -1.569604,3.85542 -0.136181,0.42357 0.122432,0.46302 3.035129,0.46302 h 3.183994 z"
         id="path11" /><path
         style="fill:#49933a"
         d="m 51.502991,286.73735 0.06888,-11.85714 7.408333,0.005 c 7.131975,0.005 7.465693,0.0278 8.945971,0.62041 1.740202,0.69664 3.169492,1.98529 3.75426,3.38483 0.937746,2.24434 0.162864,5.33239 -1.646583,6.56194 l -0.928311,0.63081 1.022748,0.5259 c 1.234814,0.63495 2.343891,1.76384 2.725708,2.7744 0.154779,0.40966 0.278801,1.54075 0.275605,2.51354 -0.0096,2.9248 -1.149061,4.68625 -3.830648,5.92172 -1.277112,0.58839 -1.60929,0.61238 -9.593881,0.69267 l -8.270966,0.0832 z m 14.46975,6.4089 c 0.832789,-0.43066 1.077257,-0.8832 1.077257,-1.99416 0,-2.04249 -0.783409,-2.38125 -5.506683,-2.38125 h -3.680877 l -0.16304,1.38906 c -0.08967,0.76398 -0.09049,1.83554 -0.0018,2.38125 l 0.16123,0.99219 h 3.682687 c 2.714635,0 3.879455,-0.10176 4.431235,-0.38709 z m -0.66447,-9.6971 c 0.994889,-0.78258 0.894596,-2.43999 -0.196713,-3.25082 -0.665541,-0.49449 -1.109448,-0.55562 -4.034843,-0.55562 h -3.287029 l -0.0024,0.79375 c -0.0013,0.43656 -0.07743,1.41883 -0.169198,2.18281 l -0.166846,1.38907 h 3.573047 c 3.23635,0 3.640037,-0.0527 4.283934,-0.55919 z"
         id="path10" /><path
         style="fill:#49933a"
         d="m 252.81722,298.6714 c -3.16054,-0.84998 -6.25111,-3.1208 -7.76639,-5.70643 -1.18136,-2.01585 -1.59279,-3.95033 -1.48121,-6.96449 0.0921,-2.48814 0.17857,-2.86074 1.09337,-4.71172 3.7099,-7.50647 14.16407,-9.32672 20.68467,-3.60156 3.87293,3.40048 4.9431,10.01592 2.42365,14.98218 -0.80538,1.58754 -3.34574,4.0283 -5.13791,4.93646 -2.88491,1.46189 -6.77305,1.88396 -9.81618,1.06556 z m 6.67894,-5.88771 c 2.94971,-1.57915 4.26112,-4.94056 3.24488,-8.31727 -0.4853,-1.61252 -1.26672,-2.66245 -2.73176,-3.67042 -0.98468,-0.67748 -1.54763,-0.85649 -3.026,-0.96227 -2.95883,-0.21171 -5.35493,1.04405 -6.65559,3.4881 -0.8241,1.54856 -0.82602,5.11265 -0.004,6.65768 1.01609,1.9088 2.65376,3.10688 4.97692,3.64101 1.00255,0.23049 2.91348,-0.15069 4.19512,-0.83683 z"
         id="path9" /><path
         style="fill:#49933a"
         d="m 255.9625,315.4977 v -1.64063 l 6.01927,0.17024 c 3.3106,0.0936 12.09146,0.34239 19.51302,0.55279 7.42157,0.21041 14.11883,0.38299 14.88282,0.38352 0.76398,5.3e-4 1.38906,0.12003 1.38906,0.26555 0,0.15706 -0.99463,0.26607 -2.4474,0.26824 -1.34606,0.002 -4.76911,0.11852 -7.60677,0.2589 -2.83765,0.14037 -9.9814,0.43344 -15.875,0.65127 -5.89359,0.21782 -11.87648,0.47135 -13.29531,0.5634 l -2.57969,0.16735 z"
         id="path8" /><path
         style="fill:#49933a"
         d="m 81.072915,316.55014 c -6.184636,-0.24992 -15.114323,-0.59962 -19.84375,-0.7771 -4.729428,-0.17749 -8.896615,-0.39611 -9.260417,-0.48583 -0.760167,-0.18747 4.487365,-0.41093 19.314583,-0.82248 5.748073,-0.15955 13.040652,-0.36563 16.20573,-0.45797 l 5.754687,-0.16787 v 1.62118 c 0,1.38221 -0.06825,1.61553 -0.46302,1.58283 -0.254662,-0.0211 -5.523178,-0.24284 -11.707813,-0.49276 z"
         id="path7" /><path
         style="fill:#49933a"
         d="m 177.11667,317.61042 v -7.67292 h -2.86632 c -1.57648,0 -2.91593,-0.0494 -2.97657,-0.10967 -0.0606,-0.0603 -0.0694,-0.77469 -0.0196,-1.5875 l 0.0906,-1.47783 h 7.64843 7.64843 v 1.5875 1.5875 h -3.05431 c -2.28996,0 -3.04356,0.0828 -3.01136,0.33073 0.0236,0.1819 0.0288,3.63472 0.0116,7.67292 l -0.0314,7.34219 h -1.71979 -1.71979 z"
         id="path6" /><path
         style="fill:#49933a"
         d="m 104.88542,316.03554 v -9.27304 l 1.78593,0.002 1.78594,0.002 3.175,5.81263 c 1.74625,3.19696 3.23453,5.81064 3.30729,5.80819 0.0728,-0.002 1.58222,-2.58929 3.35434,-5.74853 l 3.22205,-5.74407 1.73889,-0.0782 1.73889,-0.0782 v 9.28514 9.28513 l -1.65365,-0.0788 -1.65364,-0.0788 v -6.01939 c 0,-3.31066 -0.0712,-6.01933 -0.15826,-6.01927 -0.087,7e-5 -0.36237,0.44661 -0.61186,0.99231 -0.24948,0.5457 -1.43401,2.77813 -2.63229,4.96094 l -2.17869,3.96875 h -1.13402 -1.13401 l -2.71034,-4.82692 c -1.49069,-2.65481 -2.76073,-4.87748 -2.82231,-4.93928 -0.0616,-0.0618 -0.11197,2.58657 -0.11197,5.88526 v 5.9976 l -1.65365,0.0788 -1.65364,0.0788 z"
         id="path5" /><path
         style="fill:#49933a"
         d="m 234.84462,325.13461 c -1.34001,-0.36061 -3.60035,-1.50697 -3.88751,-1.9716 -0.0741,-0.11995 0.24146,-0.82335 0.70131,-1.5631 l 0.8361,-1.34501 0.81993,0.54734 c 1.5035,1.00365 2.65688,1.39991 4.40249,1.5125 3.00381,0.19376 4.70732,-1.04335 3.951,-2.86927 -0.3523,-0.85054 -1.4331,-1.36014 -4.41067,-2.07965 -3.69433,-0.89271 -5.06872,-1.8804 -5.65708,-4.0654 -0.60955,-2.26369 0.49876,-4.6711 2.70268,-5.87063 2.48386,-1.35188 7.12419,-1.15212 9.66131,0.41591 l 0.87726,0.54217 -0.51465,0.97325 c -0.90818,1.71746 -0.80991,1.6797 -2.53067,0.97235 -1.73257,-0.71222 -4.36627,-0.88493 -5.51474,-0.36165 -0.88866,0.4049 -1.38853,1.63642 -1.00546,2.47715 0.43877,0.963 1.24494,1.3602 4.27759,2.10758 1.54954,0.38187 3.22241,0.98067 3.79108,1.357 2.712,1.79471 2.67116,6.28659 -0.0752,8.27608 -1.84561,1.33695 -5.46118,1.7425 -8.42473,0.94498 z"
         id="path4" /><path
         style="fill:#49933a"
         d="m 205.32528,325.11421 c -0.90648,-0.27834 -1.70981,-0.81423 -2.69011,-1.79453 C 200.56549,321.25 200.4,320.48093 200.4,312.93219 v -6.16969 h 1.71979 1.71979 v 5.57138 c 0,6.04442 0.20418,7.44501 1.24973,8.57258 2.10441,2.26951 6.05795,1.78716 7.41538,-0.90471 0.56541,-1.12124 0.59531,-1.48341 0.59531,-7.20989 v -6.02936 h 1.87612 1.87612 l -0.0905,6.41615 c -0.0883,6.26031 -0.10717,6.45149 -0.77579,7.87135 -1.41058,2.99549 -3.93859,4.5135 -7.45992,4.47949 -1.04956,-0.0101 -2.48989,-0.19701 -3.20073,-0.41528 z"
         id="path3" /><path
         style="fill:#49933a"
         d="m 145.69653,325.03032 c -2.70621,-0.99122 -4.4086,-2.61729 -5.62167,-5.36964 -1.05075,-2.38407 -0.93473,-5.60974 0.28737,-7.98995 0.84627,-1.64824 2.78138,-3.46289 4.57835,-4.29336 1.43295,-0.66223 1.91745,-0.74716 4.26254,-0.74716 2.3169,0 2.83392,0.0882 4.15874,0.7091 2.13573,1.00101 3.95149,2.79145 4.85282,4.78516 0.62601,1.38469 0.7472,2.01052 0.75489,3.89845 0.008,1.91286 -0.10145,2.49057 -0.73101,3.86567 -0.92942,2.03006 -2.73624,3.82622 -4.8021,4.77377 -2.11928,0.97205 -5.63443,1.13916 -7.73993,0.36796 z m 5.51763,-2.95852 c 2.34588,-0.78543 3.92184,-2.9208 4.13738,-5.60598 0.39351,-4.90237 -4.36432,-8.23454 -8.80506,-6.16667 -2.4683,1.14939 -3.70401,3.38865 -3.51428,6.36829 0.16234,2.54953 1.60559,4.43294 4.06956,5.31069 1.2812,0.45641 2.91766,0.49368 4.1124,0.0937 z"
         id="path2" /><path
         style="fill:#062651"
         d="m 116.79167,100.11775 c -5.10972,-2.377316 -6.07974,-9.3051 -2.34381,-16.739112 2.68057,-5.333991 5.85066,-8.716272 10.19696,-10.879509 2.28667,-1.138121 4.23633,-1.585245 6.1541,-1.411347 2.7427,0.248699 4.46281,1.53287 5.75517,4.296591 0.67842,1.450795 0.74232,1.849519 0.74206,4.630209 -3.3e-4,3.468454 -0.42284,5.388377 -1.85153,8.413429 -2.28612,4.840553 -5.95036,8.759254 -10.13841,10.842458 -2.31054,1.149301 -2.61849,1.231961 -4.89479,1.313851 -2.03105,0.0731 -2.62425,-0.003 -3.61975,-0.46657 z"
         id="path33" /><path
         style="fill:#062651"
         d="m 166.40104,175.08512 c -23.35407,-0.85593 -51.36925,-5.73343 -76.430172,-13.30664 -7.155845,-2.16244 -17.480363,-5.61039 -18.753682,-6.26294 l -0.727605,-0.37288 v -6.9764 c 0,-4.38149 0.149017,-8.38931 0.40063,-10.77498 2.142623,-20.31527 9.574454,-38.97079 21.961333,-55.12774 7.291926,-9.511293 16.228556,-17.795534 26.189076,-24.277229 24.46298,-15.918992 54.53137,-20.526201 83.21146,-12.75002 15.50605,4.204233 28.74365,11.769173 41.3149,23.610375 1.74688,1.645435 1.78607,1.665258 3.44324,1.74177 3.21464,0.148423 6.38037,2.623369 7.27298,5.685973 0.39464,1.354041 0.39716,1.595673 0.0274,2.626792 l -0.40719,1.135578 1.1182,1.377964 c 10.58438,13.043148 17.44981,27.837187 21.0731,45.409597 1.35828,6.5874 2.19967,17.72799 1.86963,24.75517 l -0.17373,3.69931 -4.7625,1.80076 c -10.07474,3.80937 -20.1644,7.11953 -27.91355,9.15771 -1.67348,0.44016 -3.99099,1.05146 -5.15001,1.35844 -4.72313,1.25098 -15.71202,3.49464 -21.96978,4.48568 -6.22006,0.98507 -13.76292,1.85491 -21.51855,2.48151 -0.77066,0.0623 -0.86464,0.003 -0.75001,-0.47347 0.0721,-0.29956 0.60705,-2.39013 1.18884,-4.6457 3.59138,-13.92362 1.96713,-25.29478 -4.60882,-32.26563 -1.75359,-1.8589 -1.92721,-2.1302 -1.36321,-2.1302 0.67253,0 7.32543,-3.8121 11.30904,-6.48006 5.53196,-3.70494 9.21234,-6.67401 13.58797,-10.96182 5.56753,-5.45576 9.34376,-10.38351 12.21886,-15.94487 3.14122,-6.076091 4.90721,-12.902258 4.86928,-18.821463 -0.0127,-1.981361 -0.0736,-2.337744 -0.33073,-1.936469 -7.59711,11.854303 -16.81166,21.117162 -29.9485,30.105502 -18.05287,12.35193 -39.22597,19.69152 -61.78021,21.4159 -5.52966,0.42278 -14.34183,0.17574 -19.38564,-0.54344 -6.78219,-0.96704 -12.83182,-2.8207 -14.44917,-4.42735 -0.88654,-0.88066 -0.89299,-0.90462 -0.75393,-2.79866 0.17368,-2.3655 1.29772,-5.73447 3.55054,-10.64165 1.4442,-3.14582 4.91384,-9.62735 5.68553,-10.62096 0.17461,-0.22483 0.54809,-0.20789 1.45865,0.0662 2.72656,0.82057 5.93112,0.35951 9.47423,-1.36313 7.89817,-3.840043 14.14219,-13.883926 14.15321,-22.766299 0.002,-1.746011 -0.76093,-5.119753 -1.46675,-6.484644 -0.79966,-1.54637 -2.70261,-3.31251 -4.42238,-4.104428 -1.48499,-0.683803 -1.91338,-0.757173 -4.29533,-0.735642 -2.11774,0.01914 -3.02948,0.158924 -4.56795,0.700322 -4.40451,1.549985 -9.13782,5.487844 -12.23721,10.18071 -5.4909,8.313917 -6.07509,16.74256 -1.52,21.930521 l 0.7498,0.85398 -2.77314,4.61136 c -6.14963,10.22598 -9.94629,18.92183 -9.94629,22.78089 0,0.81681 0.19596,1.73327 0.48869,2.28551 1.69746,3.20221 12.04465,8.48299 21.25257,10.84643 7.26475,1.86468 13.88702,2.75483 23.6347,3.17693 8.08142,0.34995 10.70078,0.86508 14.55216,2.86188 2.54912,1.32162 6.03962,4.80601 7.34272,7.32986 1.71395,3.31957 2.34521,6.03263 2.491,10.70577 0.14695,4.71054 -0.30737,8.84566 -0.97521,8.87609 -0.21551,0.01 -1.34434,-0.0171 -2.50851,-0.0597 z m 8.10447,-57.88077 c 4.44704,-0.9426 8.26865,-4.27881 9.82792,-8.57965 0.83726,-2.30933 0.92306,-5.81244 0.19528,-7.97262 -2.26108,-6.711261 -8.85312,-10.775808 -15.28735,-9.425922 -5.01308,1.051733 -8.84594,4.735371 -10.23512,9.836632 -0.2357,0.86552 -0.55327,1.99193 -0.70571,2.50313 -0.22257,0.74638 -0.16459,1.37034 0.29431,3.1677 0.82367,3.22597 1.72867,4.9141 3.70035,6.90236 3.25339,3.28075 7.58921,4.54786 12.21032,3.56837 z m 73.75352,-31.882514 c 1.09481,-0.558531 2.2119,-1.715117 3.1987,-3.311792 l 0.62964,-1.018777 -4.214,-4.048314 c -2.31769,-2.226573 -4.3351,-4.053671 -4.48312,-4.060218 -0.51224,-0.02266 -3.05868,2.430638 -3.57652,3.445698 -0.62125,1.217734 -0.70031,3.80072 -0.1562,5.102952 1.38779,3.321453 5.80268,5.318303 8.6015,3.890451 z"
         id="path32" /><path
         style="fill:#062651"
         d="m 103.11309,245.24783 c -3.340971,-2.30119 -7.730177,-6.13308 -12.391835,-10.81839 -18.760554,-18.85575 -30.923048,-42.52521 -34.752297,-67.63152 -0.892435,-5.85122 -1.048369,-7.29684 -1.369902,-12.7 -1.38489,-23.27221 4.554109,-47.2985 16.928772,-68.485573 10.289458,-17.616921 23.465031,-31.369645 40.142692,-41.90113 16.17177,-10.212023 34.94062,-16.342994 54.97055,-17.956498 5.06039,-0.407638 17.50066,-0.177104 22.38185,0.414764 8.88036,1.076787 15.94285,2.622644 23.5625,5.157421 12.7455,4.239961 24.45484,10.544746 34.27405,18.454544 l 2.14175,1.725278 -1.28186,4.085615 c -0.70502,2.247088 -1.28186,4.256043 -1.28186,4.464344 0,0.208301 -0.0595,0.37873 -0.13224,0.37873 -0.0727,0 -2.52905,-1.977327 -5.45847,-4.394059 -2.92943,-2.416733 -6.29297,-5.021428 -7.47453,-5.788213 C 210.56719,35.45361 181.18924,30.10801 153.43646,35.708054 132.04256,40.024982 113.06704,50.071403 97.517891,65.313642 86.148464,76.458657 77.134173,89.958751 71.095002,104.88542 c -9.0535,22.377 -10.876804,45.07571 -5.504526,68.52708 5.995475,26.17178 22.362826,51.03249 44.454314,67.52259 1.74625,1.30348 3.3526,2.47052 3.56967,2.59343 0.21707,0.1229 0.32022,0.29792 0.22921,0.38892 -0.37023,0.37023 -6.41124,2.54324 -7.44687,2.67871 -1.02645,0.13426 -1.2859,0.0277 -3.28371,-1.34832 z"
         id="path31" /><path
         style="fill:#062651"
         d="m 218.17138,255.57527 c 0.0484,-0.0427 1.69534,-0.905 3.65987,-1.91613 5.90599,-3.03977 9.75734,-5.60077 16.27188,-10.82019 27.13947,-21.74403 43.88711,-51.41998 47.39357,-83.97898 0.62495,-5.8029 0.62584,-18.30535 0.002,-23.6567 -1.46875,-12.59269 -4.76349,-24.58652 -9.75525,-35.511988 -3.29851,-7.219442 -7.97732,-15.049737 -10.65096,-17.825067 -1.62808,-1.689995 -4.89634,-5.600563 -4.89634,-5.858607 0,-0.09695 2.29196,-1.394994 5.09323,-2.884552 11.3486,-6.034537 15.40856,-8.584352 17.88684,-11.233633 1.78164,-1.904587 2.64249,-3.719228 2.17699,-4.589028 -0.37392,-0.698675 -1.7012,-0.950107 -3.95714,-0.749617 -5.96371,0.53001 -12.74352,4.395582 -23.4225,13.354573 -1.60965,1.350393 -2.71406,2.102968 -2.86485,1.952182 -0.15078,-0.150785 0.7842,-1.633849 2.42534,-3.847074 6.37277,-8.594214 9.34876,-14.398573 10.48134,-20.442794 1.2582,-6.714544 -1.88268,-8.599332 -6.81626,-4.090324 -1.57115,1.435946 -3.29784,3.85867 -4.9357,6.925315 -1.80018,3.370552 -4.97314,11.961833 -6.13269,16.605216 -0.26772,1.072055 -0.33445,1.137018 -0.99719,0.970681 -0.39066,-0.09805 -0.75951,-0.227498 -0.81968,-0.287669 -0.21269,-0.212687 2.09766,-9.077191 3.27719,-12.574135 1.36207,-4.038147 3.32556,-8.252698 5.06089,-10.863002 2.84687,-4.282302 7.57787,-7.193314 10.64597,-6.550529 1.17062,0.245252 2.57016,1.639275 3.14756,3.135164 0.72274,1.872432 0.64272,6.436988 -0.15802,9.013249 -0.72991,2.348376 -2.64174,6.138601 -4.66204,9.242541 -0.7987,1.227096 -1.409,2.274258 -1.35623,2.327027 0.0528,0.05277 1.3656,-0.792932 2.91741,-1.879338 5.61714,-3.932495 10.41682,-5.928105 14.83767,-6.169205 3.1431,-0.171415 4.64932,0.161548 5.76138,1.273607 0.72367,0.723666 0.77455,0.899306 0.67187,2.318935 -0.22387,3.094987 -2.40954,6.034405 -6.42428,8.639777 -2.71087,1.759215 -4.08318,2.446973 -9.2041,4.612777 l -4.16805,1.762805 1.63579,2.23085 c 9.64178,13.149194 16.12943,26.951153 20.209,42.993033 2.54945,10.02509 3.30392,16.04488 3.4798,27.7649 0.20658,13.76521 -0.63093,20.57541 -4.18705,34.04686 -4.221,15.99018 -13.05244,33.2445 -23.72681,46.35598 -10.15345,12.47164 -21.53281,21.66667 -32.4663,26.23421 -3.3154,1.38503 -8.006,2.81947 -11.1125,3.39832 -2.17018,0.40439 -4.47825,0.70913 -4.32133,0.57056 z"
         id="path30" /><path
         style="fill:#062651"
         d="m 275.07592,286.71986 0.0689,-11.8401 2.66454,-0.083 2.66454,-0.083 4.5858,5.77154 c 2.5222,3.17434 5.07362,6.39098 5.66984,7.14808 0.59622,0.7571 1.14357,1.38193 1.21633,1.3885 0.0728,0.007 0.14623,-3.15725 0.16328,-7.03075 l 0.031,-7.04271 2.87942,-0.0343 2.87943,-0.0343 v 11.77396 11.77396 l -2.79468,0.0746 -2.79469,0.0746 -2.76458,-3.38189 c -1.52051,-1.86004 -3.42439,-4.21532 -4.23083,-5.23397 -0.80644,-1.01865 -2.11477,-2.66694 -2.9074,-3.66288 l -1.44115,-1.81079 -0.0705,7.03631 -0.0705,7.03632 h -2.90882 -2.90882 z"
         id="path29" /><path
         style="fill:#062651"
         d="M 226.32917,289.17593 V 279.775 h -3.7141 -3.71409 l 0.0761,-2.44739 0.0761,-2.4474 10.2526,-0.0805 10.2526,-0.0805 v 2.52046 2.52046 l -3.63802,0.0736 -3.63802,0.0736 -0.0248,9.26042 -0.0248,9.26042 -2.95173,0.0748 -2.95172,0.0748 z"
         id="path28" /><path
         style="fill:#062651"
         d="m 190.08312,286.71986 0.002,-11.8401 2.6303,-0.0853 2.63031,-0.0853 5.34273,6.69986 c 2.9385,3.68492 5.4736,6.90822 5.63355,7.16288 0.15995,0.25466 0.38124,0.46302 0.49176,0.46302 0.11051,0 0.20093,-3.20407 0.20093,-7.12015 v -7.12016 l 2.84427,0.0426 2.84428,0.0425 v 11.77396 11.77396 l -2.77813,0.0628 -2.77812,0.0628 -2.91042,-3.60123 c -1.60073,-1.98068 -4.07909,-5.10457 -5.50748,-6.94198 -1.42838,-1.8374 -2.67854,-3.37059 -2.77812,-3.40708 -0.0996,-0.0365 -0.14751,3.0889 -0.10649,6.94531 l 0.0746,7.01166 h -2.91885 -2.91885 z"
         id="path27" /><path
         style="fill:#062651"
         d="M 176.32292,286.71686 V 274.8732 l 3.04271,-0.0237 3.0427,-0.0237 v 11.86728 11.86729 h -3.0427 -3.04271 z"
         id="path26" /><path
         style="fill:#062651"
         d="M 141.92708,286.69496 V 274.8295 l 3.07228,0.0449 c 2.36006,0.0345 3.11674,0.13241 3.26406,0.42223 0.86477,1.70134 6.29615,11.91545 6.64729,12.50072 l 0.44778,0.74634 2.38839,-4.45051 c 1.31362,-2.44778 2.98875,-5.5207 3.72252,-6.82871 l 1.33413,-2.37821 2.92323,-0.0275 2.92324,-0.0275 v 11.86453 11.86453 h -2.78656 -2.78656 l 0.0746,-7.01166 c 0.041,-3.85641 -0.0136,-6.9818 -0.12132,-6.94531 -0.19007,0.0644 -2.09139,3.59273 -4.63379,8.59916 l -1.24286,2.44739 h -1.8666 -1.86661 l -2.90233,-5.62239 -2.90233,-5.6224 -0.0705,7.0776 -0.0705,7.07761 h -2.7738 -2.77381 z"
         id="path25" /><path
         style="fill:#062651"
         d="m 110.50509,286.72031 0.0689,-11.8401 6.35,0.0117 c 5.14738,0.009 6.67005,0.0979 8.03992,0.46684 3.6976,0.99591 6.77275,3.42795 8.15669,6.45088 0.54311,1.1863 0.71593,2.04841 0.81245,4.05275 0.24507,5.08942 -1.70235,8.82814 -5.68629,10.91672 -2.7865,1.46082 -4.9175,1.78134 -11.84351,1.78134 h -5.967 z m 13.84525,6.08834 c 1.3829,-0.71936 2.86494,-2.36378 3.30985,-3.6725 0.19199,-0.56473 0.34906,-1.68162 0.34906,-2.48198 0,-1.92599 -0.48997,-3.27765 -1.65837,-4.57489 -1.51297,-1.67981 -2.79805,-2.11975 -6.58265,-2.25356 l -3.24115,-0.1146 v 6.94239 6.9424 l 3.37344,-0.11368 c 2.7721,-0.0934 3.56531,-0.21347 4.44982,-0.67358 z"
         id="path24" /><path
         style="fill:#062651"
         d="m 77.897915,298.39116 c 0,-0.10233 1.127119,-2.69572 2.504708,-5.76308 1.37759,-3.06737 3.730949,-8.31334 5.229688,-11.65771 l 2.72498,-6.08067 2.788105,-0.0945 c 2.102972,-0.0713 2.857733,-0.007 3.071448,0.25984 0.304673,0.38102 10.237296,22.03419 10.528996,22.95329 0.17095,0.53861 0.0989,0.55201 -2.95145,0.5485 l -3.126683,-0.004 -1.042659,-2.38297 -1.042659,-2.38298 -5.277016,0.0715 -5.277016,0.0715 -0.986405,2.24896 -0.986405,2.24896 -3.078816,0.0745 c -1.693349,0.041 -3.078816,-0.009 -3.078816,-0.11151 z m 16.66875,-9.46787 c 0,-0.0617 -0.654844,-1.66751 -1.455208,-3.56854 -0.800365,-1.90102 -1.455209,-3.58689 -1.455209,-3.74638 0,-0.95164 -0.762718,0.36668 -2.119624,3.66367 l -1.548855,3.76338 h 3.289448 c 1.809197,0 3.289448,-0.0505 3.289448,-0.11213 z"
         id="path23" /><path
         style="fill:#062651"
         d="m 51.704164,286.69357 v -11.90825 l 5.756144,-0.0269 c 6.281109,-0.0294 9.011162,0.23812 10.88448,1.06647 2.230569,0.98633 3.311924,2.38399 3.615597,4.67318 0.284175,2.14222 -0.590824,4.04125 -2.356929,5.11528 l -0.80077,0.48698 0.776128,0.29508 c 1.305843,0.49648 2.530851,1.59747 3.050422,2.74161 1.153581,2.54026 0.274028,6.31457 -1.788863,7.67631 -2.279953,1.50502 -2.766753,1.57794 -11.264854,1.68725 l -7.871355,0.10125 z m 14.022614,6.64092 c 1.791094,-0.89505 2.012454,-2.96663 0.442368,-4.13985 -0.663016,-0.49543 -1.175101,-0.56596 -4.694174,-0.64651 l -3.949974,-0.0904 v 2.6701 2.6701 l 3.638021,-4.1e-4 c 2.933595,-3.3e-4 3.81727,-0.09 4.563759,-0.46302 z m -0.953045,-9.42999 c 1.10077,-0.45993 1.588893,-1.62871 1.175483,-2.81462 -0.453837,-1.30188 -1.350804,-1.57946 -5.103787,-1.57946 h -3.320431 v 2.38125 2.38125 h 3.183498 c 2.121926,0 3.477524,-0.12285 4.065237,-0.36842 z"
         id="path22" /><path
         style="fill:#062651"
         d="m 253.44896,298.70077 c -6.97591,-1.52372 -10.9876,-7.64203 -9.6533,-14.72247 0.77994,-4.13874 4.49799,-7.95093 8.86362,-9.08803 4.83719,-1.25993 10.04012,0.19004 13.34001,3.71764 2.31367,2.47331 2.78505,3.857 2.79087,8.19227 l 0.005,3.45331 -0.99461,2.01247 c -2.50682,5.07219 -8.43018,7.72811 -14.35122,6.43481 z m 5.86254,-5.65039 c 1.37799,-0.70299 3.18004,-2.73861 3.52556,-3.98251 0.14643,-0.52717 0.26624,-1.61334 0.26624,-2.4137 0,-2.10181 -0.38955,-3.20982 -1.61991,-4.60758 -1.58424,-1.7998 -2.86269,-2.39358 -5.12401,-2.37988 -4.06057,0.0246 -6.83462,2.90035 -6.80859,7.05817 0.0194,3.09872 1.74405,5.68927 4.46107,6.70082 1.37273,0.51106 3.91511,0.33102 5.29964,-0.37532 z"
         id="path1" /></g></g></svg>
